<svg xmlns="http://www.w3.org/2000/svg" viewBox="0 0 645.8 614"><defs><style>.cls-1,.cls-3,.cls-8{opacity:0.8;}.cls-2,.cls-3,.cls-4,.cls-5,.cls-6,.cls-7{fill:#7c1dc9;}.cls-3,.cls-4,.cls-5,.cls-6,.cls-7,.cls-8{isolation:isolate;}.cls-4{opacity:0.6;}.cls-5{opacity:0.4;}.cls-6{opacity:0.25;}.cls-7{opacity:0.15;}.cls-8{fill:#45108a;}.cls-9{opacity:0.3;}.cls-10{opacity:0.5;}.cls-11{fill:#c7bcd6;}</style></defs><g id="Capa_2" data-name="Capa 2"><g id="Capa_1-2" data-name="Capa 1"><g id="Base"><g class="cls-1"><path class="cls-2" d="M132.81,94.5c-.1-.1-.31-.21-.41-.41a1.57,1.57,0,0,1-.21-.62V90.88a.6.6,0,0,1,.21-.51.75.75,0,0,1,.52-.21l6.92-1.34-6.92-9.3a9.13,9.13,0,0,1-.52-.82,2,2,0,0,1-.21-.73V75.39a.55.55,0,0,1,.21-.41c.1-.1.21,0,.41.1a1.73,1.73,0,0,1,.62.62l9.71,13.12a3.72,3.72,0,0,1,.62,1,3.12,3.12,0,0,1,.21.93v.83a.9.9,0,0,1-.21.62,1.82,1.82,0,0,1-.62.31l-9.71,2A.68.68,0,0,1,132.81,94.5Z"/><path class="cls-2" d="M128.48,96.56l-1.86-1A2.42,2.42,0,0,1,126,95l-.31-.61L115.88,62c0-.11-.11-.31-.11-.42a.55.55,0,0,1,.21-.41c.1-.1.21,0,.41,0l1.86,1a2.64,2.64,0,0,1,.62.52,1.58,1.58,0,0,1,.31.72l9.71,32.33c0,.1.1.31.1.41a.52.52,0,0,1-.2.41C128.68,96.67,128.58,96.56,128.48,96.56Z"/><path class="cls-2" d="M112.06,82.52a1.73,1.73,0,0,1-.62-.62l-9.71-13.22a3.72,3.72,0,0,1-.62-1,2.84,2.84,0,0,1-.21-.93v-.83a1.39,1.39,0,0,1,.21-.72,1.52,1.52,0,0,1,.62-.31l9.71-2a.62.62,0,0,1,.62,0c.1.1.31.2.41.41a1.52,1.52,0,0,1,.21.62v2.48a.9.9,0,0,1-.21.62.8.8,0,0,1-.52.2L105,68.58,112,77.87a7.88,7.88,0,0,1,.52.83,1.92,1.92,0,0,1,.21.72V82a.53.53,0,0,1-.21.41C112.37,82.62,112.26,82.62,112.06,82.52Z"/></g><polygon class="cls-3" points="73.53 67.13 73.53 42.14 87.06 62.48 73.53 67.13"/><polygon class="cls-4" points="55.15 56.6 55.15 31.6 68.68 51.95 55.15 56.6"/><polygon class="cls-5" points="36.77 46.06 36.77 21.07 50.3 41.41 36.77 46.06"/><polygon class="cls-6" points="18.38 35.53 18.38 10.53 31.91 30.88 18.38 35.53"/><polygon class="cls-7" points="0 24.99 0 0 13.43 20.35 0 24.99"/><g class="cls-1"><path class="cls-2" d="M515.45,187.24a22.45,22.45,0,0,1-5.68-7.33,18.79,18.79,0,0,1-1.65-7.75v-4.75a9,9,0,0,0-.93-4.13,7.25,7.25,0,0,0-2.68-2.89v-4.75c1.24.72,2.17.82,2.68.31s.93-1.55.93-3.1V148.1c0-2.69.52-4.65,1.65-5.78s3-1.45,5.68-.83l1.14,4.34a2.15,2.15,0,0,0-2.48,1.13,9.29,9.29,0,0,0-.72,4.24V156a6.74,6.74,0,0,1-.93,3.82,3.09,3.09,0,0,1-2.79,1.34,16.44,16.44,0,0,1,2.79,4.55,13.35,13.35,0,0,1,.93,4.75v4.75a16,16,0,0,0,.72,5.06,9.17,9.17,0,0,0,2.48,4Z"/><path class="cls-2" d="M619.35,239.19a2.16,2.16,0,0,0,2.48-1.14,9.12,9.12,0,0,0,.72-4.23v-4.75a6.18,6.18,0,0,1,.93-3.72,2.9,2.9,0,0,1,2.89-1.24,16.83,16.83,0,0,1-2.89-4.54,13.51,13.51,0,0,1-.93-4.86V210a15.68,15.68,0,0,0-.72-5.06,9.17,9.17,0,0,0-2.48-4l1.14-3a22.45,22.45,0,0,1,5.68,7.33,18.43,18.43,0,0,1,1.65,7.75v4.75a10.1,10.1,0,0,0,.83,4.13,7.54,7.54,0,0,0,2.78,2.89v4.75c-1.23-.72-2.16-.82-2.78-.31s-.83,1.55-.83,3.1V237c0,2.69-.52,4.65-1.65,5.78s-3,1.55-5.68.83Z"/></g><polygon class="cls-3" points="536.42 162.35 536.42 187.34 522.89 167 536.42 162.35"/><polygon class="cls-4" points="554.8 172.88 554.8 197.88 541.27 177.53 554.8 172.88"/><polygon class="cls-5" points="573.19 183.42 573.19 208.41 559.66 188.07 573.19 183.42"/><polygon class="cls-6" points="591.67 193.95 591.67 218.95 578.14 198.6 591.67 193.95"/><polygon class="cls-7" points="610.06 204.49 610.06 229.48 596.53 209.14 610.06 204.49"/><path class="cls-2" d="M621.11,302.08l-5.79-3.3v-6.61a1.78,1.78,0,0,0-.93-1.55l-2.58-1.44c-.51-.31-.93-.11-.93.51v6.61L605.1,293c-.52-.31-.93-.11-.93.51v2.89a1.77,1.77,0,0,0,.93,1.55l5.78,3.31v6.61a1.8,1.8,0,0,0,.93,1.55l2.58,1.44c.52.31.93.11.93-.51v-6.61l5.79,3.3c.51.31.93.11.93-.51v-2.9A2.11,2.11,0,0,0,621.11,302.08Z"/><path class="cls-8" d="M109.89,357.65l-5.79-3.31v-6.61a1.78,1.78,0,0,0-.93-1.55l-2.58-1.44c-.51-.31-.93-.11-.93.51v6.61l-5.78-3.3c-.52-.31-.93-.1-.93.52V352a1.78,1.78,0,0,0,.93,1.55l5.78,3.3v6.61a1.8,1.8,0,0,0,.93,1.55l2.58,1.45c.52.31.93.1.93-.52V359.3l5.79,3.31c.51.3.93.1.93-.52V359.2A1.94,1.94,0,0,0,109.89,357.65Z"/><g class="cls-9"><g class="cls-10"><path class="cls-11" d="M634.21,582.74h0a13.35,13.35,0,0,1-4.47-.85,1.08,1.08,0,0,1-.64-1.39,1.07,1.07,0,0,1,1.39-.63,12.28,12.28,0,0,0,3.72.74,1.07,1.07,0,0,1,0,2.13Zm4-1a1.11,1.11,0,0,1-1-.53,1,1,0,0,1,.43-1.38,10.23,10.23,0,0,0,2.87-2.34,1.06,1.06,0,1,1,1.7,1.27,11.53,11.53,0,0,1-3.51,3C638.57,581.67,638.46,581.78,638.25,581.78Zm-11-1.17a1,1,0,0,1-.54-.11l-3.61-2.12a1,1,0,1,1,1-1.81l3.61,2.13a1.08,1.08,0,0,1,.43,1.38A1,1,0,0,1,627.3,580.61Zm-7.23-4.25a1,1,0,0,1-.54-.11l-3.61-2.13a1,1,0,1,1,1-1.8l3.61,2.12a1.09,1.09,0,0,1,.43,1.39A1.13,1.13,0,0,1,620.07,576.36Zm23.39-1a.38.38,0,0,1-.32-.11,1.11,1.11,0,0,1-.64-1.38,19.5,19.5,0,0,0,1-3.83,1,1,0,1,1,2,.32,17.84,17.84,0,0,1-1.06,4.26A.91.91,0,0,1,643.46,575.4Zm-30.63-3.19a.94.94,0,0,1-.53-.11L608.69,570a1.09,1.09,0,0,1-.43-1.39,1.08,1.08,0,0,1,1.38-.42l3.62,2.13a1.08,1.08,0,0,1,.43,1.38A1.1,1.1,0,0,1,612.83,572.21ZM605.5,568a.91.91,0,0,1-.53-.11l-3.62-2.13a1,1,0,1,1,1-1.8l3.61,2.12a1.08,1.08,0,0,1,.43,1.38A.85.85,0,0,1,605.5,568Zm39.24-.75a1.06,1.06,0,0,1-1.07-1.06V562a1.07,1.07,0,0,1,2.13,0v4.15A1.07,1.07,0,0,1,644.74,567.21Zm-46.47-3.4a.91.91,0,0,1-.53-.11l-3.62-2.12a1,1,0,1,1,1-1.81l3.61,2.12a1.09,1.09,0,0,1,.43,1.39A1,1,0,0,1,598.27,563.81ZM591,559.56a1,1,0,0,1-.54-.11l-3.61-2.13a1.08,1.08,0,0,1-.43-1.38,1.09,1.09,0,0,1,1.39-.43l3.61,2.13a1.08,1.08,0,0,1,.43,1.38A1.12,1.12,0,0,1,591,559.56Zm53.7-.75a1.06,1.06,0,0,1-1.07-1.06V553.6a1.07,1.07,0,0,1,2.13,0v4.15A1.07,1.07,0,0,1,644.74,558.81ZM583.8,555.3a1,1,0,0,1-.53-.1l-3.61-2.13a1,1,0,0,1,1-1.81l3.62,2.13a1.08,1.08,0,0,1,.43,1.38A.88.88,0,0,1,583.8,555.3Zm-7.33-4.15a1,1,0,0,1-.53-.1l-3.62-2.13a1,1,0,0,1,1-1.81l3.61,2.13a1.08,1.08,0,0,1,.43,1.38A.85.85,0,0,1,576.47,551.15Zm68.27-.74a1.06,1.06,0,0,1-1.07-1.06V545.2a1.07,1.07,0,0,1,2.13,0v4.15A1.07,1.07,0,0,1,644.74,550.41Zm-75.5-3.51a1,1,0,0,1-.53-.1l-3.62-2.13a1,1,0,1,1,1-1.81l3.61,2.13a1.08,1.08,0,0,1,.43,1.38A.79.79,0,0,1,569.24,546.9ZM562,542.75a1,1,0,0,1-.54-.1l-3.61-2.13a1,1,0,1,1,1-1.81l3.61,2.13a1.08,1.08,0,0,1,.43,1.38A1.1,1.1,0,0,1,562,542.75Zm82.73-.74a1.07,1.07,0,0,1-1.07-1.06V536.8a1.07,1.07,0,0,1,2.13,0V541A1,1,0,0,1,644.74,542Zm-90-3.51a.94.94,0,0,1-.53-.11l-3.61-2.12a1,1,0,1,1,1-1.81l3.62,2.13a1.08,1.08,0,0,1,.43,1.38A.9.9,0,0,1,554.77,538.5Zm-7.33-4.15a1,1,0,0,1-.53-.1l-3.62-2.13a1,1,0,0,1,1-1.81l3.61,2.13a1.08,1.08,0,0,1,.43,1.38A.85.85,0,0,1,547.44,534.35Zm97.3-.74a1.07,1.07,0,0,1-1.07-1.06V528.4a1.07,1.07,0,0,1,2.13,0v4.15A1,1,0,0,1,644.74,533.61ZM540.21,530.1a.91.91,0,0,1-.53-.11l-3.62-2.12a1,1,0,1,1,1-1.81l3.61,2.13a1.08,1.08,0,0,1,.43,1.38A1,1,0,0,1,540.21,530.1ZM533,526a1,1,0,0,1-.54-.1l-3.61-2.13a1,1,0,1,1,1-1.81L533.4,524a1.08,1.08,0,0,1,.43,1.38A1.1,1.1,0,0,1,533,526Zm111.76-.74a1.07,1.07,0,0,1-1.07-1.06V520a1.07,1.07,0,1,1,2.13,0v4.15A1,1,0,0,1,644.74,525.21Zm-119-3.51a1,1,0,0,1-.54-.11l-3.61-2.12a1.09,1.09,0,0,1-.43-1.39,1.08,1.08,0,0,1,1.38-.42l3.62,2.13a1.08,1.08,0,0,1,.43,1.38A1.1,1.1,0,0,1,525.75,521.7Zm-7.34-4.15a1,1,0,0,1-.53-.1l-3.62-2.13a1,1,0,0,1,1-1.81l3.61,2.13a1.08,1.08,0,0,1,.43,1.38A.85.85,0,0,1,518.41,517.55Zm126.33-.74a1.07,1.07,0,0,1-1.07-1.07V511.6a1.07,1.07,0,1,1,2.13,0v4.14A1,1,0,0,1,644.74,516.81ZM511.18,513.3a.91.91,0,0,1-.53-.11L507,511.07a1,1,0,1,1,1-1.81l3.61,2.13a1.08,1.08,0,0,1,.43,1.38A1,1,0,0,1,511.18,513.3ZM504,509.05a1,1,0,0,1-.54-.11l-3.61-2.13a1.08,1.08,0,0,1-.43-1.38,1.09,1.09,0,0,1,1.39-.43l3.61,2.13a1.08,1.08,0,0,1,.43,1.38A.89.89,0,0,1,504,509.05Zm140.79-.64a1.07,1.07,0,0,1-1.07-1.07V503.2a1.07,1.07,0,1,1,2.13,0v4.14A1,1,0,0,1,644.74,508.41ZM496.61,504.9a.93.93,0,0,1-.53-.11l-3.62-2.12a1,1,0,0,1,1-1.81L497,503a1.08,1.08,0,0,1,.43,1.39A.85.85,0,0,1,496.61,504.9Zm-7.23-4.25a.93.93,0,0,1-.53-.11l-3.62-2.13a1,1,0,0,1,1-1.81l3.61,2.13a1.08,1.08,0,0,1,.43,1.38C490.12,500.54,489.8,500.65,489.38,500.65ZM644.74,500a1.07,1.07,0,0,1-1.07-1.07V494.8a1.07,1.07,0,1,1,2.13,0v4.14A1,1,0,0,1,644.74,500ZM482.15,496.5a.91.91,0,0,1-.53-.11L478,494.26a1,1,0,1,1,1-1.8l3.61,2.12A1.09,1.09,0,0,1,483,496,1,1,0,0,1,482.15,496.5Zm-7.23-4.26a1,1,0,0,1-.54-.1L470.77,490a1,1,0,1,1,1-1.81l3.61,2.13a1,1,0,0,1-.42,1.91Zm169.82-.53a1.06,1.06,0,0,1-1.07-1.06V486.5a1.07,1.07,0,0,1,2.13,0v4.15A1.07,1.07,0,0,1,644.74,491.71ZM467.58,488.1a.93.93,0,0,1-.53-.11l-3.62-2.13a1,1,0,1,1,1-1.8l3.61,2.12a1.08,1.08,0,0,1,.43,1.39A.86.86,0,0,1,467.58,488.1Zm-7.23-4.26a1,1,0,0,1-.53-.1l-3.62-2.13a1,1,0,0,1,1-1.81l3.61,2.13a1.08,1.08,0,0,1,.43,1.38A.85.85,0,0,1,460.35,483.84Zm184.39-.53a1.06,1.06,0,0,1-1.07-1.06V478.1a1.07,1.07,0,0,1,2.13,0v4.15A1.07,1.07,0,0,1,644.74,483.31ZM453.12,479.7a.91.91,0,0,1-.53-.11L449,477.46a1,1,0,1,1,1-1.8l3.61,2.12a1.08,1.08,0,0,1,.43,1.38A1,1,0,0,1,453.12,479.7Zm-7.23-4.26a1,1,0,0,1-.54-.1l-3.61-2.13a1,1,0,1,1,1-1.81l3.61,2.13a1,1,0,0,1-.42,1.91Zm198.85-.53a1.06,1.06,0,0,1-1.07-1.06V469.7a1.07,1.07,0,0,1,2.13,0v4.15A1.07,1.07,0,0,1,644.74,474.91Zm-206.19-3.72a.93.93,0,0,1-.53-.11L434.4,469a1,1,0,0,1,1-1.81l3.61,2.13a1.07,1.07,0,0,1,.43,1.38C439.29,471.08,439,471.19,438.55,471.19ZM431.32,467a1,1,0,0,1-.53-.1l-3.62-2.13a1,1,0,0,1,1-1.81l3.61,2.13a1.07,1.07,0,0,1,.43,1.38A.85.85,0,0,1,431.32,467Zm213.42-.53a1.06,1.06,0,0,1-1.07-1.06V461.3a1.07,1.07,0,0,1,2.13,0v4.15A1,1,0,0,1,644.74,466.51Zm-220.65-3.72a.91.91,0,0,1-.53-.11l-3.62-2.12a1,1,0,1,1,1-1.81l3.61,2.13a1.08,1.08,0,0,1,.43,1.38A.8.8,0,0,1,424.09,462.79Zm-7.23-4.15a1,1,0,0,1-.54-.1l-3.61-2.13a1,1,0,1,1,1-1.81l3.61,2.13a1,1,0,0,1-.42,1.91Zm227.88-.53a1.07,1.07,0,0,1-1.07-1.06V452.9a1.07,1.07,0,0,1,2.13,0v4.15A1,1,0,0,1,644.74,458.11Zm-235.22-3.72a.93.93,0,0,1-.53-.11l-3.62-2.12a1,1,0,0,1,1-1.81l3.61,2.12a1.08,1.08,0,0,1,.43,1.39A.85.85,0,0,1,409.52,454.39Zm-7.23-4.15a1,1,0,0,1-.53-.1L398.14,448a1,1,0,0,1,1-1.81l3.61,2.13a1.07,1.07,0,0,1,.43,1.38A.85.85,0,0,1,402.29,450.24Zm242.45-.53a1.07,1.07,0,0,1-1.07-1.06V444.5a1.07,1.07,0,0,1,2.13,0v4.15A1,1,0,0,1,644.74,449.71ZM395.06,446a.91.91,0,0,1-.53-.11l-3.62-2.13a1,1,0,1,1,1-1.8l3.61,2.12a1.09,1.09,0,0,1,.43,1.39A1,1,0,0,1,395.06,446Zm-7.23-4.15a1,1,0,0,1-.54-.11l-3.61-2.12a1,1,0,1,1,1-1.81l3.61,2.13a1,1,0,0,1-.42,1.91Zm256.91-.53a1.07,1.07,0,0,1-1.07-1.06V436.1a1.07,1.07,0,0,1,2.13,0v4.15A1,1,0,0,1,644.74,441.31Zm-264.25-3.72c-.21,0-.43,0-.53-.11a24.6,24.6,0,0,1-3.51-2.66,1.13,1.13,0,0,1-.11-1.49,1.15,1.15,0,0,1,1.49-.1,32.25,32.25,0,0,0,3.19,2.44,1,1,0,0,1,.32,1.49A1,1,0,0,1,380.49,437.59Zm264.25-4.68a1.07,1.07,0,0,1-1.07-1.06V427.7a1.07,1.07,0,1,1,2.13,0v4.15A1,1,0,0,1,644.74,432.91Zm-270.52-.85a1,1,0,0,1-.75-.32,40.26,40.26,0,0,1-2.66-3.4,1.14,1.14,0,0,1,.22-1.49,1.13,1.13,0,0,1,1.48.21,18.94,18.94,0,0,0,2.56,3.19,1,1,0,0,1-.11,1.49A.78.78,0,0,1,374.22,432.06Zm-4.79-6.81a1.28,1.28,0,0,1-1-.53,32.52,32.52,0,0,1-1.91-3.83,1,1,0,0,1,1.91-.85,37,37,0,0,0,1.81,3.62.93.93,0,0,1-.42,1.38A.43.43,0,0,1,369.43,425.25Zm275.31-.64a1.06,1.06,0,0,1-1.07-1.06V419.4a1.07,1.07,0,0,1,2.13,0v4.15A1.07,1.07,0,0,1,644.74,424.61Zm-278.82-7a1,1,0,0,1-1-.75c-.53-1.38-.85-2.76-1.27-4.15a1.08,1.08,0,0,1,.74-1.27,1.1,1.1,0,0,1,1.28.74c.32,1.28.74,2.66,1.17,3.94a1.11,1.11,0,0,1-.64,1.38A.38.38,0,0,1,365.92,417.6Zm278.82-1.39a1.06,1.06,0,0,1-1.07-1.06V411a1.07,1.07,0,0,1,2.13,0v4.15A1.07,1.07,0,0,1,644.74,416.21Zm-280.84-6.7a1.13,1.13,0,0,1-1.06-.85,28.61,28.61,0,0,1-.32-4.25,1.06,1.06,0,0,1,1.06-1.06h0a1.06,1.06,0,0,1,1.06,1.06,27.2,27.2,0,0,0,.32,4,1.05,1.05,0,0,1-.85,1.17C364,409.51,364,409.51,363.9,409.51Zm280.84-1.7a1.06,1.06,0,0,1-1.07-1.06V402.6a1.07,1.07,0,0,1,2.13,0v4.15A1.07,1.07,0,0,1,644.74,407.81Zm-281.16-6.7a1.06,1.06,0,0,1-1.06-1.06V395.9a1.06,1.06,0,0,1,2.12,0v4.15A1.06,1.06,0,0,1,363.58,401.11Zm281.16-1.7a1.06,1.06,0,0,1-1.07-1.06V394.2a1.07,1.07,0,0,1,2.13,0v4.15A1.07,1.07,0,0,1,644.74,399.41Zm-281.16-6.7a1.06,1.06,0,0,1-1.06-1.06V387.5a1.06,1.06,0,0,1,2.12,0v4.15A1.06,1.06,0,0,1,363.58,392.71ZM644.74,391a1.06,1.06,0,0,1-1.07-1.06V385.8a1.07,1.07,0,0,1,2.13,0V390A1,1,0,0,1,644.74,391Zm-281.16-6.7a1.06,1.06,0,0,1-1.06-1.06V379.1a1.06,1.06,0,0,1,2.12,0v4.15A1.06,1.06,0,0,1,363.58,384.31Zm281.16-1.7a1.06,1.06,0,0,1-1.07-1.06,25.92,25.92,0,0,0-.32-4,1.07,1.07,0,0,1,2.13-.22,30.56,30.56,0,0,1,.32,4.36,1,1,0,0,1-1.06,1Zm-281.16-6.7a1.06,1.06,0,0,1-1.06-1.06V370.7a1.06,1.06,0,0,1,2.12,0v4.15A1.06,1.06,0,0,1,363.58,375.91Zm280.09-1.59a1.13,1.13,0,0,1-1.06-.85,28,28,0,0,0-1.17-3.94,1,1,0,0,1,.64-1.27.94.94,0,0,1,1.27.63c.43,1.39.85,2.77,1.17,4.15a1.08,1.08,0,0,1-.85,1.28Zm-280.09-6.81a1.06,1.06,0,0,1-1.06-1.06V362.3a1.06,1.06,0,0,1,2.12,0v4.15A1.06,1.06,0,0,1,363.58,367.51ZM641,366.34a1,1,0,0,1-1-.64c-.53-1.27-1.17-2.44-1.81-3.72a.93.93,0,0,1,.42-1.38.94.94,0,0,1,1.39.42c.64,1.28,1.27,2.56,1.91,3.83a1.07,1.07,0,0,1-.53,1.39C641.33,366.34,641.23,366.34,641,366.34Zm-277.43-7.12a1.07,1.07,0,0,1-1.06-1.07V354a1.06,1.06,0,1,1,2.12,0v4.14A1.14,1.14,0,0,1,363.58,359.22ZM637,359a1.33,1.33,0,0,1-.85-.42,38,38,0,0,0-2.44-3.3,1.05,1.05,0,1,1,1.59-1.38,24.92,24.92,0,0,1,2.55,3.4,1,1,0,0,1-.32,1.49C637.4,359,637.19,359,637,359Zm-5.42-6.38a1.14,1.14,0,0,1-.74-.31,21.79,21.79,0,0,0-3.19-2.45,1.08,1.08,0,0,1,1.17-1.81,27.4,27.4,0,0,1,3.4,2.66,1.14,1.14,0,0,1,.1,1.49A.79.79,0,0,1,631.55,352.62Zm-268-1.8a1.07,1.07,0,0,1-1.06-1.07v-4.14a1.06,1.06,0,1,1,2.12,0v4.14A1.15,1.15,0,0,1,363.58,350.82ZM624.64,348a.93.93,0,0,1-.53-.11l-3.62-2.13a1.06,1.06,0,0,1-.42-1.38,1.08,1.08,0,0,1,1.38-.43l3.61,2.13a1.07,1.07,0,0,1,.43,1.38A1,1,0,0,1,624.64,348Zm-7.23-4.15a.91.91,0,0,1-.53-.11l-3.62-2.12a1.09,1.09,0,0,1-.43-1.39,1.08,1.08,0,0,1,1.39-.42l3.61,2.12a1.09,1.09,0,0,1,.43,1.39A1.07,1.07,0,0,1,617.41,343.8Zm-253.83-1.38a1.07,1.07,0,0,1-1.06-1.07v-4.14a1.06,1.06,0,1,1,2.12,0v4.14A1.15,1.15,0,0,1,363.58,342.42Zm246.49-2.88a1,1,0,0,1-.53-.1l-3.62-2.13a1.07,1.07,0,0,1-.42-1.38,1.08,1.08,0,0,1,1.38-.43l3.62,2.13a1.08,1.08,0,0,1,.42,1.38A.84.84,0,0,1,610.07,339.54Zm-7.23-4.14a.93.93,0,0,1-.53-.11l-3.62-2.13a1,1,0,1,1,1-1.8l3.61,2.12a1.08,1.08,0,0,1,.43,1.39A.85.85,0,0,1,602.84,335.4ZM363.58,334a1.07,1.07,0,0,1-1.06-1.07V328.8a1.06,1.06,0,0,1,2.12,0V333A1.15,1.15,0,0,1,363.58,334Zm232-2.88a1,1,0,0,1-.53-.1l-3.62-2.13a1,1,0,0,1,1-1.81l3.61,2.13a1.07,1.07,0,0,1,.43,1.38A1,1,0,0,1,595.61,331.14Zm-7.23-4.25a.91.91,0,0,1-.53-.11l-3.62-2.12a1,1,0,1,1,1-1.81L588.8,325a1.08,1.08,0,0,1,.43,1.38A.88.88,0,0,1,588.38,326.89Zm-224.8-1.28a1.06,1.06,0,0,1-1.06-1.06V320.4a1.06,1.06,0,0,1,2.12,0v4.15A1.06,1.06,0,0,1,363.58,325.61ZM581,322.74a1,1,0,0,1-.53-.1l-3.62-2.13a1.07,1.07,0,0,1-.42-1.38,1.08,1.08,0,0,1,1.38-.43l3.62,2.13a1.08,1.08,0,0,1,.42,1.38A.84.84,0,0,1,581,322.74Zm-7.23-4.25a.93.93,0,0,1-.53-.11l-3.62-2.12a1,1,0,0,1,1-1.81l3.61,2.13a1.07,1.07,0,0,1,.43,1.38C574.55,318.38,574.23,318.49,573.81,318.49Zm-210.23-1.28a1.06,1.06,0,0,1-1.06-1.06V312a1.06,1.06,0,0,1,2.12,0v4.15A1.06,1.06,0,0,1,363.58,317.21Zm203-2.87a1,1,0,0,1-.53-.1l-3.62-2.13a1,1,0,0,1,1-1.81l3.61,2.13a1.07,1.07,0,0,1,.43,1.38A1,1,0,0,1,566.58,314.34Zm-7.23-4.25a.91.91,0,0,1-.53-.11l-3.62-2.12a1,1,0,1,1,1-1.81l3.61,2.13a1,1,0,0,1-.42,1.91Zm-195.77-1.28a1.06,1.06,0,0,1-1.06-1.06V303.6a1.06,1.06,0,0,1,2.12,0v4.15A1.06,1.06,0,0,1,363.58,308.81ZM552,305.94a1,1,0,0,1-.53-.1l-3.62-2.13a1,1,0,0,1,1-1.81l3.62,2.13a1.08,1.08,0,0,1,.42,1.38A.84.84,0,0,1,552,305.94Zm-7.23-4.25a.93.93,0,0,1-.53-.11l-3.62-2.12a1,1,0,0,1,1-1.81l3.61,2.12a1.08,1.08,0,0,1,.43,1.39A.85.85,0,0,1,544.78,301.69Zm-181.2-1.28a1.06,1.06,0,0,1-1.06-1.06V295.2a1.06,1.06,0,0,1,2.12,0v4.15A1.06,1.06,0,0,1,363.58,300.41Zm174-2.87a1,1,0,0,1-.53-.1l-3.62-2.13a1,1,0,0,1,1-1.81l3.61,2.13a1.07,1.07,0,0,1,.43,1.38A1,1,0,0,1,537.55,297.54Zm-7.23-4.25a.91.91,0,0,1-.53-.11l-3.62-2.12a1.09,1.09,0,0,1-.43-1.39,1.08,1.08,0,0,1,1.39-.42l3.61,2.12a1.09,1.09,0,0,1,.43,1.39A1.07,1.07,0,0,1,530.32,293.29ZM363.58,292a1.06,1.06,0,0,1-1.06-1.06V286.8a1.06,1.06,0,0,1,2.12,0V291A1.06,1.06,0,0,1,363.58,292ZM523,289a1,1,0,0,1-.53-.1l-3.62-2.13a1,1,0,0,1,1-1.81l3.62,2.13a1.08,1.08,0,0,1,.42,1.38C523.72,288.93,523.41,289,523,289Zm-7.23-4.14a.93.93,0,0,1-.53-.11l-3.62-2.13a1,1,0,1,1,1-1.8l3.61,2.12a1.08,1.08,0,0,1,.43,1.39A.85.85,0,0,1,515.75,284.89Zm-152.17-1.17a1.07,1.07,0,0,1-1.06-1.07v-4.14a1.06,1.06,0,1,1,2.12,0v4.14A1.14,1.14,0,0,1,363.58,283.72Zm144.94-3.09a1,1,0,0,1-.53-.1l-3.62-2.13a1,1,0,0,1,1-1.81l3.61,2.13a1.07,1.07,0,0,1,.43,1.38A.79.79,0,0,1,508.52,280.63Zm-7.23-4.14a.91.91,0,0,1-.53-.11l-3.62-2.13a1,1,0,1,1,1-1.8l3.61,2.12a1,1,0,0,1-.42,1.92Zm-137.71-1.17a1.07,1.07,0,0,1-1.06-1.07v-4.14a1.06,1.06,0,1,1,2.12,0v4.14A1.14,1.14,0,0,1,363.58,275.32ZM494,272.23a1,1,0,0,1-.53-.1L489.8,270a1,1,0,0,1,1-1.81l3.62,2.13a1.08,1.08,0,0,1,.42,1.38C494.69,272.13,494.38,272.23,494,272.23Zm-7.23-4.14a.93.93,0,0,1-.53-.11l-3.62-2.13a1,1,0,1,1,1-1.8l3.61,2.12a1.07,1.07,0,0,1,.43,1.38A.85.85,0,0,1,486.72,268.09Zm-123.14-1.17a1.07,1.07,0,0,1-1.06-1.07v-4.14a1.06,1.06,0,1,1,2.12,0v4.14A1.14,1.14,0,0,1,363.58,266.92Zm115.91-3.09a1,1,0,0,1-.53-.1l-3.62-2.13a1.07,1.07,0,0,1-.42-1.38,1.08,1.08,0,0,1,1.38-.43l3.61,2.13a1.07,1.07,0,0,1,.43,1.38A1,1,0,0,1,479.49,263.83Zm-7.23-4.14a.91.91,0,0,1-.53-.11l-3.62-2.13a1,1,0,1,1,1-1.8l3.61,2.12a1,1,0,0,1-.42,1.92Zm-108.68-1.17a1.07,1.07,0,0,1-1.06-1.07v-4.14a1.06,1.06,0,1,1,2.12,0v4.14A1.15,1.15,0,0,1,363.58,258.52Zm101.34-3.09a1,1,0,0,1-.53-.1l-3.62-2.13a1,1,0,0,1,1-1.81l3.62,2.13a1.08,1.08,0,0,1,.42,1.38A.84.84,0,0,1,464.92,255.43Zm-7.23-4.14a.93.93,0,0,1-.53-.11l-3.62-2.13a1.06,1.06,0,0,1-.42-1.38,1.08,1.08,0,0,1,1.38-.43l3.61,2.13a1.07,1.07,0,0,1,.43,1.38A.85.85,0,0,1,457.69,251.29Zm-94.11-1.17a1.07,1.07,0,0,1-1.06-1.07v-4.14a1.06,1.06,0,1,1,2.12,0v4.14A1.07,1.07,0,0,1,363.58,250.12ZM450.46,247a1,1,0,0,1-.53-.1l-3.62-2.13a1,1,0,0,1,1-1.81l3.61,2.13a1.07,1.07,0,0,1,.43,1.38A1,1,0,0,1,450.46,247Zm-7.23-4.25a.91.91,0,0,1-.53-.11l-3.62-2.12a1.08,1.08,0,0,1-.42-1.39,1.06,1.06,0,0,1,1.38-.42l3.61,2.12a1.09,1.09,0,0,1,.43,1.39A.88.88,0,0,1,443.23,242.78Zm-79.65-1.06a1.07,1.07,0,0,1-1.06-1.07V236.5a1.06,1.06,0,0,1,2.12,0v4.15A1.07,1.07,0,0,1,363.58,241.72Zm72.31-3.09a.93.93,0,0,1-.53-.11l-3.62-2.12a1,1,0,0,1,1-1.81l3.62,2.13a1.07,1.07,0,0,1,.42,1.38A.84.84,0,0,1,435.89,238.63Zm-7.23-4.25a.93.93,0,0,1-.53-.11l-3.62-2.13a1,1,0,1,1,1-1.8l3.61,2.12a1.08,1.08,0,0,1,.43,1.39C429.4,234.27,429.08,234.38,428.66,234.38Zm-65.08-1.07a1.06,1.06,0,0,1-1.06-1.06V228.1a1.06,1.06,0,0,1,2.12,0v4.15A1.06,1.06,0,0,1,363.58,233.31Zm57.85-3.08a.93.93,0,0,1-.53-.11L417.28,228a1,1,0,0,1,1-1.81l3.61,2.13a1.07,1.07,0,0,1,.43,1.38A1,1,0,0,1,421.43,230.23ZM414.2,226a.93.93,0,0,1-.53-.11l-3.62-2.13a1,1,0,1,1,1-1.8l3.61,2.12a1,1,0,0,1-.42,1.92Zm-50.62-1.07a1.06,1.06,0,0,1-1.06-1.06V219.7a1.06,1.06,0,0,1,2.12,0v4.15A1.06,1.06,0,0,1,363.58,224.91Zm43.28-3.08a.93.93,0,0,1-.53-.11l-3.62-2.12a1,1,0,0,1,1-1.81l3.62,2.13a1.07,1.07,0,0,1,.42,1.38A.84.84,0,0,1,406.86,221.83Zm-7.23-4.25a.93.93,0,0,1-.53-.11l-3.62-2.13a1,1,0,1,1,1-1.8l3.61,2.12a1.07,1.07,0,0,1,.43,1.38A1,1,0,0,1,399.63,217.58Zm-35.84-1h-.1a1.26,1.26,0,0,1-1-1.17,24.08,24.08,0,0,1,1-4.25,1,1,0,1,1,1.91.63,19.86,19.86,0,0,0-.85,3.94A.94.94,0,0,1,363.79,216.62Zm28.61-3.19a.93.93,0,0,1-.53-.11l-3.62-2.12a1,1,0,0,1,1-1.81l3.61,2.13a1.07,1.07,0,0,1,.43,1.38A1,1,0,0,1,392.4,213.43Zm-7.23-4.25a.93.93,0,0,1-.53-.11L381,206.94a1,1,0,1,1,1-1.8l3.61,2.12a1,1,0,0,1-.42,1.92Zm-18.61-.43a1.61,1.61,0,0,1-.64-.21,1.13,1.13,0,0,1-.21-1.49,11.52,11.52,0,0,1,3.4-3.08,1,1,0,0,1,1,1.8,10.28,10.28,0,0,0-2.77,2.56A.88.88,0,0,1,366.56,208.75Zm11.16-3.4h-.31a12.51,12.51,0,0,0-3.3-.53h-.43a1,1,0,0,1-1.06-1,1.05,1.05,0,0,1,1-1.06h.64a13.35,13.35,0,0,1,3.93.63,1,1,0,0,1,.64,1.28A1.43,1.43,0,0,1,377.72,205.35Z"/></g><g class="cls-10"><path class="cls-11" d="M281.91,386.23h-.42a1,1,0,0,1-1-1.07,1,1,0,0,1,1.07-1H282a7.87,7.87,0,0,0,3.19-.64,1,1,0,1,1,.85,1.91A10.67,10.67,0,0,1,281.91,386.23Zm-4.46-.85a.8.8,0,0,1-.43-.11,13.83,13.83,0,0,1-2.55-1.28l-3.61-2.12a1,1,0,1,1,.95-1.81l3.62,2.13a9.34,9.34,0,0,0,2.34,1.06,1.11,1.11,0,0,1,.64,1.38A1.15,1.15,0,0,1,277.45,385.38ZM288.93,383a1.08,1.08,0,0,1-.63-.22,1,1,0,0,1-.11-1.48,14.43,14.43,0,0,0,1.91-3.3,1.06,1.06,0,0,1,1.39-.53,1,1,0,0,1,.53,1.38,16.29,16.29,0,0,1-2.34,3.93C289.46,382.82,289.15,383,288.93,383ZM267.77,380a1,1,0,0,1-.53-.1l-3.62-2.13a1,1,0,0,1,1-1.81L268.2,378a1,1,0,0,1-.43,1.91Zm-7.34-4.25a.94.94,0,0,1-.53-.11l-3.61-2.12a1.09,1.09,0,0,1-.43-1.39,1.08,1.08,0,0,1,1.38-.42l3.62,2.13a1.08,1.08,0,0,1,.43,1.38C261.18,375.59,260.86,375.7,260.43,375.7Zm31.69-.32h-.21a1.05,1.05,0,0,1-.85-1.17,24.24,24.24,0,0,0,.32-4,1.06,1.06,0,0,1,1.06-1.06h0a1.07,1.07,0,0,1,1.07,1.06,29.33,29.33,0,0,1-.32,4.36A1.16,1.16,0,0,1,292.12,375.38Zm-38.92-3.83a1,1,0,0,1-.53-.1l-3.61-2.13a1,1,0,1,1,.95-1.81l3.62,2.13a1.07,1.07,0,0,1,.42,1.38A.93.93,0,0,1,253.2,371.55ZM246,367.3a.93.93,0,0,1-.53-.11l-3.61-2.12a1,1,0,1,1,.95-1.81l3.62,2.12a1.08,1.08,0,0,1,.42,1.39A.8.8,0,0,1,246,367.3Zm46.47-.32a1.07,1.07,0,0,1-1.06-1.06v-4.15a1.07,1.07,0,0,1,2.13,0v4.15A1,1,0,0,1,292.44,367Zm-53.7-3.83a1,1,0,0,1-.53-.1l-3.62-2.13a1,1,0,0,1,1-1.81l3.62,2.13a1,1,0,0,1-.43,1.91Zm-7.34-4.25a.94.94,0,0,1-.53-.11l-3.61-2.12a1.09,1.09,0,0,1-.43-1.39,1.07,1.07,0,0,1,1.38-.42l3.62,2.12a1.09,1.09,0,0,1,.43,1.39A.85.85,0,0,1,231.4,358.9Zm61-.32a1.07,1.07,0,0,1-1.06-1.06v-4.15a1.07,1.07,0,0,1,2.13,0v4.15A1,1,0,0,1,292.44,358.58Zm-68.27-3.83a.93.93,0,0,1-.53-.11L220,352.52a1,1,0,1,1,.95-1.81l3.62,2.13a1.06,1.06,0,0,1,.42,1.38A.93.93,0,0,1,224.17,354.75Zm-7.23-4.25a.93.93,0,0,1-.53-.11l-3.61-2.13a1,1,0,1,1,.95-1.8l3.62,2.12a1.08,1.08,0,0,1,.42,1.39A1,1,0,0,1,216.94,350.5Zm75.5-.32a1.07,1.07,0,0,1-1.06-1.06V345a1.07,1.07,0,1,1,2.13,0v4.15A1,1,0,0,1,292.44,350.18Zm-82.73-3.83a.93.93,0,0,1-.53-.11l-3.61-2.12a1,1,0,1,1,1-1.81l3.62,2.13a1,1,0,0,1-.43,1.91Zm-7.34-4.25a.94.94,0,0,1-.53-.11l-3.61-2.13a1.08,1.08,0,0,1-.43-1.38,1.07,1.07,0,0,1,1.38-.42l3.62,2.12a1.09,1.09,0,0,1,.43,1.39A.86.86,0,0,1,202.37,342.1Zm90.07-.32a1.07,1.07,0,0,1-1.06-1.07v-4.14a1.07,1.07,0,1,1,2.13,0v4.14A1,1,0,0,1,292.44,341.78Zm-97.3-3.94a1,1,0,0,1-.53-.1L191,335.61a1,1,0,1,1,.95-1.81l3.62,2.13a1.07,1.07,0,0,1,.42,1.38A.78.78,0,0,1,195.14,337.84Zm-7.23-4.14a.93.93,0,0,1-.53-.11l-3.61-2.13a1,1,0,1,1,.95-1.8l3.62,2.12a1.07,1.07,0,0,1,.42,1.38A1.09,1.09,0,0,1,187.91,333.7Zm104.53-.32a1.07,1.07,0,0,1-1.06-1.07v-4.14a1.07,1.07,0,1,1,2.13,0v4.14A1,1,0,0,1,292.44,333.38Zm-111.76-3.94a1,1,0,0,1-.53-.1l-3.61-2.13a1,1,0,1,1,1-1.81l3.62,2.13a1.07,1.07,0,0,1,.42,1.38A.86.86,0,0,1,180.68,329.44Zm-7.33-4.14a1,1,0,0,1-.54-.11l-3.61-2.13a1,1,0,1,1,1-1.81l3.62,2.13a1.08,1.08,0,0,1,.43,1.38A.85.85,0,0,1,173.35,325.3Zm119.09-.22a1.06,1.06,0,0,1-1.06-1.06v-4.25a1.06,1.06,0,0,1,1.06-1.07,1.08,1.08,0,0,1,1.07,1.07v4.14A1.1,1.1,0,0,1,292.44,325.08Zm-126.33-4a1,1,0,0,1-.53-.1L162,318.81a1,1,0,1,1,.95-1.81l3.62,2.13a1.07,1.07,0,0,1,.42,1.38A.78.78,0,0,1,166.11,321Zm-7.23-4.14a.93.93,0,0,1-.53-.11l-3.61-2.13a1,1,0,1,1,.95-1.81l3.62,2.13a1.07,1.07,0,0,1,.42,1.38A1.09,1.09,0,0,1,158.88,316.9Zm133.56-.22a1.06,1.06,0,0,1-1.06-1.06v-4.15a1.07,1.07,0,0,1,2.13,0v4.15A1.07,1.07,0,0,1,292.44,316.68Zm-140.79-4a1,1,0,0,1-.53-.1l-3.61-2.13a1,1,0,0,1,1-1.81l3.62,2.13a1,1,0,0,1-.43,1.91Zm-7.33-4.15a1,1,0,0,1-.54-.1l-3.61-2.13a1,1,0,1,1,1-1.81l3.62,2.13a1.08,1.08,0,0,1,.43,1.38A.85.85,0,0,1,144.32,308.49Zm148.12-.21a1.06,1.06,0,0,1-1.06-1.06v-4.15a1.07,1.07,0,0,1,2.13,0v4.15A1.07,1.07,0,0,1,292.44,308.28Zm-155.36-4a.94.94,0,0,1-.53-.11L132.94,302a1,1,0,1,1,.95-1.81l3.62,2.13a1.06,1.06,0,0,1,.42,1.38A.93.93,0,0,1,137.08,304.24Zm-7.23-4.15a1,1,0,0,1-.53-.1l-3.61-2.13a1,1,0,1,1,1-1.81l3.62,2.13a1,1,0,0,1-.43,1.91Zm162.59-.21a1.06,1.06,0,0,1-1.06-1.06v-4.15a1.07,1.07,0,0,1,2.13,0v4.15A1,1,0,0,1,292.44,299.88Zm-169.82-4a.93.93,0,0,1-.53-.11l-3.61-2.12a1,1,0,1,1,1-1.81l3.62,2.13a1,1,0,0,1-.43,1.91Zm-7.33-4.25a1,1,0,0,1-.54-.11l-3.61-2.13a1,1,0,1,1,1-1.8l3.61,2.12a1.09,1.09,0,0,1,.43,1.39C116,291.48,115.71,291.59,115.29,291.59Zm177.15-.11a1.06,1.06,0,0,1-1.06-1.06v-4.15a1.07,1.07,0,0,1,2.13,0v4.15A1,1,0,0,1,292.44,291.48Zm-184.39-4a.94.94,0,0,1-.53-.11l-3.61-2.12a1.09,1.09,0,0,1-.43-1.39,1.08,1.08,0,0,1,1.38-.42l3.62,2.13a1.06,1.06,0,0,1,.42,1.38A.93.93,0,0,1,108.05,287.44Zm-7.23-4.25a.93.93,0,0,1-.53-.11L96.68,281a1,1,0,1,1,.95-1.8l3.62,2.12a1.07,1.07,0,0,1,.42,1.38A.87.87,0,0,1,100.82,283.19Zm191.62-.11a1.07,1.07,0,0,1-1.06-1.06v-4.15a1.07,1.07,0,0,1,2.13,0V282A1,1,0,0,1,292.44,283.08ZM93.59,279a.93.93,0,0,1-.53-.11l-3.61-2.12a1,1,0,1,1,1-1.81L94,277.13a1.06,1.06,0,0,1,.42,1.38A1.07,1.07,0,0,1,93.59,279Zm-7.33-4.25a1,1,0,0,1-.54-.11l-3.61-2.13a1.08,1.08,0,0,1-.43-1.38,1.09,1.09,0,0,1,1.39-.43l3.61,2.13a1.08,1.08,0,0,1,.43,1.38A.85.85,0,0,1,86.26,274.79Zm206.18-.11a1.07,1.07,0,0,1-1.06-1.06v-4.15a1.07,1.07,0,0,1,2.13,0v4.15A1,1,0,0,1,292.44,274.68ZM79,270.64a.94.94,0,0,1-.53-.11l-3.61-2.12a1.09,1.09,0,0,1-.43-1.39,1.08,1.08,0,0,1,1.38-.42l3.62,2.12a1.08,1.08,0,0,1,.42,1.39A.93.93,0,0,1,79,270.64Zm-7.23-4.25a.93.93,0,0,1-.53-.11l-3.61-2.13a1.07,1.07,0,0,1-.43-1.38,1.08,1.08,0,0,1,1.38-.43l3.62,2.13a1.07,1.07,0,0,1,.42,1.38A1.09,1.09,0,0,1,71.79,266.39Zm220.65-.11a1.07,1.07,0,0,1-1.06-1.06v-4.15a1.07,1.07,0,1,1,2.13,0v4.15A1,1,0,0,1,292.44,266.28Zm-228-4a1,1,0,0,1-.54-.11L60.31,260a1,1,0,1,1,1-1.8l3.61,2.12a1.09,1.09,0,0,1,.43,1.39A.85.85,0,0,1,64.46,262.24ZM57.23,258a1,1,0,0,1-.54-.1l-3.61-2.13a1,1,0,1,1,1-1.81l3.61,2.13a1.08,1.08,0,0,1,.43,1.38A.85.85,0,0,1,57.23,258Zm235.21,0a1.06,1.06,0,0,1-1.06-1.06v-4.15a1.06,1.06,0,0,1,1.06-1.06,1.07,1.07,0,0,1,1.07,1.06v4.15A1.07,1.07,0,0,1,292.44,258ZM50,253.73a.94.94,0,0,1-.53-.11l-3.61-2.12a1,1,0,1,1,.95-1.81l3.62,2.13a1.08,1.08,0,0,1,.43,1.38A.81.81,0,0,1,50,253.73Zm-7.23-4.15a1,1,0,0,1-.53-.1l-3.61-2.13a1,1,0,1,1,1-1.81l3.62,2.13a1,1,0,0,1-.43,1.91Zm249.68,0a1.06,1.06,0,0,1-1.06-1.06v-4.25a1.07,1.07,0,1,1,2.13,0v4.14A1.1,1.1,0,0,1,292.44,249.58Zm-257-4.25a1,1,0,0,1-.54-.11l-3.61-2.12a1,1,0,1,1,1-1.81l3.61,2.13a1.08,1.08,0,0,1,.43,1.38C36.17,245.22,35.85,245.33,35.43,245.33Zm257-4.15a1.06,1.06,0,0,1-1.06-1.06V236a1.07,1.07,0,0,1,2.13,0v4.15A1.07,1.07,0,0,1,292.44,241.18Zm-264.24,0a.86.86,0,0,1-.54-.1,26.19,26.19,0,0,1-3.51-2.66,1.06,1.06,0,0,1,1.39-1.6,31.25,31.25,0,0,0,3.19,2.45,1,1,0,0,1,.32,1.49A1,1,0,0,1,28.2,241.18Zm-6.28-5.53a.93.93,0,0,1-.74-.32,40.26,40.26,0,0,1-2.66-3.4,1.06,1.06,0,1,1,1.7-1.27,26.6,26.6,0,0,0,2.55,3.19,1,1,0,0,1-.1,1.48A1.15,1.15,0,0,1,21.92,235.65Zm270.52-2.87a1.06,1.06,0,0,1-1.06-1.06v-4.15a1.07,1.07,0,0,1,2.13,0v4.15A1.07,1.07,0,0,1,292.44,232.78Zm-275.3-3.93a1.26,1.26,0,0,1-1-.53,31.76,31.76,0,0,1-1.91-3.83,1,1,0,0,1,1.91-.85A38,38,0,0,0,18,227.25a1,1,0,0,1-.43,1.39A.83.83,0,0,1,17.14,228.85Zm275.2-4.47a1.13,1.13,0,0,1-1.07-.95,27.3,27.3,0,0,0-.53-4.05,1,1,0,1,1,2-.31c.21,1.48.43,2.87.53,4.25.22.53-.32,1.06-1,1.06ZM13.63,221.19a1,1,0,0,1-1-.74l-1.28-4.15a1.11,1.11,0,0,1,.75-1.28,1.09,1.09,0,0,1,1.27.75c.32,1.27.75,2.66,1.17,3.93a1.11,1.11,0,0,1-.63,1.39A.42.42,0,0,1,13.63,221.19ZM291,216.09a1,1,0,0,1-.95-.75,34.38,34.38,0,0,0-1.28-3.93,1.11,1.11,0,0,1,.64-1.38,1.09,1.09,0,0,1,1.38.63c.53,1.39,1,2.77,1.38,4.05a1.08,1.08,0,0,1-.74,1.27A.78.78,0,0,1,291,216.09ZM11.61,213a1.15,1.15,0,0,1-1.07-.85,30.13,30.13,0,0,1-.32-4.25,1.07,1.07,0,0,1,2.13,0,27.2,27.2,0,0,0,.32,4,1.05,1.05,0,0,1-.85,1.17C11.71,213,11.71,213,11.61,213ZM288,208.33a1,1,0,0,1-1-.64c-.64-1.28-1.28-2.45-1.92-3.62a1.16,1.16,0,0,1,.32-1.49,1.15,1.15,0,0,1,1.49.32,39,39,0,0,1,2,3.72,1.06,1.06,0,0,1-.53,1.39A.57.57,0,0,1,288,208.33ZM11.29,204.71a1.07,1.07,0,0,1-1.07-1.06V199.5a1.07,1.07,0,0,1,2.13,0v4.15A1.14,1.14,0,0,1,11.29,204.71Zm272.33-3.62a1,1,0,0,1-.85-.42,26.08,26.08,0,0,0-2.66-3.08,1.05,1.05,0,0,1,1.49-1.49,28.23,28.23,0,0,1,2.76,3.29,1.15,1.15,0,0,1-.21,1.49C284,201.09,283.83,201.09,283.62,201.09ZM11.29,196.31a1.07,1.07,0,0,1-1.07-1.06V191.1a1.07,1.07,0,0,1,2.13,0v4.15A1.14,1.14,0,0,1,11.29,196.31Zm266.48-1.17a1.56,1.56,0,0,1-.64-.21,19,19,0,0,0-2.66-1.81l-.64-.43a1,1,0,0,1,1-1.8l.64.42a24.87,24.87,0,0,1,3,2,1.15,1.15,0,0,1,.21,1.49A2,2,0,0,1,277.77,195.14Zm-7-4.47a1,1,0,0,1-.53-.1l-3.62-2.13a1.07,1.07,0,0,1-.42-1.38,1.08,1.08,0,0,1,1.38-.43l3.61,2.13a1,1,0,0,1-.42,1.91ZM11.29,187.91a1.07,1.07,0,0,1-1.07-1.06V182.7a1.07,1.07,0,1,1,2.13,0v4.15A1.07,1.07,0,0,1,11.29,187.91Zm252.12-1.49a.93.93,0,0,1-.53-.11l-3.61-2.12a1,1,0,1,1,1-1.81l3.62,2.13a1.06,1.06,0,0,1,.42,1.38C264.16,186.31,263.84,186.42,263.41,186.42Zm-7.23-4.15a1,1,0,0,1-.53-.1L252,180a1,1,0,0,1,1-1.81l3.62,2.13a1.08,1.08,0,0,1,.42,1.38A.93.93,0,0,1,256.18,182.27ZM11.29,179.51a1.08,1.08,0,0,1-1.07-1.07V174.3a1.07,1.07,0,1,1,2.13,0v4.14A1.07,1.07,0,0,1,11.29,179.51ZM249,178a.93.93,0,0,1-.53-.11l-3.62-2.12a1,1,0,0,1,1-1.81l3.62,2.13a1.07,1.07,0,0,1,.42,1.38A.88.88,0,0,1,249,178Zm-7.23-4.15a1,1,0,0,1-.53-.1l-3.62-2.13a1.07,1.07,0,0,1-.42-1.38,1.08,1.08,0,0,1,1.38-.43l3.61,2.13a1,1,0,0,1-.42,1.91ZM11.29,171.11A1.08,1.08,0,0,1,10.22,170V165.9a1.07,1.07,0,1,1,2.13,0V170A1.07,1.07,0,0,1,11.29,171.11Zm223.09-1.49a.93.93,0,0,1-.53-.11l-3.61-2.12a1,1,0,1,1,.95-1.81l3.62,2.12a1.08,1.08,0,0,1,.42,1.39A.83.83,0,0,1,234.38,169.62Zm-7.23-4.15a1,1,0,0,1-.53-.1L223,163.24a1,1,0,0,1,1-1.81l3.62,2.13a1.07,1.07,0,0,1,.42,1.38A.93.93,0,0,1,227.15,165.47ZM11.29,162.71a1.08,1.08,0,0,1-1.07-1.07V157.5a1.07,1.07,0,1,1,2.13,0v4.14A1.07,1.07,0,0,1,11.29,162.71Zm208.63-1.49a.93.93,0,0,1-.53-.11L215.77,159a1,1,0,0,1,1-1.8l3.62,2.12a1.09,1.09,0,0,1,.42,1.39A1.07,1.07,0,0,1,219.92,161.22Zm-7.34-4.15a.93.93,0,0,1-.53-.11l-3.61-2.12a1,1,0,1,1,.95-1.81l3.62,2.13a1.06,1.06,0,0,1,.42,1.38A.83.83,0,0,1,212.58,157.07ZM11.29,154.31a1.08,1.08,0,0,1-1.07-1.07V149.1a1.07,1.07,0,1,1,2.13,0v4.14A1.07,1.07,0,0,1,11.29,154.31Zm194.06-1.49a.93.93,0,0,1-.53-.11l-3.61-2.13a1,1,0,1,1,.95-1.8l3.62,2.12a1.08,1.08,0,0,1,.42,1.39A.84.84,0,0,1,205.35,152.82Zm-7.23-4.26a1,1,0,0,1-.53-.1L194,146.33a1,1,0,0,1,1-1.81l3.62,2.13A1.08,1.08,0,0,1,199,148,.78.78,0,0,1,198.12,148.56ZM11.29,145.91a1.08,1.08,0,0,1-1.07-1.07V140.7a1.07,1.07,0,1,1,2.13,0v4.14A1.07,1.07,0,0,1,11.29,145.91Zm179.6-1.49a.93.93,0,0,1-.53-.11l-3.62-2.13a1,1,0,1,1,1-1.8l3.62,2.12a1.09,1.09,0,0,1,.42,1.39A1.1,1.1,0,0,1,190.89,144.42Zm-7.34-4.26a1,1,0,0,1-.53-.1l-3.61-2.13a1,1,0,1,1,1-1.81l3.62,2.13a1.07,1.07,0,0,1,.42,1.38C184.3,140.06,184,140.16,183.55,140.16ZM11.29,137.61a1.07,1.07,0,0,1-1.07-1.06V132.4a1.07,1.07,0,0,1,2.13,0v4.15A1.14,1.14,0,0,1,11.29,137.61Zm165-1.59a.93.93,0,0,1-.53-.11l-3.61-2.13a1,1,0,1,1,.95-1.8l3.62,2.12a1.07,1.07,0,0,1,.42,1.38A.84.84,0,0,1,176.32,136Zm-7.23-4.26a1,1,0,0,1-.53-.1l-3.62-2.13a1,1,0,0,1,1-1.81l3.62,2.13a1.08,1.08,0,0,1,.42,1.38A.93.93,0,0,1,169.09,131.76Zm-157.8-2.55a1.07,1.07,0,0,1-1.07-1.06V124a1.07,1.07,0,0,1,2.13,0v4.15A1.14,1.14,0,0,1,11.29,129.21Zm150.57-1.59a.93.93,0,0,1-.53-.11l-3.62-2.13a1,1,0,0,1,1-1.81l3.62,2.13a1,1,0,0,1-.43,1.92Zm-7.34-4.26a1,1,0,0,1-.53-.1l-3.61-2.13a1,1,0,1,1,1-1.81l3.62,2.13a1.07,1.07,0,0,1,.42,1.38A.83.83,0,0,1,154.52,123.36ZM11.29,120.81a1.07,1.07,0,0,1-1.07-1.06V115.6a1.07,1.07,0,0,1,2.13,0v4.15A1.14,1.14,0,0,1,11.29,120.81Zm136-1.59a.93.93,0,0,1-.53-.11L143.15,117a1,1,0,1,1,.95-1.81l3.62,2.13a1.07,1.07,0,0,1,.42,1.38A.84.84,0,0,1,147.29,119.22ZM140.06,115a1,1,0,0,1-.53-.1l-3.62-2.13a1,1,0,0,1,1-1.81l3.62,2.13a1.07,1.07,0,0,1,.42,1.38A.93.93,0,0,1,140.06,115ZM11.29,112.41a1.07,1.07,0,0,1-1.07-1.06V107.2a1.07,1.07,0,0,1,2.13,0v4.15A1.07,1.07,0,0,1,11.29,112.41Zm121.54-1.7a.93.93,0,0,1-.53-.11l-3.62-2.12a1.09,1.09,0,0,1-.42-1.39,1.07,1.07,0,0,1,1.38-.42l3.62,2.12a1.09,1.09,0,0,1,.42,1.39A.88.88,0,0,1,132.83,110.71Zm-7.34-4.15a.93.93,0,0,1-.53-.11l-3.61-2.12a1,1,0,0,1,1-1.81l3.62,2.13a1.06,1.06,0,0,1,.42,1.38A.83.83,0,0,1,125.49,106.56ZM11.29,104A1.07,1.07,0,0,1,10.22,103V98.8a1.07,1.07,0,0,1,2.13,0V103A1.07,1.07,0,0,1,11.29,104Zm107-1.7a.93.93,0,0,1-.53-.11l-3.61-2.13a1,1,0,1,1,.95-1.8l3.62,2.12a1.08,1.08,0,0,1,.42,1.39C119,102.2,118.69,102.31,118.26,102.31ZM111,98.16a.93.93,0,0,1-.53-.11l-3.62-2.12a1,1,0,0,1,1-1.81l3.62,2.13a1.06,1.06,0,0,1,.42,1.38A.93.93,0,0,1,111,98.16ZM11.29,95.61a1.08,1.08,0,0,1-1.07-1.07V90.4a1.07,1.07,0,1,1,2.13,0v4.14A1.07,1.07,0,0,1,11.29,95.61Zm92.51-1.7a.93.93,0,0,1-.53-.11l-3.62-2.13a1,1,0,0,1,1-1.8L104.23,92a1.09,1.09,0,0,1,.42,1.39A1.1,1.1,0,0,1,103.8,93.91Zm-7.34-4.15a.93.93,0,0,1-.53-.11l-3.61-2.12a1,1,0,1,1,1-1.81l3.62,2.13a1.06,1.06,0,0,1,.42,1.38A.83.83,0,0,1,96.46,89.76ZM11.29,87.21a1.08,1.08,0,0,1-1.07-1.07V82a1.07,1.07,0,1,1,2.13,0v4.14A1.07,1.07,0,0,1,11.29,87.21Zm77.94-1.7a.93.93,0,0,1-.53-.11l-3.61-2.13a1,1,0,1,1,1-1.8l3.62,2.12A1.07,1.07,0,0,1,90.08,85,.84.84,0,0,1,89.23,85.51ZM82,81.36a.93.93,0,0,1-.53-.11l-3.62-2.12a1,1,0,0,1,1-1.81l3.62,2.13a1.06,1.06,0,0,1,.42,1.38A.93.93,0,0,1,82,81.36ZM11.29,78.81a1.08,1.08,0,0,1-1.07-1.07V73.6a1.07,1.07,0,1,1,2.13,0v4.14A1.07,1.07,0,0,1,11.29,78.81Zm63.48-1.7a.93.93,0,0,1-.53-.11l-3.62-2.13a1,1,0,0,1,1-1.81l3.62,2.13a1,1,0,0,1-.43,1.92Zm-7.34-4.26a1,1,0,0,1-.53-.1l-3.61-2.13a1,1,0,0,1,.95-1.81l3.62,2.13a1.07,1.07,0,0,1,.42,1.38C68.18,72.75,67.86,72.85,67.43,72.85ZM11.29,70.51a1.07,1.07,0,0,1-1.07-1.06V65.3a1.07,1.07,0,0,1,2.13,0v4.15A1.14,1.14,0,0,1,11.29,70.51Zm48.91-1.8a.93.93,0,0,1-.53-.11l-3.61-2.13A1,1,0,0,1,57,64.66l3.62,2.13a1.07,1.07,0,0,1,.42,1.38A.84.84,0,0,1,60.2,68.71ZM53,64.45a1,1,0,0,1-.53-.1l-3.62-2.13a1,1,0,0,1,1-1.81l3.62,2.13a1.06,1.06,0,0,1,.42,1.38A.78.78,0,0,1,53,64.45ZM11.29,62.11h0a1.07,1.07,0,0,1-1.07-1.06c.11-1.49.32-3,.54-4.36A1,1,0,0,1,12,55.94a1,1,0,0,1,.75,1.28,23.68,23.68,0,0,0-.54,3.94C12.35,61.69,11.82,62.11,11.29,62.11ZM45.74,60.3a1,1,0,0,1-.53-.1l-3.62-2.13a1,1,0,0,1,1-1.81l3.62,2.13a1,1,0,0,1-.43,1.91ZM38.4,56.05a.93.93,0,0,1-.53-.11l-3.61-2.12a1,1,0,0,1,1-1.81l3.62,2.13a1.06,1.06,0,0,1,.42,1.38A.83.83,0,0,1,38.4,56.05ZM13.31,54c-.21,0-.32,0-.43-.11a.93.93,0,0,1-.42-1.38,11.91,11.91,0,0,1,2.76-3.61,1.05,1.05,0,1,1,1.38,1.59,8.59,8.59,0,0,0-2.23,3.09A2.25,2.25,0,0,1,13.31,54ZM31.17,51.9a1,1,0,0,1-.53-.1L28.2,50.42c-.43-.22-.75-.43-1.17-.64a1,1,0,1,1,.85-1.92l1.27.64,2.45,1.38A1.08,1.08,0,0,1,32,51.27.8.8,0,0,1,31.17,51.9Zm-11.8-3.29a1.26,1.26,0,0,1-1.06-.75,1.08,1.08,0,0,1,.74-1.27,10.37,10.37,0,0,1,2.66-.32,11.28,11.28,0,0,1,1.91.21,1.05,1.05,0,0,1,.85,1.17,1,1,0,0,1-1.17.85,4.22,4.22,0,0,0-1.59-.11,6.94,6.94,0,0,0-2.13.32C19.58,48.61,19.48,48.61,19.37,48.61Z"/></g><g class="cls-10"><path class="cls-11" d="M588.16,460h0a13.09,13.09,0,0,1-4.46-.85,1.08,1.08,0,1,1,.74-2,12.12,12.12,0,0,0,3.72.75,1.06,1.06,0,0,1,1.07,1.06A1.24,1.24,0,0,1,588.16,460Zm4.05-.95a1.13,1.13,0,0,1-1-.53,1,1,0,0,1,.42-1.39,9.76,9.76,0,0,0,2.87-2.34,1.07,1.07,0,0,1,1.71,1.28,11.8,11.8,0,0,1-3.51,3Zm-11.06-1.17a1,1,0,0,1-.54-.11L577,455.66a1,1,0,1,1,1-1.8l3.61,2.12a1.09,1.09,0,0,1,.43,1.39A.86.86,0,0,1,581.15,457.9Zm-7.23-4.15a1,1,0,0,1-.54-.11l-3.61-2.12a1,1,0,1,1,1-1.81l3.61,2.13a1.08,1.08,0,0,1,.43,1.38A1,1,0,0,1,573.92,453.75Zm23.39-1.06a.38.38,0,0,1-.32-.11,1.11,1.11,0,0,1-.64-1.38,19.68,19.68,0,0,0,1-3.83,1,1,0,0,1,2,.32,17.64,17.64,0,0,1-1.06,4.25A.92.92,0,0,1,597.31,452.69Zm-30.63-3.19a.94.94,0,0,1-.53-.11l-3.61-2.13a1.08,1.08,0,0,1-.43-1.38,1.07,1.07,0,0,1,1.38-.42l3.62,2.12a1.09,1.09,0,0,1,.43,1.39A1.13,1.13,0,0,1,566.68,449.5Zm-7.33-4.26a1,1,0,0,1-.53-.1L555.2,443a1,1,0,1,1,1-1.81l3.61,2.13a1.08,1.08,0,0,1,.43,1.38C560.09,445.14,559.77,445.24,559.35,445.24Zm39.24-.74a1.07,1.07,0,0,1-1.07-1.06v-4.15a1.07,1.07,0,0,1,2.13,0v4.15A1.07,1.07,0,0,1,598.59,444.5Zm-46.47-3.4a1,1,0,0,1-.54-.11L548,438.86a1,1,0,1,1,1-1.8l3.61,2.12a1.08,1.08,0,0,1,.43,1.38A.85.85,0,0,1,552.12,441.1Zm-7.23-4.26a1,1,0,0,1-.54-.1l-3.61-2.13a1,1,0,1,1,1-1.81l3.61,2.13a1.08,1.08,0,0,1,.43,1.38A.8.8,0,0,1,544.89,436.84Zm53.7-.74a1.07,1.07,0,0,1-1.07-1.06v-4.15a1.07,1.07,0,1,1,2.13,0V435A1,1,0,0,1,598.59,436.1Zm-60.94-3.4a.94.94,0,0,1-.53-.11l-3.61-2.13a1.08,1.08,0,0,1-.43-1.38,1.07,1.07,0,0,1,1.38-.42l3.62,2.12a1.08,1.08,0,0,1,.43,1.38A1.12,1.12,0,0,1,537.65,432.7Zm-7.33-4.26a1,1,0,0,1-.53-.1l-3.62-2.13a1,1,0,1,1,1-1.81l3.61,2.13a1.08,1.08,0,0,1,.43,1.38A.85.85,0,0,1,530.32,428.44Zm68.27-.74a1.07,1.07,0,0,1-1.07-1.07v-4.14a1.07,1.07,0,1,1,2.13,0v4.14A1,1,0,0,1,598.59,427.7Zm-75.5-3.4a1,1,0,0,1-.54-.11l-3.61-2.13a1.08,1.08,0,0,1-.43-1.38,1.09,1.09,0,0,1,1.39-.43l3.61,2.13a1.08,1.08,0,0,1,.43,1.38A.85.85,0,0,1,523.09,424.3ZM515.86,420a1,1,0,0,1-.54-.1l-3.61-2.13a1,1,0,1,1,1-1.81l3.61,2.13a1.08,1.08,0,0,1,.43,1.38A1,1,0,0,1,515.86,420Zm82.73-.74a1.07,1.07,0,0,1-1.07-1.07v-4.14a1.07,1.07,0,1,1,2.13,0v4.14A1,1,0,0,1,598.59,419.3Zm-90-3.41a1,1,0,0,1-.53-.1l-3.61-2.13a1,1,0,0,1,.95-1.81l3.62,2.13a1.08,1.08,0,0,1,.43,1.38A1.1,1.1,0,0,1,508.62,415.89Zm-7.33-4.25a.91.91,0,0,1-.53-.11l-3.62-2.12a1,1,0,0,1,1-1.81l3.61,2.13a1.08,1.08,0,0,1,.43,1.38A.85.85,0,0,1,501.29,411.64Zm97.3-.74a1.07,1.07,0,0,1-1.07-1.07v-4.14a1.07,1.07,0,1,1,2.13,0v4.14A1,1,0,0,1,598.59,410.9Zm-104.53-3.51a1,1,0,0,1-.54-.11l-3.61-2.13a1,1,0,1,1,1-1.8l3.61,2.12a1.09,1.09,0,0,1,.43,1.39C494.8,407.28,494.48,407.39,494.06,407.39Zm-7.23-4.15a1,1,0,0,1-.54-.11L482.68,401a1,1,0,1,1,1-1.81l3.61,2.13a1.08,1.08,0,0,1,.43,1.38A1,1,0,0,1,486.83,403.24Zm111.76-.74a1.07,1.07,0,0,1-1.07-1.07v-4.14a1.07,1.07,0,1,1,2.13,0v4.14A1,1,0,0,1,598.59,402.5Zm-119-3.51a.94.94,0,0,1-.53-.11l-3.61-2.13a1.08,1.08,0,0,1-.43-1.38,1.07,1.07,0,0,1,1.38-.42l3.62,2.12a1.09,1.09,0,0,1,.43,1.39A.9.9,0,0,1,479.59,399Zm-7.33-4.15a.91.91,0,0,1-.53-.11l-3.62-2.12a1,1,0,0,1,1-1.81l3.61,2.13a1.08,1.08,0,0,1,.43,1.38A.85.85,0,0,1,472.26,394.84Zm126.33-.64a1.06,1.06,0,0,1-1.07-1.06v-4.25a1.07,1.07,0,1,1,2.13,0V393A1.09,1.09,0,0,1,598.59,394.2ZM465,390.59a.91.91,0,0,1-.53-.11l-3.62-2.13a1,1,0,1,1,1-1.8l3.61,2.12a1.08,1.08,0,0,1,.43,1.38C465.77,390.48,465.45,390.59,465,390.59Zm-7.23-4.15a1,1,0,0,1-.54-.11l-3.61-2.12a1,1,0,1,1,1-1.81l3.61,2.13a1.08,1.08,0,0,1,.43,1.38A1,1,0,0,1,457.8,386.44Zm140.79-.64a1.06,1.06,0,0,1-1.07-1.06v-4.15a1.07,1.07,0,0,1,2.13,0v4.15A1.07,1.07,0,0,1,598.59,385.8Zm-148-3.61a.94.94,0,0,1-.53-.11L446.42,380a1.08,1.08,0,0,1-.43-1.38,1.07,1.07,0,0,1,1.38-.42l3.62,2.12a1.08,1.08,0,0,1,.43,1.38A1.12,1.12,0,0,1,450.56,382.19ZM443.23,378a.91.91,0,0,1-.53-.11l-3.62-2.12a1,1,0,0,1,1-1.81l3.61,2.12a1.09,1.09,0,0,1,.43,1.39A.85.85,0,0,1,443.23,378Zm155.36-.64a1.06,1.06,0,0,1-1.07-1.06v-4.15a1.07,1.07,0,0,1,2.13,0v4.15A1.07,1.07,0,0,1,598.59,377.4ZM436,373.79a.91.91,0,0,1-.53-.11l-3.62-2.13a1.08,1.08,0,0,1-.43-1.38,1.09,1.09,0,0,1,1.39-.43l3.61,2.13a1.08,1.08,0,0,1,.43,1.38A1,1,0,0,1,436,373.79Zm-7.23-4.15a1,1,0,0,1-.54-.11l-3.61-2.12a1.09,1.09,0,0,1-.43-1.39,1.08,1.08,0,0,1,1.39-.42l3.61,2.12a1.09,1.09,0,0,1,.43,1.39A1,1,0,0,1,428.77,369.64ZM598.59,369a1.07,1.07,0,0,1-1.07-1.06v-4.15a1.07,1.07,0,0,1,2.13,0v4.15A1.07,1.07,0,0,1,598.59,369Zm-177.06-3.62a1,1,0,0,1-.53-.1l-3.61-2.13a1,1,0,1,1,.95-1.81l3.62,2.13a1.08,1.08,0,0,1,.43,1.38A1.1,1.1,0,0,1,421.53,365.38Zm-7.33-4.25a.93.93,0,0,1-.53-.11l-3.62-2.12a1,1,0,0,1,1-1.81l3.61,2.13a1.08,1.08,0,0,1,.43,1.38C414.94,361,414.62,361.13,414.2,361.13Zm184.39-.53a1.07,1.07,0,0,1-1.07-1.06v-4.15a1.07,1.07,0,0,1,2.13,0v4.15A1,1,0,0,1,598.59,360.6ZM407,357a1,1,0,0,1-.53-.1l-3.62-2.13a1,1,0,1,1,1-1.81l3.61,2.13a1.08,1.08,0,0,1,.43,1.38A1,1,0,0,1,407,357Zm-7.23-4.25a1,1,0,0,1-.54-.11l-3.61-2.12a1,1,0,1,1,1-1.81l3.61,2.13a1.08,1.08,0,0,1,.43,1.38A.81.81,0,0,1,399.74,352.73Zm198.85-.53a1.07,1.07,0,0,1-1.07-1.06V347a1.07,1.07,0,0,1,2.13,0v4.15A1,1,0,0,1,598.59,352.2Zm-206.08-3.62a1,1,0,0,1-.54-.1l-3.61-2.13a1,1,0,1,1,.95-1.81l3.62,2.13a1.08,1.08,0,0,1,.43,1.38A1.1,1.1,0,0,1,392.51,348.58Zm-7.34-4.25a.93.93,0,0,1-.53-.11L381,342.1a1,1,0,0,1,1-1.81l3.61,2.13a1.08,1.08,0,0,1,.43,1.38A.85.85,0,0,1,385.17,344.33Zm213.42-.53a1.07,1.07,0,0,1-1.07-1.07v-4.14a1.07,1.07,0,1,1,2.13,0v4.14A1,1,0,0,1,598.59,343.8Zm-220.65-3.62a1,1,0,0,1-.53-.1L373.79,338a1,1,0,1,1,1-1.81l3.61,2.13a1.08,1.08,0,0,1,.43,1.38A1,1,0,0,1,377.94,340.18Zm-7.23-4.25a1,1,0,0,1-.54-.11l-3.61-2.12a1,1,0,1,1,1-1.81l3.61,2.13a1.08,1.08,0,0,1,.43,1.38A1,1,0,0,1,370.71,335.93Zm227.88-.53a1.07,1.07,0,0,1-1.07-1.07v-4.14a1.07,1.07,0,1,1,2.13,0v4.14A1,1,0,0,1,598.59,335.4Zm-235.11-3.62a1,1,0,0,1-.54-.1l-3.61-2.13a1,1,0,1,1,1-1.81l3.61,2.13a1.08,1.08,0,0,1,.43,1.38A1.1,1.1,0,0,1,363.48,331.78Zm-7.34-4.25a.93.93,0,0,1-.53-.11L352,325.3a1,1,0,0,1,1-1.81l3.61,2.12A1.09,1.09,0,0,1,357,327,.85.85,0,0,1,356.14,327.53ZM598.59,327a1.07,1.07,0,0,1-1.07-1.07v-4.14a1.07,1.07,0,1,1,2.13,0v4.14A1,1,0,0,1,598.59,327Zm-249.68-3.72a.91.91,0,0,1-.53-.11L344.76,321a1.08,1.08,0,0,1-.43-1.38,1.09,1.09,0,0,1,1.39-.43l3.61,2.13a1.08,1.08,0,0,1,.43,1.38A.8.8,0,0,1,348.91,323.28Zm-7.23-4.15a1,1,0,0,1-.54-.11l-3.61-2.12a1.09,1.09,0,0,1-.43-1.39,1.08,1.08,0,0,1,1.39-.42l3.61,2.12a1,1,0,0,1-.42,1.92Zm256.91-.43a1.06,1.06,0,0,1-1.07-1.06v-4.25a1.07,1.07,0,1,1,2.13,0v4.14A1.09,1.09,0,0,1,598.59,318.7Zm-264.14-3.83a.86.86,0,0,1-.54-.1,26.19,26.19,0,0,1-3.51-2.66,1.14,1.14,0,0,1-.1-1.49,1.16,1.16,0,0,1,1.49-.11A29.88,29.88,0,0,0,335,313a1.06,1.06,0,0,1,.32,1.49A1,1,0,0,1,334.45,314.87Zm264.14-4.57a1.06,1.06,0,0,1-1.07-1.06v-4.15a1.07,1.07,0,0,1,2.13,0v4.15A1.07,1.07,0,0,1,598.59,310.3Zm-270.53-.85a.94.94,0,0,1-.74-.32,40.26,40.26,0,0,1-2.66-3.4,1.06,1.06,0,1,1,1.7-1.28,18.55,18.55,0,0,0,2.56,3.19,1,1,0,0,1-.11,1.49A1,1,0,0,1,328.06,309.45Zm-4.78-6.91a1.28,1.28,0,0,1-1-.53,32.52,32.52,0,0,1-1.91-3.83,1,1,0,1,1,1.91-.85,36.85,36.85,0,0,0,1.81,3.61.94.94,0,0,1-.42,1.39C323.6,302.54,323.49,302.54,323.28,302.54Zm275.31-.64a1.06,1.06,0,0,1-1.07-1.06v-4.15a1.07,1.07,0,0,1,2.13,0v4.15A1.07,1.07,0,0,1,598.59,301.9Zm-278.82-7a1,1,0,0,1-1-.74c-.53-1.38-.85-2.77-1.27-4.15a1.08,1.08,0,0,1,.74-1.27,1.1,1.1,0,0,1,1.28.74c.32,1.28.74,2.66,1.17,3.93a1.12,1.12,0,0,1-.64,1.39C320.09,294.88,320,294.88,319.77,294.88Zm278.82-1.38a1.06,1.06,0,0,1-1.07-1.06v-4.15a1.07,1.07,0,0,1,2.13,0v4.15A1.07,1.07,0,0,1,598.59,293.5Zm-280.73-6.7a1.14,1.14,0,0,1-1.07-.85,30.13,30.13,0,0,1-.32-4.25,1.08,1.08,0,0,1,1.07-1.07,1.15,1.15,0,0,1,1.06,1.07,27.31,27.31,0,0,0,.32,4,1.05,1.05,0,0,1-.85,1.17A.33.33,0,0,0,317.86,286.8Zm280.73-1.7a1.06,1.06,0,0,1-1.07-1.06v-4.15a1.07,1.07,0,0,1,2.13,0V284A1,1,0,0,1,598.59,285.1Zm-281.16-6.7a1.06,1.06,0,0,1-1.06-1.06v-4.15a1.06,1.06,0,0,1,2.12,0v4.15A1,1,0,0,1,317.43,278.4Zm281.16-1.7a1.07,1.07,0,0,1-1.07-1.06v-4.15a1.07,1.07,0,0,1,2.13,0v4.15A1,1,0,0,1,598.59,276.7ZM317.43,270a1.06,1.06,0,0,1-1.06-1.06v-4.15a1.06,1.06,0,0,1,2.12,0v4.15A1,1,0,0,1,317.43,270Zm281.16-1.7a1.07,1.07,0,0,1-1.07-1.06v-4.15a1.07,1.07,0,0,1,2.13,0v4.15A1,1,0,0,1,598.59,268.3Zm-281.16-6.7a1.07,1.07,0,0,1-1.06-1.06v-4.15a1.06,1.06,0,0,1,2.12,0v4.15A1,1,0,0,1,317.43,261.6Zm281.16-1.7a1.07,1.07,0,0,1-1.07-1.06,26.14,26.14,0,0,0-.32-4,1.07,1.07,0,1,1,2.13-.21,30.46,30.46,0,0,1,.32,4.36,1,1,0,0,1-1.06,1Zm-281.16-6.59a1.07,1.07,0,0,1-1.06-1.07V248.1a1.06,1.06,0,1,1,2.12,0v4.14A1.07,1.07,0,0,1,317.43,253.31Zm280.2-1.71a1.1,1.1,0,0,1-1.06-.85,28.28,28.28,0,0,0-1.17-3.93,1,1,0,1,1,1.91-.64c.43,1.38.85,2.77,1.17,4.15a1.06,1.06,0,0,1-.85,1.27Zm-280.2-6.69a1.07,1.07,0,0,1-1.06-1.07v-4.15a1.06,1.06,0,0,1,2.12,0v4.15A1.07,1.07,0,0,1,317.43,244.91Zm277.43-1.17a1,1,0,0,1-1-.64c-.53-1.28-1.17-2.45-1.81-3.72a1,1,0,1,1,1.81-1l1.91,3.83a1.06,1.06,0,0,1-.53,1.38C595.18,243.63,595.08,243.74,594.86,243.74ZM317.43,236.5a1.06,1.06,0,0,1-1.06-1.06v-4.15a1.06,1.06,0,0,1,2.12,0v4.15A1.06,1.06,0,0,1,317.43,236.5Zm273.39-.1A1.3,1.3,0,0,1,590,236a36.37,36.37,0,0,0-2.44-3.29,1,1,0,0,1,.1-1.49,1.14,1.14,0,0,1,1.49.1,40.87,40.87,0,0,1,2.55,3.41,1.06,1.06,0,0,1-.32,1.49A.81.81,0,0,1,590.82,236.4ZM585.4,230a1.15,1.15,0,0,1-.74-.32,21.79,21.79,0,0,0-3.19-2.45,1.07,1.07,0,1,1,1.17-1.8,28.07,28.07,0,0,1,3.4,2.65,1.15,1.15,0,0,1,.1,1.49A.7.7,0,0,1,585.4,230Zm-268-1.92a1.06,1.06,0,0,1-1.06-1.06v-4.15a1.06,1.06,0,0,1,2.12,0V227A1,1,0,0,1,317.43,228.1Zm261.06-2.76a.93.93,0,0,1-.53-.11l-3.62-2.12a1,1,0,0,1,1-1.81l3.61,2.13a1.07,1.07,0,0,1,.43,1.38A1,1,0,0,1,578.49,225.34Zm-7.23-4.25a.91.91,0,0,1-.53-.11l-3.62-2.13a1.08,1.08,0,0,1-.43-1.38,1.09,1.09,0,0,1,1.39-.43l3.61,2.13a1.08,1.08,0,0,1,.43,1.38A1,1,0,0,1,571.26,221.09ZM317.43,219.7a1.06,1.06,0,0,1-1.06-1.06v-4.15a1.06,1.06,0,0,1,2.12,0v4.15A1,1,0,0,1,317.43,219.7ZM564,216.83a1,1,0,0,1-.54-.1l-3.61-2.13a1,1,0,1,1,1-1.81l3.61,2.13a1.08,1.08,0,0,1,.43,1.38A.87.87,0,0,1,564,216.83Zm-7.34-4.14a.93.93,0,0,1-.53-.11l-3.62-2.13a1.07,1.07,0,0,1-.42-1.38,1.08,1.08,0,0,1,1.38-.43l3.61,2.13a1.07,1.07,0,0,1,.43,1.38A.85.85,0,0,1,556.69,212.69ZM317.43,211.3a1.06,1.06,0,0,1-1.06-1.06v-4.15a1.06,1.06,0,0,1,2.12,0v4.15A1,1,0,0,1,317.43,211.3Zm232-2.87a1,1,0,0,1-.53-.1l-3.62-2.13a1,1,0,0,1,1-1.81l3.61,2.13a1.07,1.07,0,0,1,.43,1.38A.79.79,0,0,1,549.46,208.43Zm-7.23-4.15a1,1,0,0,1-.53-.1l-3.62-2.13a1,1,0,1,1,1-1.81l3.61,2.13a1.08,1.08,0,0,1,.43,1.38A1,1,0,0,1,542.23,204.28Zm-224.8-1.38a1.06,1.06,0,0,1-1.06-1.06v-4.15a1.06,1.06,0,0,1,2.12,0v4.15A1,1,0,0,1,317.43,202.9ZM535,200a1,1,0,0,1-.54-.11l-3.61-2.12a1,1,0,1,1,1-1.81l3.61,2.13A1,1,0,0,1,535,200Zm-7.34-4.15a1,1,0,0,1-.53-.1l-3.62-2.13a1.07,1.07,0,0,1-.42-1.38,1.08,1.08,0,0,1,1.38-.43l3.61,2.13a1.07,1.07,0,0,1,.43,1.38A.85.85,0,0,1,527.66,195.88ZM317.43,194.5a1.06,1.06,0,0,1-1.06-1.06v-4.15a1.06,1.06,0,0,1,2.12,0v4.15A1,1,0,0,1,317.43,194.5Zm203-2.87a.93.93,0,0,1-.53-.11l-3.62-2.12a1,1,0,0,1,1-1.81l3.61,2.13a1.07,1.07,0,0,1,.43,1.38A1,1,0,0,1,520.43,191.63Zm-7.23-4.15a1,1,0,0,1-.53-.1l-3.62-2.13a1,1,0,1,1,1-1.81l3.61,2.13a1.08,1.08,0,0,1,.43,1.38A1,1,0,0,1,513.2,187.48Zm-195.77-1.27a1.07,1.07,0,0,1-1.06-1.07V181a1.06,1.06,0,1,1,2.12,0v4.14A1.06,1.06,0,0,1,317.43,186.21Zm188.54-3a1,1,0,0,1-.54-.11L501.82,181a1,1,0,1,1,1-1.81l3.61,2.13a1.08,1.08,0,0,1,.43,1.38A1.09,1.09,0,0,1,506,183.23ZM498.63,179a.93.93,0,0,1-.53-.11l-3.62-2.13a1,1,0,1,1,1-1.8l3.61,2.12a1.07,1.07,0,0,1,.43,1.38C499.37,178.87,499.05,179,498.63,179Zm-181.2-1.17a1.07,1.07,0,0,1-1.06-1.07V172.6a1.06,1.06,0,1,1,2.12,0v4.14A1.07,1.07,0,0,1,317.43,177.81Zm174-3a.93.93,0,0,1-.53-.11l-3.62-2.12a1,1,0,0,1,1-1.81l3.61,2.13a1.07,1.07,0,0,1,.43,1.38A1,1,0,0,1,491.4,174.83Zm-7.23-4.25a.91.91,0,0,1-.53-.11L480,168.34a1.08,1.08,0,0,1-.43-1.38,1.09,1.09,0,0,1,1.39-.43l3.61,2.13A1.08,1.08,0,0,1,485,170,.87.87,0,0,1,484.17,170.58Zm-166.74-1.17a1.07,1.07,0,0,1-1.06-1.07V164.2a1.06,1.06,0,1,1,2.12,0v4.14A1.07,1.07,0,0,1,317.43,169.41Zm159.51-3a1,1,0,0,1-.54-.11l-3.61-2.12a1,1,0,1,1,1-1.81l3.61,2.12a1,1,0,0,1-.42,1.92Zm-7.34-4.25a.93.93,0,0,1-.53-.11l-3.62-2.13a1.06,1.06,0,0,1-.42-1.38,1.08,1.08,0,0,1,1.38-.43l3.61,2.13a1.07,1.07,0,0,1,.43,1.38A.85.85,0,0,1,469.6,162.18ZM317.43,161a1.07,1.07,0,0,1-1.06-1.07v-4.15a1.06,1.06,0,0,1,2.12,0v4.15A1.07,1.07,0,0,1,317.43,161Zm144.94-3a.93.93,0,0,1-.53-.11l-3.62-2.13a1,1,0,1,1,1-1.8l3.61,2.12a1.08,1.08,0,0,1,.43,1.39A1,1,0,0,1,462.37,158Zm-7.23-4.26a1,1,0,0,1-.53-.1L451,151.54a1,1,0,1,1,1-1.81l3.61,2.13a1,1,0,0,1-.42,1.91ZM317.43,152.6a1.06,1.06,0,0,1-1.06-1.06v-4.15a1.06,1.06,0,0,1,2.12,0v4.15A1,1,0,0,1,317.43,152.6Zm130.48-3a1,1,0,0,1-.54-.11l-3.61-2.13a1,1,0,1,1,1-1.8l3.61,2.12a1.09,1.09,0,0,1,.43,1.39A1.11,1.11,0,0,1,447.91,149.63Zm-7.34-4.26a1,1,0,0,1-.53-.1l-3.62-2.13a1.07,1.07,0,0,1-.42-1.38,1.08,1.08,0,0,1,1.38-.43l3.61,2.13a1.07,1.07,0,0,1,.43,1.38A.85.85,0,0,1,440.57,145.37ZM317.43,144.2a1.06,1.06,0,0,1-1.06-1.06V139a1.06,1.06,0,0,1,2.12,0v4.15A1,1,0,0,1,317.43,144.2Zm115.91-3.08a.93.93,0,0,1-.53-.11l-3.62-2.12a1,1,0,0,1,1-1.81l3.61,2.13a1.07,1.07,0,0,1,.43,1.38A.8.8,0,0,1,433.34,141.12ZM426.11,137a1,1,0,0,1-.53-.1L422,134.74a1,1,0,1,1,1-1.81l3.61,2.13a1,1,0,0,1-.42,1.91ZM317.43,135.8a1.06,1.06,0,0,1-1.06-1.06v-4.15a1.06,1.06,0,0,1,2.12,0v4.15A1,1,0,0,1,317.43,135.8Zm101.45-3.08a1,1,0,0,1-.54-.11l-3.61-2.12a1,1,0,1,1,1-1.81l3.61,2.13a1.08,1.08,0,0,1,.43,1.38A.89.89,0,0,1,418.88,132.72Zm-7.34-4.15a1,1,0,0,1-.53-.1l-3.62-2.13A1.07,1.07,0,0,1,407,125a1.08,1.08,0,0,1,1.38-.43l3.61,2.13a1.07,1.07,0,0,1,.43,1.38A.85.85,0,0,1,411.54,128.57Zm-94.11-1.17a1.06,1.06,0,0,1-1.06-1.06v-4.15a1.06,1.06,0,0,1,2.12,0v4.15A1,1,0,0,1,317.43,127.4Zm86.88-3.08a.93.93,0,0,1-.53-.11l-3.62-2.12a1,1,0,0,1,1-1.81l3.61,2.13a1.07,1.07,0,0,1,.43,1.38A1,1,0,0,1,404.31,124.32Zm-7.23-4.15a1,1,0,0,1-.53-.1l-3.62-2.13a1,1,0,0,1,1-1.81l3.61,2.13a1,1,0,0,1-.42,1.91ZM317.43,119a1.06,1.06,0,0,1-1.06-1.06v-4.15a1.06,1.06,0,0,1,2.12,0v4.15A1,1,0,0,1,317.43,119Zm72.31-3.08a.93.93,0,0,1-.53-.11l-3.62-2.12a1.09,1.09,0,0,1-.42-1.39,1.07,1.07,0,0,1,1.38-.42l3.62,2.12a1.09,1.09,0,0,1,.42,1.39A.84.84,0,0,1,389.74,115.92Zm-7.23-4.15a1,1,0,0,1-.53-.1l-3.62-2.13a1,1,0,0,1,1-1.81l3.61,2.13a1.07,1.07,0,0,1,.43,1.38A.85.85,0,0,1,382.51,111.77Zm-65.08-1.06a1.07,1.07,0,0,1-1.06-1.07V105.5a1.06,1.06,0,1,1,2.12,0v4.14A1.06,1.06,0,0,1,317.43,110.71Zm57.85-3.19a.93.93,0,0,1-.53-.11l-3.62-2.13a1,1,0,0,1,1-1.8l3.61,2.12a1.08,1.08,0,0,1,.43,1.39A1,1,0,0,1,375.28,107.52Zm-7.23-4.26a1,1,0,0,1-.53-.1L363.9,101a1,1,0,0,1,1-1.81l3.61,2.13a1.08,1.08,0,0,1,.43,1.38A.86.86,0,0,1,368.05,103.26Zm-50.62-1a1.07,1.07,0,0,1-1.06-1.07V97.1a1.06,1.06,0,1,1,2.12,0v4.14A1.06,1.06,0,0,1,317.43,102.31Zm43.28-3.19a.93.93,0,0,1-.53-.11l-3.62-2.13a1,1,0,0,1,1-1.8l3.62,2.12a1.09,1.09,0,0,1,.42,1.39A.85.85,0,0,1,360.71,99.12Zm-7.23-4.26a1,1,0,0,1-.53-.1l-3.62-2.13a1.07,1.07,0,0,1-.42-1.38,1.08,1.08,0,0,1,1.38-.43L353.9,93a1.07,1.07,0,0,1,.43,1.38C354.22,94.76,353.9,94.86,353.48,94.86Zm-35.84-1h-.1a1.26,1.26,0,0,1-1-1.17,24.41,24.41,0,0,1,1-4.26,1,1,0,0,1,1.91.64,19.86,19.86,0,0,0-.85,3.94A.94.94,0,0,1,317.64,93.91Zm28.61-3.19a.93.93,0,0,1-.53-.11l-3.62-2.13a1,1,0,1,1,1-1.8l3.61,2.12a1.08,1.08,0,0,1,.43,1.39A1,1,0,0,1,346.25,90.72ZM339,86.46a1,1,0,0,1-.53-.1l-3.62-2.13a1,1,0,0,1,1-1.81l3.61,2.13a1.08,1.08,0,0,1,.43,1.38A.86.86,0,0,1,339,86.46ZM320.41,86a1.61,1.61,0,0,1-.64-.21,1.13,1.13,0,0,1-.21-1.49,11.69,11.69,0,0,1,3.4-3.09,1,1,0,0,1,1,1.81,10.4,10.4,0,0,0-2.77,2.55A.7.7,0,0,1,320.41,86Zm11.16-3.4h-.31a12.55,12.55,0,0,0-3.3-.54h-.43a.92.92,0,0,1-1.06-.95,1.05,1.05,0,0,1,1-1.07h.63a13.39,13.39,0,0,1,3.94.64,1,1,0,0,1,.64,1.28A1.43,1.43,0,0,1,331.57,82.64Z"/></g><path class="cls-11" d="M233.64,588.48h0c-1.49,0-2.87-.11-4.26-.21a1.07,1.07,0,0,1,.22-2.13c1.38.11,2.76.21,4.14.21a1.14,1.14,0,0,1,1.07,1.07A1.25,1.25,0,0,1,233.64,588.48Zm4.25-.11a1.12,1.12,0,0,1-1.06-1,1.23,1.23,0,0,1,1-1.17c1.38-.11,2.76-.22,4-.43a1,1,0,1,1,.31,2,26.4,26.4,0,0,1-4.25.53Zm-12.55-.74h-.21a41.07,41.07,0,0,1-4.15-1.06,1,1,0,0,1,.64-1.92,38.43,38.43,0,0,0,3.94,1.06,1.11,1.11,0,0,1,.85,1.28A1.43,1.43,0,0,1,225.34,587.63Zm20.74-.53a1.11,1.11,0,0,1-1.06-.85,1.09,1.09,0,0,1,.74-1.28c1.38-.32,2.66-.74,3.93-1.06a1,1,0,0,1,1.28.63,1,1,0,0,1-.64,1.28,37.85,37.85,0,0,1-4.14,1.17C246.29,587.1,246.19,587.1,246.08,587.1Zm-28.71-2a.63.63,0,0,1-.43-.11l-1.27-.64-3.62-2.12a1.08,1.08,0,0,1-.42-1.39,1.06,1.06,0,0,1,1.38-.42l3.61,2.12a10.43,10.43,0,0,0,1.17.64.93.93,0,0,1,.43,1.38A.85.85,0,0,1,217.37,585.08Zm36.68-.54a1,1,0,0,1-1-.63,1.06,1.06,0,0,1,.53-1.39,28.08,28.08,0,0,0,3.51-1.8,1.14,1.14,0,0,1,1.49.32.93.93,0,0,1-.32,1.38h-.11c-1.17.64-2.44,1.27-3.72,1.91A.54.54,0,0,1,254.05,584.54Zm7.45-4a1.26,1.26,0,0,1-1-.53.93.93,0,0,1,.43-1.38l3.61-2.13a1,1,0,0,1,1,1.81l-3.62,2.13A.66.66,0,0,1,261.5,580.5ZM209,580.18a1,1,0,0,1-.53-.1L204.82,578a1,1,0,0,1,1-1.81l3.61,2.13a1,1,0,0,1-.42,1.91Zm59.76-3.82a1.29,1.29,0,0,1-1-.53,1,1,0,0,1,.43-1.39l3.61-2.12a1,1,0,1,1,1,1.8l-3.62,2.13C269.05,576.25,268.94,576.36,268.73,576.36Zm-67.1-.43a1,1,0,0,1-.53-.1l-3.62-2.13a1,1,0,0,1,1-1.81l3.62,2.13a1.07,1.07,0,0,1,.42,1.38C202.37,575.83,202.06,575.93,201.63,575.93ZM276,572.1a1.28,1.28,0,0,1-1-.53.94.94,0,0,1,.43-1.38l3.61-2.13a1,1,0,0,1,1.39.43.94.94,0,0,1-.43,1.38L276.39,572C276.39,572.1,276.17,572.1,276,572.1Zm-81.56-.32a1,1,0,0,1-.53-.1l-3.62-2.13a1.07,1.07,0,0,1-.42-1.38,1.08,1.08,0,0,1,1.38-.43l3.62,2.13a1.08,1.08,0,0,1,.42,1.38A.84.84,0,0,1,194.4,571.78ZM283.3,568a1.28,1.28,0,0,1-1-.54.93.93,0,0,1,.43-1.38l3.61-2.12a1,1,0,0,1,1,1.8l-3.62,2.13C283.62,567.85,283.4,568,283.3,568Zm-96.13-.43a.93.93,0,0,1-.53-.11L183,565.3a1,1,0,0,1,1-1.81l3.61,2.13A1.07,1.07,0,0,1,188,567,1,1,0,0,1,187.17,567.53Zm103.36-3.83a1.26,1.26,0,0,1-1-.53.93.93,0,0,1,.43-1.38l3.61-2.13a1,1,0,0,1,1,1.81L291,563.6C290.85,563.7,290.74,563.7,290.53,563.7Zm-110.59-.32a1,1,0,0,1-.53-.1l-3.62-2.13a1,1,0,0,1,1-1.81l3.61,2.13a1,1,0,0,1-.42,1.91Zm117.82-3.82a1.28,1.28,0,0,1-1-.54.94.94,0,0,1,.43-1.38l3.61-2.13a1,1,0,0,1,1.39.43.94.94,0,0,1-.43,1.38l-3.62,2.13A1,1,0,0,1,297.76,559.56Zm-125.16-.43a.93.93,0,0,1-.53-.11l-3.62-2.12a1,1,0,0,1,1-1.81l3.62,2.13a1.07,1.07,0,0,1,.42,1.38A.83.83,0,0,1,172.6,559.13ZM305,555.3a1.28,1.28,0,0,1-1-.53.94.94,0,0,1,.43-1.38l3.61-2.13a1,1,0,0,1,1.39.43.94.94,0,0,1-.43,1.38l-3.61,2.13C305.42,555.3,305.2,555.3,305,555.3Zm-139.62-.42a.93.93,0,0,1-.53-.11l-3.62-2.13a1,1,0,1,1,1-1.8L165.8,553a1.09,1.09,0,0,1,.42,1.39C166.11,554.77,165.8,554.88,165.37,554.88Zm147-3.73a1.26,1.26,0,0,1-1-.53.93.93,0,0,1,.43-1.38l3.61-2.13a1,1,0,0,1,1,1.81l-3.62,2.13A.66.66,0,0,1,312.33,551.15Zm-154.19-.42a.93.93,0,0,1-.53-.11L154,548.5a1,1,0,0,1,1-1.81l3.61,2.13a1.07,1.07,0,0,1,.43,1.38A1,1,0,0,1,158.14,550.73ZM319.56,547a1.26,1.26,0,0,1-1-.53.94.94,0,0,1,.43-1.39l3.61-2.12a1,1,0,0,1,1,1.8L320,546.9C319.88,546.9,319.77,547,319.56,547Zm-168.65-.53a.93.93,0,0,1-.53-.11l-3.62-2.13a1,1,0,1,1,1-1.8l3.61,2.12a1,1,0,0,1-.42,1.92Zm175.88-3.73a1.26,1.26,0,0,1-1-.53.94.94,0,0,1,.43-1.38l3.61-2.13a1,1,0,1,1,1,1.81l-3.62,2.13C327.21,542.75,327,542.75,326.79,542.75Zm-183.22-.42a.93.93,0,0,1-.53-.11l-3.62-2.12a1,1,0,0,1,1-1.81l3.62,2.12a1.09,1.09,0,0,1,.42,1.39A.83.83,0,0,1,143.57,542.33Zm190.56-3.72a1.29,1.29,0,0,1-1-.53.94.94,0,0,1,.42-1.39l3.62-2.12a1,1,0,0,1,1,1.8l-3.62,2.13C334.45,538.5,334.23,538.61,334.13,538.61Zm-197.79-.53a.93.93,0,0,1-.53-.11l-3.62-2.13a1.06,1.06,0,0,1-.42-1.38,1.08,1.08,0,0,1,1.38-.43l3.62,2.13a1.08,1.08,0,0,1,.42,1.38A.84.84,0,0,1,136.34,538.08Zm205-3.73a1.26,1.26,0,0,1-1-.53.93.93,0,0,1,.43-1.38l3.61-2.13a1,1,0,0,1,1,1.81l-3.62,2.13C341.68,534.35,341.57,534.35,341.36,534.35Zm-212.25-.53a1,1,0,0,1-.53-.1L125,531.59a1,1,0,0,1,1-1.81l3.61,2.13a1.07,1.07,0,0,1,.43,1.38A.79.79,0,0,1,129.11,533.82Zm219.48-3.61a1.28,1.28,0,0,1-1-.54.93.93,0,0,1,.43-1.38l3.61-2.12a1,1,0,0,1,1,1.8L349,530.1A1,1,0,0,1,348.59,530.21Zm-226.71-.54a1,1,0,0,1-.53-.1l-3.62-2.13a1,1,0,0,1,1-1.81l3.61,2.13a1,1,0,0,1-.42,1.91ZM355.93,526a1.26,1.26,0,0,1-1-.53.93.93,0,0,1,.42-1.38l3.62-2.13a1,1,0,0,1,1,1.81l-3.62,2.13A.67.67,0,0,1,355.93,526Zm-241.28-.53a1,1,0,0,1-.53-.1l-3.62-2.13a1,1,0,1,1,1-1.81l3.61,2.13a1.08,1.08,0,0,1,.43,1.38A.86.86,0,0,1,114.65,525.42Zm248.51-3.61a1.28,1.28,0,0,1-1-.54.93.93,0,0,1,.42-1.38l3.62-2.12a1,1,0,0,1,1,1.8l-3.62,2.13C363.48,521.81,363.37,521.81,363.16,521.81Zm-255.85-.54a1,1,0,0,1-.53-.1L103.16,519a1.07,1.07,0,0,1-.42-1.38,1.08,1.08,0,0,1,1.38-.43l3.62,2.13a1.08,1.08,0,0,1,.42,1.38A.84.84,0,0,1,107.31,521.27Zm263.08-3.72a1.26,1.26,0,0,1-1-.53.93.93,0,0,1,.43-1.38l3.61-2.13a1,1,0,0,1,1,1.81l-3.62,2.13C370.81,517.55,370.6,517.55,370.39,517.55ZM100.08,517a.93.93,0,0,1-.53-.11l-3.62-2.12a1,1,0,0,1,1-1.81l3.61,2.13a1.07,1.07,0,0,1,.43,1.38A1,1,0,0,1,100.08,517Zm277.64-3.61a1.27,1.27,0,0,1-1-.54.93.93,0,0,1,.42-1.38l3.62-2.13a1,1,0,0,1,1,1.81l-3.62,2.13A.63.63,0,0,1,377.72,513.41Zm-284.87-.54a1,1,0,0,1-.53-.1l-3.62-2.13a1,1,0,0,1,1-1.81L93.27,511a1.07,1.07,0,0,1,.43,1.38A1,1,0,0,1,92.85,512.87ZM385,509.15a1.36,1.36,0,0,1-.86-.42,1.05,1.05,0,0,1,.32-1.49,25.31,25.31,0,0,0,3.19-2.45,1,1,0,0,1,1.49,0,1,1,0,0,1,0,1.49,21.45,21.45,0,0,1-3.4,2.66A4.08,4.08,0,0,1,385,509.15Zm-299.34-.53a.91.91,0,0,1-.53-.11l-3.62-2.12a1,1,0,1,1,1-1.81L86,506.71a1,1,0,0,1-.42,1.91Zm-7.34-4.25a.93.93,0,0,1-.53-.11l-3.62-2.13a1,1,0,1,1,1-1.8l3.62,2.12a1.09,1.09,0,0,1,.42,1.39C79,504.26,78.71,504.37,78.28,504.37Zm312.63-1a1.61,1.61,0,0,1-.64-.21,1,1,0,0,1-.32-1.49,12.86,12.86,0,0,0,1.7-3.51,1.18,1.18,0,0,1,1.28-.75,1.16,1.16,0,0,1,.74,1.28,15.35,15.35,0,0,1-1.91,4A.89.89,0,0,1,390.91,503.41ZM71.05,500.22a.93.93,0,0,1-.53-.11L66.9,498a1,1,0,0,1,1-1.81l3.61,2.13a1.07,1.07,0,0,1,.43,1.38A.85.85,0,0,1,71.05,500.22ZM63.82,496a.93.93,0,0,1-.53-.11l-3.62-2.13a1,1,0,0,1,1-1.8l3.61,2.12a1.07,1.07,0,0,1,.43,1.38A1,1,0,0,1,63.82,496ZM393,495.43a1.14,1.14,0,0,1-1.07-.95A8.77,8.77,0,0,0,390.7,491a1.08,1.08,0,0,1,1.81-1.17,11.35,11.35,0,0,1,1.59,4.36,1.05,1.05,0,0,1-.85,1.17C393.14,495.43,393.14,495.43,393,495.43ZM56.59,491.82a.91.91,0,0,1-.53-.11l-3.62-2.12a1,1,0,1,1,1-1.81L57,489.9a1.09,1.09,0,0,1,.43,1.39A1.07,1.07,0,0,1,56.59,491.82ZM389,488.42a1.09,1.09,0,0,1-.64-.22,12.73,12.73,0,0,0-2.77-1.91l-.53-.32a1.07,1.07,0,0,1-.42-1.38,1.08,1.08,0,0,1,1.38-.43l.53.32a13.53,13.53,0,0,1,3.08,2.23,1,1,0,0,1,.11,1.49A1.9,1.9,0,0,1,389,488.42Zm-339.75-.85a.93.93,0,0,1-.53-.11l-3.51-2,.42-1,.54-1,3.61,2.13a1.08,1.08,0,0,1,.43,1.38A1.13,1.13,0,0,1,49.25,487.57ZM381.87,484a.93.93,0,0,1-.53-.11l-3.62-2.12a1,1,0,0,1,1-1.81L382.3,482a1.07,1.07,0,0,1,.42,1.38A.93.93,0,0,1,381.87,484ZM42.34,483a1.15,1.15,0,0,1-.75-.32,12.64,12.64,0,0,1-2.76-3.61.93.93,0,0,1,.42-1.38.94.94,0,0,1,1.39.42,10.18,10.18,0,0,0,2.34,3,1,1,0,0,1,0,1.49A.66.66,0,0,1,42.34,483Zm332.3-3.29a.93.93,0,0,1-.53-.11l-3.62-2.13a1,1,0,1,1,1-1.8l3.62,2.12a1.08,1.08,0,0,1,.42,1.38A1,1,0,0,1,374.64,479.7Zm-336-4a1.05,1.05,0,0,1-1.07-1v-.64a13.32,13.32,0,0,1,.64-3.93,1.08,1.08,0,0,1,2,.74,8.49,8.49,0,0,0-.53,3.19v.53a1.07,1.07,0,0,1-1.06,1.07Zm328.79-.11a.93.93,0,0,1-.53-.11l-3.62-2.12a1,1,0,0,1,1-1.81l3.61,2.13a1,1,0,0,1-.42,1.91Zm-7.34-4.25a.93.93,0,0,1-.53-.11l-3.61-2.13a1,1,0,1,1,.95-1.8l3.62,2.12a1.07,1.07,0,0,1,.42,1.38A.84.84,0,0,1,360.07,471.3Zm-318.9-3.41a1.46,1.46,0,0,1-.64-.21,1.13,1.13,0,0,1-.21-1.49,16.91,16.91,0,0,1,3-3.19,1,1,0,0,1,1.48.11,1,1,0,0,1-.1,1.49A20.52,20.52,0,0,0,42,467.47,1,1,0,0,1,41.17,467.89ZM352.84,467a1,1,0,0,1-.53-.1l-3.62-2.13a1,1,0,0,1,1-1.81l3.62,2.13a1.08,1.08,0,0,1,.42,1.38C353.59,466.94,353.27,467,352.84,467Zm-7.23-4.14a.93.93,0,0,1-.53-.11l-3.62-2.13a1,1,0,0,1,1-1.81L346,461a1.08,1.08,0,0,1,.42,1.38A1,1,0,0,1,345.61,462.9Zm-298.17-.54a1.07,1.07,0,0,1-.85-.53,1,1,0,0,1,.32-1.49c.43-.32.85-.53,1.38-.85l2.34-1.27a1,1,0,1,1,1,1.8l-2.34,1.28c-.43.21-.85.53-1.28.74C47.76,462.26,47.65,462.36,47.44,462.36Zm290.94-3.72a1,1,0,0,1-.53-.1l-3.62-2.13a1,1,0,0,1,1-1.81l3.61,2.13a1.07,1.07,0,0,1,.43,1.38A.86.86,0,0,1,338.38,458.64Zm-283.71-.53a1.25,1.25,0,0,1-1-.53.93.93,0,0,1,.42-1.38l3.62-2.13a1,1,0,1,1,1,1.81L55.1,458C55,458,54.89,458.11,54.67,458.11ZM331,454.49a1,1,0,0,1-.53-.1l-3.61-2.13a1,1,0,0,1,1-1.81l3.62,2.13a1.07,1.07,0,0,1,.42,1.38A.83.83,0,0,1,331,454.49ZM61.9,453.86a1.29,1.29,0,0,1-.95-.53.94.94,0,0,1,.42-1.39L65,449.82a1,1,0,1,1,1,1.8l-3.61,2.13C62.33,453.86,62.12,453.86,61.9,453.86Zm261.91-3.62a1,1,0,0,1-.53-.1L319.66,448a1,1,0,0,1,1-1.81l3.62,2.13a1.07,1.07,0,0,1,.42,1.38A.83.83,0,0,1,323.81,450.24Zm-254.57-.53a1.28,1.28,0,0,1-1-.53.94.94,0,0,1,.43-1.38l3.62-2.13a.94.94,0,0,1,1.38.42,1,1,0,0,1-.43,1.39l-3.61,2.12C69.56,449.6,69.35,449.71,69.24,449.71Zm247.34-3.62a1,1,0,0,1-.53-.1l-3.62-2.13a1,1,0,0,1,1-1.81l3.62,2.13a1.08,1.08,0,0,1,.42,1.38A1,1,0,0,1,316.58,446.09Zm-240.11-.63a1.26,1.26,0,0,1-1-.54.93.93,0,0,1,.42-1.38l3.62-2.12a1,1,0,1,1,1,1.8l-3.61,2.13C76.79,445.46,76.68,445.46,76.47,445.46Zm232.88-3.62a.93.93,0,0,1-.53-.11l-3.62-2.12a1,1,0,0,1,1-1.81l3.62,2.13a1,1,0,0,1-.43,1.91ZM83.7,441.31a1.25,1.25,0,0,1-1-.53.93.93,0,0,1,.42-1.38l3.62-2.13a1,1,0,1,1,.95,1.81l-3.61,2.12C84.13,441.31,83.92,441.31,83.7,441.31ZM302,437.59a.93.93,0,0,1-.53-.11l-3.61-2.13a1,1,0,1,1,.95-1.8l3.62,2.12a1.08,1.08,0,0,1,.42,1.39C302.76,437.48,302.44,437.59,302,437.59Zm-211-.43a1.28,1.28,0,0,1-1-.53.94.94,0,0,1,.43-1.38l3.61-2.13a1,1,0,1,1,1,1.81l-3.61,2.13C91.36,437.06,91.15,437.16,91,437.16Zm203.74-3.72a.93.93,0,0,1-.53-.11l-3.62-2.12a1,1,0,0,1,1-1.81l3.62,2.13a1.07,1.07,0,0,1,.42,1.38A.83.83,0,0,1,294.78,433.44Zm-196.51-.53a1.28,1.28,0,0,1-1-.53,1,1,0,0,1,.43-1.39l3.62-2.12a.94.94,0,0,1,1.38.42,1,1,0,0,1-.43,1.39L98.7,432.8C98.59,432.91,98.48,432.91,98.27,432.91Zm189.28-3.72a.93.93,0,0,1-.53-.11L283.4,427a1,1,0,0,1,1-1.8l3.62,2.12a1.09,1.09,0,0,1,.42,1.39A1,1,0,0,1,287.55,429.19Zm-182-.43a1.25,1.25,0,0,1-1-.53.93.93,0,0,1,.42-1.38l3.62-2.13a1,1,0,0,1,1,1.81l-3.61,2.13A1.21,1.21,0,0,1,105.5,428.76ZM280.32,425a.93.93,0,0,1-.53-.11l-3.62-2.12a1,1,0,0,1,1-1.81l3.62,2.13a1,1,0,0,1-.43,1.91Zm-167.59-.53a1.25,1.25,0,0,1-1-.53.94.94,0,0,1,.42-1.39l3.62-2.12a1,1,0,1,1,1,1.8l-3.61,2.13C113.16,424.51,113,424.51,112.73,424.51Zm160.36-3.72a.93.93,0,0,1-.53-.11l-3.62-2.13a1,1,0,1,1,1-1.8l3.61,2.12a1.07,1.07,0,0,1,.43,1.38A1.09,1.09,0,0,1,273.09,420.79Zm-153-.43a1.28,1.28,0,0,1-1-.53.94.94,0,0,1,.43-1.38l3.61-2.13a1,1,0,1,1,1,1.81l-3.61,2.12C120.39,420.25,120.18,420.36,120.07,420.36Zm145.68-3.83a1,1,0,0,1-.53-.1l-3.62-2.13a1,1,0,0,1,1-1.81l3.62,2.13a1.07,1.07,0,0,1,.42,1.38C266.5,416.43,266.18,416.53,265.75,416.53Zm-138.45-.42a1.31,1.31,0,0,1-1-.53,1,1,0,0,1,.43-1.39l3.61-2.12a1,1,0,1,1,1,1.8L127.73,416C127.62,416.11,127.51,416.11,127.3,416.11Zm131.22-3.72a.93.93,0,0,1-.53-.11l-3.62-2.13a1,1,0,0,1,1-1.81l3.62,2.13a1.08,1.08,0,0,1,.42,1.38A.94.94,0,0,1,258.52,412.39Zm-124-.43a1.25,1.25,0,0,1-.95-.53.93.93,0,0,1,.42-1.38l3.62-2.13a.93.93,0,0,1,1.38.42,1,1,0,0,1-.43,1.39L135,411.85A1.12,1.12,0,0,1,134.53,412Zm116.76-3.83a1,1,0,0,1-.53-.1l-3.62-2.13a1,1,0,0,1,1-1.81l3.62,2.13a1.08,1.08,0,0,1,.42,1.38A1,1,0,0,1,251.29,408.13Zm-109.42-.42a1.29,1.29,0,0,1-1-.53,1,1,0,0,1,.43-1.39l3.61-2.12a1,1,0,1,1,1,1.8l-3.62,2.13A.6.6,0,0,1,141.87,407.71ZM244.06,404a1,1,0,0,1-.53-.1l-3.62-2.13a1.07,1.07,0,0,1-.42-1.38,1.08,1.08,0,0,1,1.38-.43l3.61,2.13a1,1,0,0,1-.42,1.91Zm-95-.42a1.28,1.28,0,0,1-1-.53.94.94,0,0,1,.43-1.38l3.61-2.13a1,1,0,1,1,1,1.81l-3.61,2.12C149.42,403.56,149.31,403.56,149.1,403.56Zm87.62-3.83a1,1,0,0,1-.53-.1l-3.62-2.13a1,1,0,0,1,1-1.81l3.62,2.13a1.06,1.06,0,0,1,.42,1.38A.83.83,0,0,1,236.72,399.73Zm-80.39-.32a1.28,1.28,0,0,1-1-.53.94.94,0,0,1,.43-1.38l3.61-2.13a1,1,0,0,1,1.39.43.94.94,0,0,1-.43,1.38l-3.61,2.13A1.21,1.21,0,0,1,156.33,399.41Zm73.16-3.93a.93.93,0,0,1-.53-.11l-3.62-2.13a1,1,0,1,1,1-1.8l3.62,2.12a1.09,1.09,0,0,1,.42,1.39C230.24,395.37,229.92,395.48,229.49,395.48Zm-65.82-.32a1.26,1.26,0,0,1-1-.53.94.94,0,0,1,.43-1.39l3.61-2.12a.93.93,0,0,1,1.38.42.94.94,0,0,1-.42,1.39l-3.62,2.12A.61.61,0,0,1,163.67,395.16Zm58.59-3.83a.93.93,0,0,1-.53-.11l-3.62-2.12a1,1,0,0,1,1-1.81l3.62,2.13a1.07,1.07,0,0,1,.42,1.38A1,1,0,0,1,222.26,391.33ZM170.9,391a1.26,1.26,0,0,1-1-.53.94.94,0,0,1,.43-1.38L174,387a1,1,0,1,1,1,1.81l-3.62,2.13C171.22,390.91,171.11,391,170.9,391ZM215,387.08a.93.93,0,0,1-.53-.11,19.2,19.2,0,0,0-3.72-1.59,1.06,1.06,0,0,1-.64-1.39,1.05,1.05,0,0,1,1.38-.63c1.38.53,2.76,1.06,4,1.7a1.09,1.09,0,0,1-.53,2Zm-36.69,0a.93.93,0,0,1-1-.64,1,1,0,0,1,.53-1.38c1.27-.53,2.66-1.07,4-1.49a1,1,0,0,1,.64,1.91c-1.28.43-2.66.85-3.83,1.38C178.56,387.08,178.45,387.08,178.34,387.08Zm8-2.55a1,1,0,0,1-1.07-.86,1.09,1.09,0,0,1,.75-1.27c1.38-.32,2.76-.53,4.25-.75a1.06,1.06,0,0,1,1.17.85,1,1,0,0,1-.85,1.17c-1.38.22-2.76.43-4,.75C186.42,384.53,186.42,384.53,186.32,384.53Zm20.84-.22H207a25,25,0,0,0-4-.64,1.23,1.23,0,0,1-1-1.17,1.25,1.25,0,0,1,1.17-.95c1.49.21,2.87.42,4.25.74a1.11,1.11,0,0,1,.85,1.28A1.27,1.27,0,0,1,207.16,384.31Zm-12.55-.95a1,1,0,0,1-.1-2,26.81,26.81,0,0,1,3-.11h1.28a1.07,1.07,0,0,1,0,2.13h-4.15Z"/><path class="cls-11" d="M333.28,614h0a27.38,27.38,0,0,1-4.36-.53,1.09,1.09,0,1,1,.42-2.13c1.28.21,2.66.43,4,.53a1,1,0,0,1,1,1.07A1.14,1.14,0,0,1,333.28,614Zm4.14,0a1,1,0,0,1-.1-2c1.38-.11,2.65-.21,4-.43a1.06,1.06,0,0,1,1.17.85,1.05,1.05,0,0,1-.85,1.17c-1.28.11-2.77.32-4.26.43Zm8.3-1.49a1,1,0,0,1-1-.74,1,1,0,0,1,.74-1.28c1.28-.42,2.56-.85,3.83-1.38a1,1,0,0,1,.85,1.91c-1.27.53-2.66,1.07-4,1.49Zm-20.63-.11a.4.4,0,0,1-.32-.1,18.68,18.68,0,0,1-2.87-1.38l-3.62-2.13a1.07,1.07,0,0,1-.42-1.38,1.08,1.08,0,0,1,1.38-.43l3.61,2.13a14.83,14.83,0,0,0,2.56,1.17,1.09,1.09,0,0,1,.63,1.38A1.12,1.12,0,0,1,325.09,612.4Zm28.18-3.29a1.26,1.26,0,0,1-1-.53.94.94,0,0,1,.43-1.39l3.61-2.12a.93.93,0,0,1,1.38.42,1,1,0,0,1-.42,1.39L353.69,609A1,1,0,0,1,353.27,609.11Zm-38.18-2.23a.93.93,0,0,1-.53-.11l-3.62-2.13a1,1,0,0,1,1-1.81l3.62,2.13a1.07,1.07,0,0,1,.42,1.38A.79.79,0,0,1,315.09,606.88Zm45.51-2a1.26,1.26,0,0,1-1-.53.93.93,0,0,1,.42-1.38l3.62-2.13a.94.94,0,0,1,1.38.43.93.93,0,0,1-.43,1.38L361,604.75A.68.68,0,0,1,360.6,604.85Zm-52.74-2.12a.93.93,0,0,1-.53-.11l-3.62-2.12a1.09,1.09,0,0,1-.42-1.39,1.07,1.07,0,0,1,1.38-.42l3.62,2.12a1.09,1.09,0,0,1,.42,1.39A.93.93,0,0,1,307.86,602.73Zm60-2a1.26,1.26,0,0,1-.95-.53.94.94,0,0,1,.42-1.39l3.62-2.12a1,1,0,0,1,1,1.8l-3.62,2.13C368.15,600.6,368.05,600.71,367.83,600.71Zm-67.31-2.24a1,1,0,0,1-.53-.1l-3.61-2.13a1,1,0,0,1,.95-1.81l3.62,2.13a1.07,1.07,0,0,1,.42,1.38C301.27,598.37,301,598.47,300.52,598.47Zm74.55-2a1.26,1.26,0,0,1-1-.53.93.93,0,0,1,.42-1.38l3.62-2.13a1,1,0,0,1,1,1.81l-3.62,2.13C375.49,596.45,375.28,596.45,375.07,596.45Zm-81.78-2.12a.93.93,0,0,1-.53-.11l-3.61-2.13a1,1,0,1,1,1-1.8l3.62,2.12a1.08,1.08,0,0,1,.42,1.39A.83.83,0,0,1,293.29,594.33Zm89-2a1.29,1.29,0,0,1-1-.53.94.94,0,0,1,.43-1.39l3.08-1.8c.21-.11.32-.22.53-.32a1.14,1.14,0,0,1,1.49.32,1.13,1.13,0,0,1-.32,1.48l-.64.32-3.08,1.81A4.72,4.72,0,0,1,382.3,592.31Zm-96.24-2.24a1,1,0,0,1-.53-.1l-3.62-2.13a1,1,0,0,1,1-1.81l3.62,2.13a1.07,1.07,0,0,1,.42,1.38A.78.78,0,0,1,286.06,590.07Zm103.25-2.44a1,1,0,0,1-.74-.32,1,1,0,0,1,0-1.49,9.79,9.79,0,0,0,2.23-3.08,1,1,0,0,1,1.92.85,13.86,13.86,0,0,1-2.66,3.61A.92.92,0,0,1,389.31,587.63Zm-110.48-1.7a.93.93,0,0,1-.53-.11l-3.62-2.13a1,1,0,1,1,1-1.8l3.62,2.12a1.09,1.09,0,0,1,.42,1.39A1.1,1.1,0,0,1,278.83,585.93Zm-7.34-4.15a.93.93,0,0,1-.53-.11l-3.61-2.12a1.09,1.09,0,0,1-.43-1.39,1.08,1.08,0,0,1,1.38-.42l3.62,2.13a1.06,1.06,0,0,1,.42,1.38A.83.83,0,0,1,271.49,581.78Zm121.12-1.6a1.12,1.12,0,0,1-1.06-.95,6,6,0,0,0-1.38-3.3,1.06,1.06,0,1,1,1.7-1.27,8.69,8.69,0,0,1,1.8,4.36,1.09,1.09,0,0,1-1.06,1.16Zm-128.35-2.65a.93.93,0,0,1-.53-.11l-3.61-2.13a1,1,0,1,1,.95-1.8l3.62,2.12a1.07,1.07,0,0,1,.42,1.38A.94.94,0,0,1,264.26,577.53Zm123.67-3.94a1,1,0,0,1-.53-.1l-3.61-2.13a1,1,0,0,1,.95-1.81l3.62,2.13a1.17,1.17,0,0,1,.42,1.49A1,1,0,0,1,387.93,573.59ZM257,573.38a.93.93,0,0,1-.53-.11l-3.62-2.12a1,1,0,0,1,1-1.81l3.62,2.13a1.06,1.06,0,0,1,.42,1.38A1.07,1.07,0,0,1,257,573.38Zm123.67-3.94a1,1,0,0,1-.53-.1l-3.62-2.13a1,1,0,0,1,1-1.81l3.62,2.13a1,1,0,0,1-.43,1.91Zm-131-.31a.94.94,0,0,1-.53-.11l-3.61-2.13a1.08,1.08,0,0,1-.43-1.38,1.07,1.07,0,0,1,1.38-.42l3.62,2.12a1.08,1.08,0,0,1,.43,1.38A.86.86,0,0,1,249.69,569.13Zm123.67-3.83a.94.94,0,0,1-.53-.11l-3.61-2.13a1,1,0,1,1,.95-1.8l3.62,2.12a1.09,1.09,0,0,1,.43,1.39A.85.85,0,0,1,373.36,565.3ZM242.46,565a.93.93,0,0,1-.53-.11l-3.61-2.12a1.09,1.09,0,0,1-.43-1.39,1.08,1.08,0,0,1,1.38-.42l3.62,2.12a1.08,1.08,0,0,1,.42,1.39A.93.93,0,0,1,242.46,565ZM366.13,561a1,1,0,0,1-.53-.1L362,558.81a1,1,0,0,1,.95-1.81l3.62,2.13a1.07,1.07,0,0,1,.42,1.38A.93.93,0,0,1,366.13,561Zm-130.9-.31a.93.93,0,0,1-.53-.11l-3.61-2.13a1.07,1.07,0,0,1-.43-1.38,1.08,1.08,0,0,1,1.38-.43l3.62,2.13a1.07,1.07,0,0,1,.42,1.38A1.09,1.09,0,0,1,235.23,560.73ZM358.9,556.9a.93.93,0,0,1-.53-.11l-3.61-2.13a1,1,0,1,1,.95-1.8l3.62,2.12a1.08,1.08,0,0,1,.42,1.39A1.1,1.1,0,0,1,358.9,556.9Zm-131-.32a1,1,0,0,1-.54-.11l-3.61-2.12a1.09,1.09,0,0,1-.43-1.39,1.08,1.08,0,0,1,1.39-.42l3.61,2.12a1.09,1.09,0,0,1,.43,1.39A.85.85,0,0,1,227.9,556.58Zm123.67-3.94a1,1,0,0,1-.54-.1l-3.61-2.13a1,1,0,1,1,1-1.81l3.61,2.13a1.08,1.08,0,0,1,.43,1.38A.85.85,0,0,1,351.57,552.64Zm-130.91-.32a1,1,0,0,1-.53-.1l-3.61-2.13a1,1,0,0,1,.95-1.81l3.62,2.13a1.08,1.08,0,0,1,.43,1.38A.85.85,0,0,1,220.66,552.32Zm123.67-3.82a.94.94,0,0,1-.53-.11l-3.61-2.13a1.08,1.08,0,0,1-.43-1.38,1.07,1.07,0,0,1,1.38-.42l3.62,2.12a1.08,1.08,0,0,1,.43,1.38A1,1,0,0,1,344.33,548.5Zm-130.9-.32a.93.93,0,0,1-.53-.11l-3.61-2.13a1,1,0,1,1,1-1.8l3.62,2.12a1.08,1.08,0,0,1,.42,1.39A1,1,0,0,1,213.43,548.18Zm123.67-3.94a1,1,0,0,1-.53-.1L333,542a1,1,0,0,1,1-1.81l3.62,2.13a1,1,0,0,1-.43,1.91Zm-130.9-.32a1,1,0,0,1-.53-.1l-3.61-2.13a1,1,0,0,1,.95-1.81l3.62,2.13a1.07,1.07,0,0,1,.42,1.38A.86.86,0,0,1,206.2,543.92Zm123.57-3.82a1,1,0,0,1-.54-.11l-3.61-2.13a1,1,0,1,1,1-1.8l3.61,2.12a1.08,1.08,0,0,1,.43,1.38A.85.85,0,0,1,329.77,540.1Zm-130.9-.32a1,1,0,0,1-.54-.11l-3.61-2.13a1,1,0,1,1,1-1.8l3.61,2.12a1.09,1.09,0,0,1,.43,1.39A.86.86,0,0,1,198.87,539.78Zm123.67-3.94a1,1,0,0,1-.54-.1l-3.61-2.13a1,1,0,1,1,1-1.81l3.61,2.13a1.08,1.08,0,0,1,.43,1.38C323.28,535.74,323,535.84,322.54,535.84Zm-130.91-.32a1,1,0,0,1-.53-.1l-3.61-2.13a1,1,0,0,1,.95-1.81l3.62,2.13a1.08,1.08,0,0,1,.43,1.38A.8.8,0,0,1,191.63,535.52ZM315.3,531.7a.94.94,0,0,1-.53-.11l-3.61-2.13a1,1,0,0,1,.95-1.81l3.62,2.13a1.08,1.08,0,0,1,.43,1.38A1,1,0,0,1,315.3,531.7Zm-130.9-.32a.94.94,0,0,1-.53-.11l-3.61-2.13a1.08,1.08,0,0,1-.43-1.38,1.07,1.07,0,0,1,1.38-.42l3.62,2.12a1.07,1.07,0,0,1,.42,1.38A1.09,1.09,0,0,1,184.4,531.38Zm123.67-3.94a1,1,0,0,1-.53-.1l-3.61-2.13a1,1,0,0,1,.95-1.81l3.62,2.13a1.06,1.06,0,0,1,.42,1.38A.86.86,0,0,1,308.07,527.44Zm-131-.32a1,1,0,0,1-.53-.1l-3.62-2.13a1,1,0,1,1,1-1.81l3.61,2.13a1.08,1.08,0,0,1,.43,1.38C177.81,527,177.49,527.12,177.07,527.12Zm123.67-3.83a1,1,0,0,1-.54-.1l-3.61-2.13a1,1,0,1,1,1-1.81l3.61,2.13a1.08,1.08,0,0,1,.43,1.38A.85.85,0,0,1,300.74,523.29ZM169.84,523a1,1,0,0,1-.54-.11l-3.61-2.13a1.08,1.08,0,0,1-.43-1.38,1.09,1.09,0,0,1,1.39-.43l3.61,2.13a1.08,1.08,0,0,1,.43,1.38A1,1,0,0,1,169.84,523ZM293.51,519a1,1,0,0,1-.54-.11l-3.61-2.12a1,1,0,1,1,1-1.81l3.61,2.13a1.08,1.08,0,0,1,.43,1.38A.81.81,0,0,1,293.51,519Zm-130.91-.32a1,1,0,0,1-.53-.1l-3.61-2.13a1,1,0,0,1,.95-1.81l3.62,2.13a1.08,1.08,0,0,1,.43,1.38A.88.88,0,0,1,162.6,518.72Zm123.67-3.83a1,1,0,0,1-.53-.1l-3.61-2.13a1,1,0,0,1,.95-1.81L286.7,513a1.08,1.08,0,0,1,.43,1.38A1.1,1.1,0,0,1,286.27,514.89Zm-131-.31a.93.93,0,0,1-.53-.11l-2-1.17a10.32,10.32,0,0,1-1.71-1.17,1.06,1.06,0,0,1,1.28-1.7,16.73,16.73,0,0,0,1.49.95l2,1.17a1.08,1.08,0,0,1,.42,1.39A1,1,0,0,1,155.27,514.58Zm123.67-3.94a.91.91,0,0,1-.53-.11l-3.62-2.12a1,1,0,1,1,1-1.81l3.61,2.13a1.08,1.08,0,0,1,.43,1.38C279.68,510.53,279.36,510.64,278.94,510.64ZM149,509.26a1.1,1.1,0,0,1-1-.53,7.64,7.64,0,0,1-.85-3.73,3.11,3.11,0,0,1,.1-.95,1.07,1.07,0,1,1,2.13.21V505a6.51,6.51,0,0,0,.64,2.77,1,1,0,0,1-.43,1.38C149.31,509.15,149.21,509.26,149,509.26Zm122.72-2.77a1,1,0,0,1-.54-.1l-3.61-2.13a1,1,0,1,1,1-1.81l3.61,2.13a1.08,1.08,0,0,1,.43,1.38A1,1,0,0,1,271.71,506.49Zm-7.23-4.14a1,1,0,0,1-.54-.11l-3.61-2.13a1,1,0,1,1,1-1.8l3.61,2.12a1.08,1.08,0,0,1,.43,1.38A1.12,1.12,0,0,1,264.48,502.35Zm-114.64-1.07a1.43,1.43,0,0,1-.63-.21,1,1,0,0,1-.32-1.49,14.71,14.71,0,0,1,3.08-3.29,1.05,1.05,0,1,1,1.38,1.59,11.17,11.17,0,0,0-2.65,2.87A.88.88,0,0,1,149.84,501.28Zm107.3-3.19a1,1,0,0,1-.53-.1L253,495.86a1,1,0,0,1,1-1.81l3.61,2.13a1.07,1.07,0,0,1,.43,1.38A.85.85,0,0,1,257.14,498.09ZM156.22,496a1.27,1.27,0,0,1-.95-.54.93.93,0,0,1,.42-1.38l3.62-2.12a1,1,0,1,1,1,1.8l-3.62,2.13C156.54,495.86,156.33,496,156.22,496Zm93.69-2a.91.91,0,0,1-.53-.11l-3.62-2.13a1.06,1.06,0,0,1-.42-1.38,1.08,1.08,0,0,1,1.38-.43l3.61,2.13a1.08,1.08,0,0,1,.43,1.38A.85.85,0,0,1,249.91,494Zm-86.45-2.24a1.26,1.26,0,0,1-1-.53.93.93,0,0,1,.42-1.38l3.62-2.13a1,1,0,0,1,1,1.81l-3.62,2.13C163.77,491.71,163.67,491.71,163.46,491.71Zm79.22-2a1,1,0,0,1-.54-.1l-3.61-2.13a1,1,0,1,1,1-1.81l3.61,2.13a1.08,1.08,0,0,1,.43,1.38A1,1,0,0,1,242.68,489.69Zm-72-2.12a1.28,1.28,0,0,1-1-.54.93.93,0,0,1,.42-1.38l3.62-2.13a1,1,0,0,1,1,1.81l-3.62,2.13A1,1,0,0,1,170.69,487.57Zm64.76-2a1,1,0,0,1-.54-.11l-3.61-2.13a1.08,1.08,0,0,1-.43-1.38,1.09,1.09,0,0,1,1.39-.43l3.61,2.13a1.08,1.08,0,0,1,.43,1.38A1.12,1.12,0,0,1,235.45,485.55ZM178,483.31a1.25,1.25,0,0,1-1-.53.93.93,0,0,1,.42-1.38l3.62-2.13a1,1,0,0,1,.95,1.81l-3.61,2.13A.68.68,0,0,1,178,483.31Zm50.09-2a1,1,0,0,1-.53-.1L224,479.06a1,1,0,0,1,1-1.81l3.61,2.13a1.07,1.07,0,0,1,.43,1.38A.85.85,0,0,1,228.11,481.29Zm-42.86-2.13a1.26,1.26,0,0,1-.95-.53.93.93,0,0,1,.42-1.38l3.62-2.13a1,1,0,0,1,1,1.81l-3.62,2.13C185.57,479.06,185.36,479.16,185.25,479.16Zm35.63-2a1,1,0,0,1-.53-.1L218,475.66l-1.28-.64a1,1,0,0,1,.85-1.92,5.88,5.88,0,0,1,1.38.75l2.34,1.38a1.08,1.08,0,0,1,.43,1.38A1,1,0,0,1,220.88,477.14Zm-28.29-1.91a.94.94,0,0,1-1-.64,1.11,1.11,0,0,1,.64-1.38,24,24,0,0,1,4.15-1.28,1.11,1.11,0,0,1,1.28.75A1.09,1.09,0,0,1,197,474a20.49,20.49,0,0,0-3.83,1.28Zm20.63-1.49H213a23.65,23.65,0,0,0-3.94-.64,1.07,1.07,0,1,1,.22-2.12,24.57,24.57,0,0,1,4.25.74,1.1,1.1,0,0,1,.74,1.28A1.05,1.05,0,0,1,213.22,473.74Zm-12.44-.64a1.12,1.12,0,0,1-1.06-1,1,1,0,0,1,.85-1.17,27.64,27.64,0,0,1,4.25-.32h0a1.06,1.06,0,0,1,0,2.12,25.24,25.24,0,0,0-4,.32Z"/></g></g></g></g></svg>