<svg xmlns="http://www.w3.org/2000/svg" xmlns:xlink="http://www.w3.org/1999/xlink" viewBox="0 0 194.4 158.32"><defs><style>.cls-1{opacity:0.3;}.cls-16,.cls-2{fill-opacity:0;}.cls-2{fill:url(#Degradado_sin_nombre_81);}.cls-10,.cls-11,.cls-12,.cls-14,.cls-17,.cls-18,.cls-19,.cls-20,.cls-21,.cls-22,.cls-23,.cls-24,.cls-25,.cls-26,.cls-28,.cls-3,.cls-30,.cls-4,.cls-5,.cls-6,.cls-7,.cls-8,.cls-9{isolation:isolate;}.cls-17,.cls-3{opacity:0.09;}.cls-3{fill:url(#Degradado_sin_nombre_81-2);}.cls-18,.cls-4{opacity:0.18;}.cls-4{fill:url(#Degradado_sin_nombre_81-3);}.cls-19,.cls-5{opacity:0.27;}.cls-5{fill:url(#Degradado_sin_nombre_81-4);}.cls-20,.cls-6{opacity:0.36;}.cls-6{fill:url(#Degradado_sin_nombre_81-5);}.cls-21,.cls-7{opacity:0.45;}.cls-7{fill:url(#Degradado_sin_nombre_81-6);}.cls-22,.cls-8{opacity:0.55;}.cls-8{fill:url(#Degradado_sin_nombre_81-7);}.cls-23,.cls-9{opacity:0.64;}.cls-9{fill:url(#Degradado_sin_nombre_81-8);}.cls-10,.cls-24{opacity:0.73;}.cls-10{fill:url(#Degradado_sin_nombre_81-9);}.cls-11,.cls-25{opacity:0.82;}.cls-11{fill:url(#Degradado_sin_nombre_81-10);}.cls-12,.cls-26{opacity:0.91;}.cls-12{fill:url(#Degradado_sin_nombre_81-11);}.cls-13{fill:url(#Degradado_sin_nombre_81-12);}.cls-14,.cls-28{opacity:0.8;}.cls-14{fill:url(#Degradado_sin_nombre_82);}.cls-15{fill:url(#Degradado_sin_nombre_86);}.cls-16{fill:url(#Degradado_sin_nombre_81-13);}.cls-17{fill:url(#Degradado_sin_nombre_81-14);}.cls-18{fill:url(#Degradado_sin_nombre_81-15);}.cls-19{fill:url(#Degradado_sin_nombre_81-16);}.cls-20{fill:url(#Degradado_sin_nombre_81-17);}.cls-21{fill:url(#Degradado_sin_nombre_81-18);}.cls-22{fill:url(#Degradado_sin_nombre_81-19);}.cls-23{fill:url(#Degradado_sin_nombre_81-20);}.cls-24{fill:url(#Degradado_sin_nombre_81-21);}.cls-25{fill:url(#Degradado_sin_nombre_81-22);}.cls-26{fill:url(#Degradado_sin_nombre_81-23);}.cls-27{fill:url(#Degradado_sin_nombre_81-24);}.cls-28{fill:url(#Degradado_sin_nombre_82-2);}.cls-29{fill:url(#Degradado_sin_nombre_86-2);}.cls-30{opacity:0.9;fill:url(#Degradado_sin_nombre_84);}.cls-31{fill:url(#Degradado_sin_nombre_86-3);}.cls-32{fill:url(#Degradado_sin_nombre_86-4);}.cls-33{fill:url(#Degradado_sin_nombre_90);}.cls-34{fill:url(#Degradado_sin_nombre_90-2);}.cls-35{fill:url(#Degradado_sin_nombre_90-3);}.cls-36{fill:url(#Degradado_sin_nombre_90-4);}</style><linearGradient id="Degradado_sin_nombre_81" x1="22.02" y1="419.51" x2="85.1" y2="539.79" gradientTransform="translate(0 -464)" gradientUnits="userSpaceOnUse"><stop offset="0.01" stop-color="#9f19ab"/><stop offset="0.43" stop-color="#5f27bd"/><stop offset="0.9" stop-color="#3d065f"/></linearGradient><linearGradient id="Degradado_sin_nombre_81-2" x1="20.88" y1="420.54" x2="83.81" y2="540.53" xlink:href="#Degradado_sin_nombre_81"/><linearGradient id="Degradado_sin_nombre_81-3" x1="19.75" y1="421.56" x2="82.53" y2="541.27" xlink:href="#Degradado_sin_nombre_81"/><linearGradient id="Degradado_sin_nombre_81-4" x1="18.6" y1="422.6" x2="81.23" y2="542.01" xlink:href="#Degradado_sin_nombre_81"/><linearGradient id="Degradado_sin_nombre_81-5" x1="17.49" y1="423.61" x2="79.97" y2="542.74" xlink:href="#Degradado_sin_nombre_81"/><linearGradient id="Degradado_sin_nombre_81-6" x1="16.34" y1="424.64" x2="78.67" y2="543.48" xlink:href="#Degradado_sin_nombre_81"/><linearGradient id="Degradado_sin_nombre_81-7" x1="15.22" y1="425.65" x2="77.4" y2="544.21" xlink:href="#Degradado_sin_nombre_81"/><linearGradient id="Degradado_sin_nombre_81-8" x1="14.07" y1="426.69" x2="76.09" y2="544.96" xlink:href="#Degradado_sin_nombre_81"/><linearGradient id="Degradado_sin_nombre_81-9" x1="12.93" y1="427.71" x2="74.81" y2="545.7" xlink:href="#Degradado_sin_nombre_81"/><linearGradient id="Degradado_sin_nombre_81-10" x1="11.84" y1="428.71" x2="73.57" y2="546.41" xlink:href="#Degradado_sin_nombre_81"/><linearGradient id="Degradado_sin_nombre_81-11" x1="10.73" y1="429.73" x2="72.3" y2="547.14" xlink:href="#Degradado_sin_nombre_81"/><linearGradient id="Degradado_sin_nombre_81-12" x1="9.65" y1="430.72" x2="71.07" y2="547.85" xlink:href="#Degradado_sin_nombre_81"/><linearGradient id="Degradado_sin_nombre_82" x1="40.57" y1="598.87" x2="74.02" y2="459.3" gradientTransform="translate(0 -464)" gradientUnits="userSpaceOnUse"><stop offset="0.03" stop-color="#7c1dc9"/><stop offset="0.21" stop-color="#6e41d2"/><stop offset="0.62" stop-color="#4c9be8"/><stop offset="1" stop-color="#2af6ff"/></linearGradient><radialGradient id="Degradado_sin_nombre_86" cx="58.35" cy="497.84" r="68.92" gradientTransform="translate(0 -464)" gradientUnits="userSpaceOnUse"><stop offset="0" stop-color="#711f56"/><stop offset="0.16" stop-color="#6c1e52"/><stop offset="0.36" stop-color="#5c1946"/><stop offset="0.58" stop-color="#431233"/><stop offset="0.82" stop-color="#200918"/><stop offset="1"/></radialGradient><linearGradient id="Degradado_sin_nombre_81-13" x1="99.23" y1="463.83" x2="162.31" y2="584.11" xlink:href="#Degradado_sin_nombre_81"/><linearGradient id="Degradado_sin_nombre_81-14" x1="98.09" y1="464.86" x2="161.02" y2="584.85" xlink:href="#Degradado_sin_nombre_81"/><linearGradient id="Degradado_sin_nombre_81-15" x1="96.96" y1="465.88" x2="159.73" y2="585.59" xlink:href="#Degradado_sin_nombre_81"/><linearGradient id="Degradado_sin_nombre_81-16" x1="95.89" y1="466.87" x2="158.51" y2="586.29" xlink:href="#Degradado_sin_nombre_81"/><linearGradient id="Degradado_sin_nombre_81-17" x1="94.78" y1="467.88" x2="157.26" y2="587.01" xlink:href="#Degradado_sin_nombre_81"/><linearGradient id="Degradado_sin_nombre_81-18" x1="93.63" y1="468.91" x2="155.96" y2="587.76" xlink:href="#Degradado_sin_nombre_81"/><linearGradient id="Degradado_sin_nombre_81-19" x1="92.51" y1="469.93" x2="154.68" y2="588.49" xlink:href="#Degradado_sin_nombre_81"/><linearGradient id="Degradado_sin_nombre_81-20" x1="91.36" y1="470.97" x2="153.38" y2="589.23" xlink:href="#Degradado_sin_nombre_81"/><linearGradient id="Degradado_sin_nombre_81-21" x1="90.26" y1="471.97" x2="152.13" y2="589.95" xlink:href="#Degradado_sin_nombre_81"/><linearGradient id="Degradado_sin_nombre_81-22" x1="89.13" y1="472.99" x2="150.86" y2="590.69" xlink:href="#Degradado_sin_nombre_81"/><linearGradient id="Degradado_sin_nombre_81-23" x1="88" y1="474.01" x2="149.57" y2="591.42" xlink:href="#Degradado_sin_nombre_81"/><linearGradient id="Degradado_sin_nombre_81-24" x1="86.88" y1="475.03" x2="148.3" y2="592.15" xlink:href="#Degradado_sin_nombre_81"/><linearGradient id="Degradado_sin_nombre_82-2" x1="120.93" y1="630.43" x2="153.6" y2="494.11" xlink:href="#Degradado_sin_nombre_82"/><radialGradient id="Degradado_sin_nombre_86-2" cx="135.55" cy="542.14" r="69.01" xlink:href="#Degradado_sin_nombre_86"/><linearGradient id="Degradado_sin_nombre_84" x1="-124.86" y1="386.62" x2="219.05" y2="631.16" gradientTransform="translate(0 -464)" gradientUnits="userSpaceOnUse"><stop offset="0.04" stop-color="#9f19ab"/><stop offset="0.24" stop-color="#ae25b1"/><stop offset="0.65" stop-color="#d744bf"/><stop offset="1" stop-color="#ff63ce"/></linearGradient><radialGradient id="Degradado_sin_nombre_86-3" cx="189.22" cy="579.69" r="16.99" xlink:href="#Degradado_sin_nombre_86"/><radialGradient id="Degradado_sin_nombre_86-4" cx="6.86" cy="482.39" r="15.2" xlink:href="#Degradado_sin_nombre_86"/><linearGradient id="Degradado_sin_nombre_90" x1="123.95" y1="604.49" x2="153.53" y2="544.34" gradientTransform="translate(0 -464)" gradientUnits="userSpaceOnUse"><stop offset="0.04" stop-color="#ffa98c"/><stop offset="0.32" stop-color="#ffb892"/><stop offset="0.86" stop-color="#fee1a3"/><stop offset="1" stop-color="#feeca8"/></linearGradient><linearGradient id="Degradado_sin_nombre_90-2" x1="115.76" y1="600.46" x2="145.34" y2="540.31" xlink:href="#Degradado_sin_nombre_90"/><linearGradient id="Degradado_sin_nombre_90-3" x1="101.01" y1="593.2" x2="130.59" y2="533.05" xlink:href="#Degradado_sin_nombre_90"/><linearGradient id="Degradado_sin_nombre_90-4" x1="39.5" y1="562.95" x2="69.08" y2="502.8" xlink:href="#Degradado_sin_nombre_90"/></defs><g id="Capa_2" data-name="Capa 2"><g id="Capa_1-2" data-name="Capa 1"><g class="cls-1"><path class="cls-2" d="M46.3,1.47c-5.9-3.4-10.8-.7-10.8,6.1v46.2c0,6.8,4.8,15.1,10.8,18.6l50.2,28.9c5.9,3.4,13.2.3,13.2-6.5V48.57c0-6.8-7.2-14.8-13.2-18.2Z"/><path class="cls-3" d="M45.1,2.47c-6-3.4-10.8-.7-10.8,6.2v45.7c0,6.8,4.8,15.2,10.8,18.6l50.3,28.9c6,3.4,13,.3,13-6.5V49.67c0-6.8-7-14.8-13-18.3Z"/><path class="cls-4" d="M43.9,3.37c-6-3.5-10.8-.7-10.8,6.2v45.3c0,6.9,4.9,15.2,10.8,18.7l50.3,29c6,3.5,12.8.4,12.8-6.5V50.77c0-6.9-6.8-14.9-12.8-18.4Z"/><path class="cls-5" d="M42.7,4.27c-6-3.5-10.9-.7-10.9,6.2v44.8c0,6.9,4.9,15.3,10.9,18.8l50.3,29c6,3.5,12.6.4,12.6-6.5V51.77c0-6.9-6.6-15-12.6-18.5Z"/><path class="cls-6" d="M41.5,5.27c-6-3.5-10.9-.7-10.9,6.2v44.4c0,6.9,4.9,15.3,10.9,18.8l50.4,29c6,3.5,12.4.5,12.4-6.5V52.77c0-6.9-6.4-15.1-12.4-18.6Z"/><path class="cls-7" d="M40.3,6.17c-6-3.5-10.9-.7-10.9,6.2v44c0,6.9,4.9,15.4,10.9,18.9l50.4,29c6,3.5,12.2.5,12.2-6.4v-44c0-6.9-6.2-15.2-12.2-18.7Z"/><path class="cls-8" d="M39.1,7.17c-6.1-3.5-11-.7-11,6.3V57c0,7,4.9,15.4,11,18.9l50.5,29c6.1,3.5,12.1.5,12.1-6.4V55c0-7-6-15.3-12.1-18.8Z"/><path class="cls-9" d="M37.9,8.07c-6.1-3.5-11-.7-11,6.3v43.1c0,7,4.9,15.5,11,19l50.5,29.1c6.1,3.5,11.9.6,11.9-6.4V56.07c0-7-5.8-15.3-11.9-18.8Z"/><path class="cls-10" d="M36.7,9.07c-6.1-3.5-11-.7-11,6.3v42.7c0,7,4.9,15.5,11,19l50.5,29.1c6.1,3.5,11.7.6,11.7-6.4V57.07c0-7-5.6-15.4-11.7-18.9Z"/><path class="cls-11" d="M35.5,10c-6.1-3.5-11.1-.7-11.1,6.3v42.2c0,7,5,15.6,11.1,19.1l50.6,29.1c6.1,3.5,11.5.6,11.5-6.4V58.07c0-7-5.4-15.5-11.5-19Z"/><path class="cls-12" d="M34.3,10.87c-6.1-3.5-11.1-.7-11.1,6.3V59c0,7,5,15.6,11.1,19.2l50.6,29.1c6.1,3.5,11.3.7,11.3-6.4V59.07c0-7-5.2-15.6-11.3-19.1Z"/><path class="cls-13" d="M33.2,11.87c-6.2-3.6-11.1-.7-11.1,6.4v41.4c0,7.1,5,15.7,11.1,19.2l50.7,29.2c6.2,3.6,11.1.7,11.1-6.4V60.27c0-7.1-5-15.7-11.1-19.2Z"/></g><path class="cls-14" d="M32.8,9.77c-6.2-3.6-11.2-.7-11.2,6.4v47.7c0,7.1,5,15.7,11.2,19.3l50.9,29.3c6.2,3.6,11.2.7,11.2-6.4V58.37c0-7.1-5-15.7-11.2-19.3Z"/><path class="cls-15" d="M83.8,39.07,32.9,9.77c-6.2-3.6-11.2-.7-11.2,6.4v1.1c0-7.1,5-9.9,11.2-6.4l50.9,29.3C90,43.77,95,52.37,95,59.47v-1.1C94.9,51.27,89.9,42.57,83.8,39.07Z"/><g class="cls-1"><path class="cls-16" d="M123.5,45.77c-5.9-3.4-10.8-.7-10.8,6.1v46.2c0,6.8,4.8,15.1,10.8,18.6l50.2,28.9c5.9,3.4,13.2.3,13.2-6.5V92.87c0-6.8-7.2-14.8-13.2-18.2Z"/><path class="cls-17" d="M122.3,46.77c-6-3.4-10.8-.7-10.8,6.2v45.7c0,6.8,4.8,15.2,10.8,18.6l50.3,28.9c6,3.4,13,.3,13-6.5V94c0-6.8-7-14.8-13-18.3Z"/><path class="cls-18" d="M121.1,47.67c-6-3.5-10.8-.7-10.8,6.2v45.3c0,6.9,4.9,15.2,10.8,18.7l50.3,29c6,3.5,12.8.4,12.8-6.5V95.07c0-6.9-6.8-14.9-12.8-18.4Z"/><path class="cls-19" d="M120,48.57c-6-3.5-10.9-.7-10.9,6.2v44.8c0,6.9,4.9,15.3,10.9,18.8l50.3,29c6,3.5,12.6.4,12.6-6.5V96.07c0-6.9-6.6-15-12.6-18.5Z"/><path class="cls-20" d="M118.8,49.57c-6-3.5-10.9-.7-10.9,6.2v44.4c0,6.9,4.9,15.3,10.9,18.8l50.4,29c6,3.5,12.4.5,12.4-6.5V97.07c0-6.9-6.4-15.1-12.4-18.6Z"/><path class="cls-21" d="M117.6,50.47c-6-3.5-10.9-.7-10.9,6.2v44c0,6.9,4.9,15.4,10.9,18.9l50.4,29c6,3.5,12.2.5,12.2-6.4v-44c0-6.9-6.2-15.2-12.2-18.7Z"/><path class="cls-22" d="M116.4,51.47c-6.1-3.5-11-.7-11,6.3v43.5c0,7,4.9,15.4,11,18.9l50.5,29c6.1,3.5,12.1.5,12.1-6.4V99.27c0-7-6-15.3-12.1-18.8Z"/><path class="cls-23" d="M115.2,52.37c-6.1-3.5-11-.7-11,6.3v43.1c0,7,4.9,15.5,11,19l50.5,29.1c6.1,3.5,11.9.6,11.9-6.4v-43.1c0-7-5.8-15.3-11.9-18.8Z"/><path class="cls-24" d="M114,53.27c-6.1-3.5-11-.7-11,6.3v42.7c0,7,4.9,15.5,11,19l50.5,29.1c6.1,3.5,11.7.6,11.7-6.4v-42.7c0-7-5.6-15.4-11.7-18.9Z"/><path class="cls-25" d="M112.8,54.27c-6.1-3.5-11.1-.7-11.1,6.3v42.2c0,7,5,15.6,11.1,19.1L163.4,151c6.1,3.5,11.5.6,11.5-6.4v-42.2c0-7-5.4-15.5-11.5-19Z"/><path class="cls-26" d="M111.6,55.17c-6.1-3.5-11.1-.7-11.1,6.3v41.8c0,7,5,15.6,11.1,19.2l50.6,29.1c6.1,3.5,11.3.7,11.3-6.4v-41.7c0-7-5.2-15.6-11.3-19.1Z"/><path class="cls-27" d="M110.4,56.17c-6.2-3.6-11.1-.7-11.1,6.4V104c0,7.1,5,15.7,11.1,19.2l50.7,29.2c6.2,3.6,11.1.7,11.1-6.4v-41.5c0-7.1-5-15.7-11.1-19.2Z"/></g><path class="cls-28" d="M110.1,54.07c-6.2-3.6-11.2-.7-11.2,6.4v47.7c0,7.1,5,15.7,11.2,19.3l50.9,29.3c6.2,3.6,11.2.7,11.2-6.4v-47.7c0-7.1-5-15.7-11.2-19.3Z"/><path class="cls-29" d="M161,83.37l-50.9-29.3c-6.2-3.6-11.2-.7-11.2,6.4v1.1c0-7.1,5-9.9,11.2-6.4L161,84.47c6.2,3.6,11.2,12.2,11.2,19.3v-1.1C172.2,95.57,167.2,86.87,161,83.37Z"/><path class="cls-30" d="M177.9,108v30.5l16.5-5.7ZM16.5,53.07V22.57L0,28.27Z"/><polygon class="cls-31" points="194.4 132.77 177.9 107.97 177.9 110.57 193 133.27 194.4 132.77"/><polygon class="cls-32" points="1.4 29.17 16.5 23.87 16.5 22.57 0 28.27 1.4 29.17"/><path class="cls-33" d="M153.7,114.17l-9.4,2.2v-2.7c0-3.5-2.2-7.7-4.8-9.2l-18.6-10.7c-2.7-1.5-4.8.1-4.8,3.6v11.4c0,3.5,2.2,7.7,4.8,9.2l18.6,10.7c2.7,1.5,4.8-.1,4.8-3.6v-2.7l9.4,13c1,1.4,2.4,1.4,2.4,0v-18.3C156.1,115.57,154.7,114,153.7,114.17Z"/><path class="cls-34" d="M137.1,101.57c4.1,2.4,7.4.5,7.4-4.2a16.38,16.38,0,0,0-7.4-12.8c-4.1-2.4-7.4-.5-7.4,4.2A16.38,16.38,0,0,0,137.1,101.57Z"/><path class="cls-35" d="M122.2,93c3.3,1.9,6,.4,6-3.4a13.15,13.15,0,0,0-6-10.3c-3.3-1.9-6-.4-6,3.4A13.15,13.15,0,0,0,122.2,93Z"/><path class="cls-36" d="M62.4,59.77c-3.4-1.9-6.1-.4-6.1,3.5a13.2,13.2,0,0,0,6.1,10.5c3.4,1.9,6.1.4,6.1-3.5A13.46,13.46,0,0,0,62.4,59.77Zm8.2-4.2-1-3.1a3.85,3.85,0,0,0-1.6-2.1l-11.2-6.5c-.7-.4-1.3-.3-1.6.3l-1,1.9c-.3.6-.9.7-1.6.3l-15-8.7c-1-.6-1.8-.1-1.8,1v25.1a4,4,0,0,0,1.8,3.1l38.7,22.4c1,.6,1.8.1,1.8-1V63.17a4,4,0,0,0-1.8-3.1l-4-2.3A4.14,4.14,0,0,1,70.6,55.57Zm-28.5-5.4a4.89,4.89,0,0,1-2.2-3.8c0-1.4,1-2,2.2-1.3a4.89,4.89,0,0,1,2.2,3.8C44.3,50.27,43.3,50.87,42.1,50.17Zm15.3-2.8,10,5.8.7,2.2-11.5-6.6Zm5,28.8c-4.5-2.6-8.2-9-8.2-14.2s3.7-7.3,8.2-4.7,8.2,9,8.2,14.2S66.9,78.77,62.4,76.17Z"/></g></g></svg>