<svg xmlns="http://www.w3.org/2000/svg" xmlns:xlink="http://www.w3.org/1999/xlink" viewBox="0 0 263.1 299.8"><defs><style>.cls-1{fill:#a56ef4;}.cls-2{fill:url(#Degradado_sin_nombre_198);}.cls-3{opacity:0.78;}.cls-10,.cls-12,.cls-14,.cls-16,.cls-18,.cls-20,.cls-22,.cls-24,.cls-28,.cls-29,.cls-30,.cls-31,.cls-32,.cls-33,.cls-34,.cls-35,.cls-36,.cls-37,.cls-38,.cls-4,.cls-41,.cls-42,.cls-43,.cls-44,.cls-45,.cls-46,.cls-47,.cls-48,.cls-49,.cls-50,.cls-51,.cls-6,.cls-8{isolation:isolate;}.cls-28,.cls-4,.cls-41{opacity:0.5;}.cls-4{fill:url(#Degradado_sin_nombre_44);}.cls-5{opacity:0.8;}.cls-29,.cls-42,.cls-6{opacity:0.55;}.cls-6{fill:url(#Degradado_sin_nombre_45);}.cls-7{opacity:0.82;}.cls-30,.cls-43,.cls-8{opacity:0.59;}.cls-8{fill:url(#Degradado_sin_nombre_46);}.cls-9{opacity:0.84;}.cls-10,.cls-31,.cls-44{opacity:0.64;}.cls-10{fill:url(#Degradado_sin_nombre_47);}.cls-11{opacity:0.86;}.cls-12,.cls-32,.cls-45{opacity:0.68;}.cls-12{fill:url(#Degradado_sin_nombre_48);}.cls-13{opacity:0.88;}.cls-14,.cls-33,.cls-46{opacity:0.73;}.cls-14{fill:url(#Degradado_sin_nombre_49);}.cls-15{opacity:0.9;}.cls-16,.cls-34,.cls-47{opacity:0.77;}.cls-16{fill:url(#Degradado_sin_nombre_50);}.cls-17{opacity:0.92;}.cls-18,.cls-35,.cls-48{opacity:0.82;}.cls-18{fill:url(#Degradado_sin_nombre_51);}.cls-19{opacity:0.94;}.cls-20,.cls-36,.cls-49{opacity:0.86;}.cls-20{fill:url(#Degradado_sin_nombre_52);}.cls-21{opacity:0.96;}.cls-22,.cls-37,.cls-50{opacity:0.91;}.cls-22{fill:url(#Degradado_sin_nombre_53);}.cls-23{opacity:0.98;}.cls-24,.cls-38,.cls-51{opacity:0.95;}.cls-24{fill:url(#Degradado_sin_nombre_54);}.cls-25{fill:url(#Degradado_sin_nombre_55);}.cls-26{fill:#fff;}.cls-27{fill:url(#Degradado_sin_nombre_198-2);}.cls-28{fill:url(#Degradado_sin_nombre_44-2);}.cls-29{fill:url(#Degradado_sin_nombre_45-2);}.cls-30{fill:url(#Degradado_sin_nombre_46-2);}.cls-31{fill:url(#Degradado_sin_nombre_47-2);}.cls-32{fill:url(#Degradado_sin_nombre_48-2);}.cls-33{fill:url(#Degradado_sin_nombre_49-2);}.cls-34{fill:url(#Degradado_sin_nombre_50-2);}.cls-35{fill:url(#Degradado_sin_nombre_51-2);}.cls-36{fill:url(#Degradado_sin_nombre_52-2);}.cls-37{fill:url(#Degradado_sin_nombre_53-2);}.cls-38{fill:url(#Degradado_sin_nombre_54-2);}.cls-39{fill:url(#Degradado_sin_nombre_55-2);}.cls-40{fill:url(#Degradado_sin_nombre_198-3);}.cls-41{fill:url(#Degradado_sin_nombre_44-3);}.cls-42{fill:url(#Degradado_sin_nombre_45-3);}.cls-43{fill:url(#Degradado_sin_nombre_46-3);}.cls-44{fill:url(#Degradado_sin_nombre_47-3);}.cls-45{fill:url(#Degradado_sin_nombre_48-3);}.cls-46{fill:url(#Degradado_sin_nombre_49-3);}.cls-47{fill:url(#Degradado_sin_nombre_50-3);}.cls-48{fill:url(#Degradado_sin_nombre_51-3);}.cls-49{fill:url(#Degradado_sin_nombre_52-3);}.cls-50{fill:url(#Degradado_sin_nombre_53-3);}.cls-51{fill:url(#Degradado_sin_nombre_54-3);}.cls-52{fill:url(#Degradado_sin_nombre_55-3);}</style><linearGradient id="Degradado_sin_nombre_198" x1="177.74" y1="730.6" x2="254.49" y2="685.56" gradientTransform="translate(0 -464)" gradientUnits="userSpaceOnUse"><stop offset="0" stop-color="#dc3daa"/><stop offset="1" stop-opacity="0"/></linearGradient><linearGradient id="Degradado_sin_nombre_44" x1="244.06" y1="691.28" x2="182.18" y2="727.28" gradientTransform="translate(0 -464)" gradientUnits="userSpaceOnUse"><stop offset="0.04" stop-color="#7c25cc"/><stop offset="0.3" stop-color="#8b24ca"/><stop offset="0.82" stop-color="#b420c4"/><stop offset="0.98" stop-color="#c21fc2"/><stop offset="1" stop-color="#c21fc3"/></linearGradient><linearGradient id="Degradado_sin_nombre_45" x1="235.92" y1="684.62" x2="189.27" y2="733.9" gradientTransform="translate(0 -464)" gradientUnits="userSpaceOnUse"><stop offset="0.04" stop-color="#7f24c9"/><stop offset="0.3" stop-color="#8e24c8"/><stop offset="0.8" stop-color="#b725c4"/><stop offset="0.98" stop-color="#c725c3"/><stop offset="1" stop-color="#c825c4"/></linearGradient><linearGradient id="Degradado_sin_nombre_46" x1="227.45" y1="678.9" x2="196.52" y2="739.49" gradientTransform="translate(0 -464)" gradientUnits="userSpaceOnUse"><stop offset="0.04" stop-color="#8223c6"/><stop offset="0.29" stop-color="#9125c6"/><stop offset="0.77" stop-color="#ba29c5"/><stop offset="0.98" stop-color="#cd2bc4"/><stop offset="1" stop-color="#cd2bc5"/></linearGradient><linearGradient id="Degradado_sin_nombre_47" x1="219.97" y1="663.52" x2="202.91" y2="754.12" gradientTransform="translate(0 -464)" gradientUnits="userSpaceOnUse"><stop offset="0.04" stop-color="#8622c3"/><stop offset="0.28" stop-color="#9525c3"/><stop offset="0.77" stop-color="#be2dc4"/><stop offset="0.98" stop-color="#d231c5"/><stop offset="1" stop-color="#d332c6"/></linearGradient><linearGradient id="Degradado_sin_nombre_48" x1="205.17" y1="653.79" x2="216.15" y2="763.43" gradientTransform="translate(0 -464)" gradientUnits="userSpaceOnUse"><stop offset="0.04" stop-color="#8921c0"/><stop offset="0.28" stop-color="#9825c1"/><stop offset="0.75" stop-color="#c131c4"/><stop offset="0.98" stop-color="#d737c6"/><stop offset="1" stop-color="#d838c7"/></linearGradient><linearGradient id="Degradado_sin_nombre_49" x1="187.01" y1="653.04" x2="232.24" y2="764.4" gradientTransform="translate(0 -464)" gradientUnits="userSpaceOnUse"><stop offset="0.04" stop-color="#8c20bd"/><stop offset="0.27" stop-color="#9b26bf"/><stop offset="0.73" stop-color="#c434c4"/><stop offset="0.98" stop-color="#dd3dc7"/><stop offset="1" stop-color="#de3ec8"/></linearGradient><linearGradient id="Degradado_sin_nombre_50" x1="171.04" y1="661.65" x2="246.49" y2="756.56" gradientTransform="translate(0 -464)" gradientUnits="userSpaceOnUse"><stop offset="0.04" stop-color="#8f1eba"/><stop offset="0.27" stop-color="#9e25bd"/><stop offset="0.71" stop-color="#c737c3"/><stop offset="0.98" stop-color="#e244c8"/><stop offset="1" stop-color="#e344c9"/></linearGradient><linearGradient id="Degradado_sin_nombre_51" x1="161.7" y1="677.17" x2="254.42" y2="742.4" gradientTransform="translate(0 -464)" gradientUnits="userSpaceOnUse"><stop offset="0.04" stop-color="#921db7"/><stop offset="0.26" stop-color="#a125ba"/><stop offset="0.69" stop-color="#ca3ac3"/><stop offset="0.98" stop-color="#e84ac9"/><stop offset="1" stop-color="#e94aca"/></linearGradient><linearGradient id="Degradado_sin_nombre_52" x1="161.6" y1="694.9" x2="253.8" y2="726.2" gradientTransform="translate(0 -464)" gradientUnits="userSpaceOnUse"><stop offset="0.04" stop-color="#951cb4"/><stop offset="0.26" stop-color="#a425b8"/><stop offset="0.68" stop-color="#cd3dc2"/><stop offset="0.98" stop-color="#ed50ca"/><stop offset="1" stop-color="#ee50cb"/></linearGradient><linearGradient id="Degradado_sin_nombre_53" x1="170.18" y1="709.74" x2="245.11" y2="712.83" gradientTransform="translate(0 -464)" gradientUnits="userSpaceOnUse"><stop offset="0.04" stop-color="#991bb1"/><stop offset="0.25" stop-color="#a825b6"/><stop offset="0.68" stop-color="#d140c1"/><stop offset="0.98" stop-color="#f256cb"/><stop offset="1" stop-color="#f457cc"/></linearGradient><linearGradient id="Degradado_sin_nombre_54" x1="172.78" y1="720.53" x2="242" y2="703.24" gradientTransform="translate(0 -464)" gradientUnits="userSpaceOnUse"><stop offset="0.04" stop-color="#9c1aae"/><stop offset="0.25" stop-color="#ab25b3"/><stop offset="0.66" stop-color="#d442c0"/><stop offset="0.98" stop-color="#f85ccc"/><stop offset="1" stop-color="#f95dcd"/></linearGradient><linearGradient id="Degradado_sin_nombre_55" x1="177.37" y1="729.88" x2="237.03" y2="694.87" gradientTransform="translate(0 -464)" gradientUnits="userSpaceOnUse"><stop offset="0.04" stop-color="#9f19ab"/><stop offset="0.24" stop-color="#ae25b1"/><stop offset="0.65" stop-color="#d744bf"/><stop offset="1" stop-color="#ff63ce"/></linearGradient><linearGradient id="Degradado_sin_nombre_198-2" x1="177.78" y1="642.57" x2="254.53" y2="597.54" xlink:href="#Degradado_sin_nombre_198"/><linearGradient id="Degradado_sin_nombre_44-2" x1="244.05" y1="603.19" x2="182.18" y2="639.18" xlink:href="#Degradado_sin_nombre_44"/><linearGradient id="Degradado_sin_nombre_45-2" x1="235.91" y1="596.53" x2="189.26" y2="645.8" xlink:href="#Degradado_sin_nombre_45"/><linearGradient id="Degradado_sin_nombre_46-2" x1="227.45" y1="590.81" x2="196.52" y2="651.4" xlink:href="#Degradado_sin_nombre_46"/><linearGradient id="Degradado_sin_nombre_47-2" x1="219.97" y1="575.43" x2="202.9" y2="666.04" xlink:href="#Degradado_sin_nombre_47"/><linearGradient id="Degradado_sin_nombre_48-2" x1="205.17" y1="565.7" x2="216.15" y2="675.34" xlink:href="#Degradado_sin_nombre_48"/><linearGradient id="Degradado_sin_nombre_49-2" x1="187.02" y1="564.95" x2="232.24" y2="676.31" xlink:href="#Degradado_sin_nombre_49"/><linearGradient id="Degradado_sin_nombre_50-2" x1="171.04" y1="573.55" x2="246.5" y2="668.46" xlink:href="#Degradado_sin_nombre_50"/><linearGradient id="Degradado_sin_nombre_51-2" x1="161.71" y1="589.07" x2="254.42" y2="654.31" xlink:href="#Degradado_sin_nombre_51"/><linearGradient id="Degradado_sin_nombre_52-2" x1="161.57" y1="606.89" x2="253.77" y2="638.19" xlink:href="#Degradado_sin_nombre_52"/><linearGradient id="Degradado_sin_nombre_53-2" x1="170.18" y1="621.64" x2="245.11" y2="624.73" xlink:href="#Degradado_sin_nombre_53"/><linearGradient id="Degradado_sin_nombre_54-2" x1="172.78" y1="632.43" x2="242" y2="615.14" xlink:href="#Degradado_sin_nombre_54"/><linearGradient id="Degradado_sin_nombre_55-2" x1="177.37" y1="641.78" x2="237.03" y2="606.78" xlink:href="#Degradado_sin_nombre_55"/><linearGradient id="Degradado_sin_nombre_198-3" x1="5.49" y1="543.87" x2="82.24" y2="498.83" xlink:href="#Degradado_sin_nombre_198"/><linearGradient id="Degradado_sin_nombre_44-3" x1="71.83" y1="504.6" x2="9.96" y2="540.59" xlink:href="#Degradado_sin_nombre_44"/><linearGradient id="Degradado_sin_nombre_45-3" x1="63.65" y1="497.89" x2="17" y2="547.17" xlink:href="#Degradado_sin_nombre_45"/><linearGradient id="Degradado_sin_nombre_46-3" x1="55.24" y1="492.22" x2="24.31" y2="552.8" xlink:href="#Degradado_sin_nombre_46"/><linearGradient id="Degradado_sin_nombre_47-3" x1="47.77" y1="476.83" x2="30.7" y2="567.43" xlink:href="#Degradado_sin_nombre_47"/><linearGradient id="Degradado_sin_nombre_48-3" x1="32.87" y1="467.1" x2="43.85" y2="576.74" xlink:href="#Degradado_sin_nombre_48"/><linearGradient id="Degradado_sin_nombre_49-3" x1="14.85" y1="466.31" x2="60.04" y2="577.59" xlink:href="#Degradado_sin_nombre_49"/><linearGradient id="Degradado_sin_nombre_50-3" x1="-1.18" y1="474.93" x2="74.28" y2="569.84" xlink:href="#Degradado_sin_nombre_50"/><linearGradient id="Degradado_sin_nombre_51-3" x1="-10.55" y1="490.5" x2="82.16" y2="555.73" xlink:href="#Degradado_sin_nombre_51"/><linearGradient id="Degradado_sin_nombre_52-3" x1="-10.63" y1="508.19" x2="81.57" y2="539.49" xlink:href="#Degradado_sin_nombre_52"/><linearGradient id="Degradado_sin_nombre_53-3" x1="-2.05" y1="523.04" x2="72.87" y2="526.13" xlink:href="#Degradado_sin_nombre_53"/><linearGradient id="Degradado_sin_nombre_54-3" x1="0.55" y1="533.83" x2="69.77" y2="516.55" xlink:href="#Degradado_sin_nombre_54"/><linearGradient id="Degradado_sin_nombre_55-3" x1="5.15" y1="543.21" x2="64.81" y2="508.21" xlink:href="#Degradado_sin_nombre_55"/></defs><g id="Capa_2" data-name="Capa 2"><g id="Capa_1-2" data-name="Capa 1"><g id="Icons"><path class="cls-1" d="M201.8,188.29c-6.1-3.5-11-.7-11,6.3v47.1c0,7,4.9,15.5,11,19l50.3,28.9c6.1,3.5,11,.7,11-6.3v-47.1c0-7-4.9-15.5-11-19Z"/><path class="cls-2" d="M201.8,188.19a9.47,9.47,0,0,0-6.2-1.4c-.6.1-19.6,8.8-20.1,9.1-2,1.1-3.2,3.6-3.2,7.1v47.1c0,7,4.9,15.5,11,19L233.6,298a9.4,9.4,0,0,0,5.7,1.5c.5-.1,19.5-8.7,20-8.8,2.4-1,3.8-3.5,3.8-7.4v-47.1c0-7-4.9-15.5-11-19Z"/><g class="cls-3"><path class="cls-4" d="M187,195.19c-6.1-3.5-11-.7-11,6.3v47.1c0,7,4.9,15.5,11,19l50.3,28.9c6.1,3.5,11,.7,11-6.3v-47.1c0-7-4.9-15.5-11-19Z"/></g><g class="cls-5"><path class="cls-6" d="M186.7,195.39c-6.1-3.5-11-.7-11,6.3v47.1c0,7,4.9,15.5,11,19l50.3,28.9c6.1,3.5,11,.7,11-6.3v-47.1c0-7-4.9-15.5-11-19Z"/></g><g class="cls-7"><path class="cls-8" d="M186.3,195.59c-6.1-3.5-11-.7-11,6.3V249c0,7,4.9,15.5,11,19l50.3,28.9c6.1,3.5,11,.7,11-6.3v-47.1c0-7-4.9-15.5-11-19Z"/></g><g class="cls-9"><path class="cls-10" d="M186,195.69c-6.1-3.5-11-.7-11,6.3v47.1c0,7,4.9,15.5,11,19L236.3,297c6.1,3.5,11,.7,11-6.3v-47c0-7-4.9-15.5-11-19Z"/></g><g class="cls-11"><path class="cls-12" d="M185.7,195.89c-6.1-3.5-11-.7-11,6.3v47.1c0,7,4.9,15.5,11,19l50.3,28.9c6.1,3.5,11,.7,11-6.3v-47.1c0-7-4.9-15.5-11-19Z"/></g><g class="cls-13"><path class="cls-14" d="M185.3,196.09c-6.1-3.5-11-.7-11,6.3v47.1c0,7,4.9,15.5,11,19l50.3,28.9c6.1,3.5,11,.7,11-6.3V244c0-7-4.9-15.5-11-19Z"/></g><g class="cls-15"><path class="cls-16" d="M185,196.19c-6.1-3.5-11-.7-11,6.3v47.1c0,7,4.9,15.5,11,19l50.3,28.9c6.1,3.5,11,.7,11-6.3v-47.1c0-7-4.9-15.5-11-19Z"/></g><g class="cls-17"><path class="cls-18" d="M184.7,196.39c-6.1-3.5-11-.7-11,6.3v47.1c0,7,4.9,15.5,11,19l50.3,28.9c6.1,3.5,11,.7,11-6.3v-47.1c0-7-4.9-15.5-11-19Z"/></g><g class="cls-19"><path class="cls-20" d="M184.3,196.49c-6.1-3.5-11-.7-11,6.3v47.1c0,7,4.9,15.5,11,19l50.3,28.9c6.1,3.5,11,.7,11-6.3v-47.1c0-7-4.9-15.5-11-19Z"/></g><g class="cls-21"><path class="cls-22" d="M184,196.69c-6.1-3.5-11-.7-11,6.3v47.1c0,7,4.9,15.5,11,19L234.3,298c6.1,3.5,11,.7,11-6.3v-47c0-7-4.9-15.5-11-19Z"/></g><g class="cls-23"><path class="cls-24" d="M183.6,196.89c-6.1-3.5-11-.7-11,6.3v47.1c0,7,4.9,15.5,11,19l50.3,28.9c6.1,3.5,11,.7,11-6.3v-47.1c0-7-4.9-15.5-11-19Z"/></g><path class="cls-25" d="M183.3,197c-6.1-3.5-11-.7-11,6.3v47.1c0,7,4.9,15.5,11,19l50.3,28.9c6.1,3.5,11,.7,11-6.3v-47.1c0-7-4.9-15.5-11-19Z"/><path class="cls-26" d="M188,260.89l7.9,4.6c.7.4,1.3.1,1.3-.7v-17.7a2.85,2.85,0,0,0-1.3-2.2l-7.9-4.6c-.7-.4-1.3-.1-1.3.7v17.7A3,3,0,0,0,188,260.89Zm14.2,8.1,7.9,4.6c.7.4,1.3.1,1.3-.7v-34.8a2.85,2.85,0,0,0-1.3-2.2l-7.9-4.6c-.7-.4-1.3-.1-1.3.7v34.8A2.7,2.7,0,0,0,202.2,269Zm12.9-45.9V275a2.85,2.85,0,0,0,1.3,2.2l7.9,4.6c.7.4,1.3.1,1.3-.7v-51.9a2.85,2.85,0,0,0-1.3-2.2l-7.9-4.6C215.7,222,215.1,222.29,215.1,223.09Z"/><path class="cls-1" d="M201.8,100.19c-6.1-3.5-11-.7-11,6.3v47.1c0,7,4.9,15.5,11,19l50.3,28.9c6.1,3.5,11,.7,11-6.3v-47.1c0-7-4.9-15.5-11-19Z"/><path class="cls-27" d="M201.8,100.19a9.47,9.47,0,0,0-6.2-1.4c-.6.1-19.6,8.8-20.1,9.1-2,1.1-3.2,3.6-3.2,7.1v47.1c0,7,4.9,15.5,11,19L233.6,210a9.4,9.4,0,0,0,5.7,1.5c.5-.1,19.5-8.7,20-8.8,2.4-1,3.8-3.5,3.8-7.4v-47.1c0-7-4.9-15.5-11-19Z"/><g class="cls-3"><path class="cls-28" d="M187,107.09c-6.1-3.5-11-.7-11,6.3v47.1c0,7,4.9,15.5,11,19l50.3,28.9c6.1,3.5,11,.7,11-6.3V155c0-7-4.9-15.5-11-19Z"/></g><g class="cls-5"><path class="cls-29" d="M186.7,107.29c-6.1-3.5-11-.7-11,6.3v47.1c0,7,4.9,15.5,11,19l50.3,28.9c6.1,3.5,11,.7,11-6.3v-47.1c0-7-4.9-15.5-11-19Z"/></g><g class="cls-7"><path class="cls-30" d="M186.3,107.49c-6.1-3.5-11-.7-11,6.3v47.1c0,7,4.9,15.5,11,19l50.3,28.9c6.1,3.5,11,.7,11-6.3v-47.1c0-7-4.9-15.5-11-19Z"/></g><g class="cls-9"><path class="cls-31" d="M186,107.59c-6.1-3.5-11-.7-11,6.3V161c0,7,4.9,15.5,11,19l50.3,28.9c6.1,3.5,11,.7,11-6.3v-47.1c0-7-4.9-15.5-11-19Z"/></g><g class="cls-11"><path class="cls-32" d="M185.7,107.79c-6.1-3.5-11-.7-11,6.3v47.1c0,7,4.9,15.5,11,19l50.3,28.9c6.1,3.5,11,.7,11-6.3v-47.1c0-7-4.9-15.5-11-19Z"/></g><g class="cls-13"><path class="cls-33" d="M185.3,108c-6.1-3.5-11-.7-11,6.3v47.1c0,7,4.9,15.5,11,19l50.3,28.9c6.1,3.5,11,.7,11-6.3v-47.1c0-7-4.9-15.5-11-19Z"/></g><g class="cls-15"><path class="cls-34" d="M185,108.09c-6.1-3.5-11-.7-11,6.3v47.1c0,7,4.9,15.5,11,19l50.3,28.9c6.1,3.5,11,.7,11-6.3V156c0-7-4.9-15.5-11-19Z"/></g><g class="cls-17"><path class="cls-35" d="M184.7,108.29c-6.1-3.5-11-.7-11,6.3v47.1c0,7,4.9,15.5,11,19l50.3,28.9c6.1,3.5,11,.7,11-6.3v-47.1c0-7-4.9-15.5-11-19Z"/></g><g class="cls-19"><path class="cls-36" d="M184.3,108.49c-6.1-3.5-11-.7-11,6.3v47.1c0,7,4.9,15.5,11,19l50.3,28.9c6.1,3.5,11,.7,11-6.3v-47.1c0-7-4.9-15.5-11-19Z"/></g><g class="cls-21"><path class="cls-37" d="M184,108.59c-6.1-3.5-11-.7-11,6.3V162c0,7,4.9,15.5,11,19l50.3,28.9c6.1,3.5,11,.7,11-6.3v-47.1c0-7-4.9-15.5-11-19Z"/></g><g class="cls-23"><path class="cls-38" d="M183.6,108.79c-6.1-3.5-11-.7-11,6.3v47.1c0,7,4.9,15.5,11,19l50.3,28.9c6.1,3.5,11,.7,11-6.3v-47.1c0-7-4.9-15.5-11-19Z"/></g><path class="cls-39" d="M183.3,108.89c-6.1-3.5-11-.7-11,6.3v47.1c0,7,4.9,15.5,11,19l50.3,28.9c6.1,3.5,11,.7,11-6.3v-47.1c0-7-4.9-15.5-11-19Z"/><path class="cls-26" d="M186.6,124.69v42.6l47.8,27.6v-42.6Zm44.8,64.9-41.7-24.1V130l41.7,24.1ZM218,157.49l-7.5,10-5.9-7.4-11.9,3.7,35.6,20.5ZM201.7,154c2.6,1.5,4.8.3,4.8-2.7a10.32,10.32,0,0,0-4.8-8.2c-2.6-1.5-4.8-.3-4.8,2.7A10.59,10.59,0,0,0,201.7,154Z"/><path class="cls-1" d="M29.6,1.59c-6.1-3.5-11-.7-11,6.3V55c0,7,4.9,15.5,11,19l50.3,28.9c6.1,3.5,11,.7,11-6.3V49.49c0-7-4.9-15.5-11-19Z"/><path class="cls-40" d="M29.5,1.49A9.47,9.47,0,0,0,23.3.09c-.6.1-19.6,8.8-20.1,9.1-2,1.1-3.2,3.6-3.2,7.1v47.1c0,7,4.9,15.5,11,19l50.3,28.9a9.4,9.4,0,0,0,5.7,1.5c.5-.1,19.5-8.7,20-8.8,2.4-1,3.8-3.5,3.8-7.4V49.49c0-7-4.9-15.5-11-19Z"/><g class="cls-3"><path class="cls-41" d="M14.8,8.49c-6.1-3.5-11-.7-11,6.3v47.1c0,7,4.9,15.5,11,19l50.3,28.9c6.1,3.5,11,.7,11-6.3V56.39c0-7-4.9-15.5-11-19Z"/></g><g class="cls-5"><path class="cls-42" d="M14.4,8.69C8.3,5.19,3.4,8,3.4,15v47.1c0,7,4.9,15.5,11,19L64.7,110c6.1,3.5,11,.7,11-6.3v-47c0-7-4.9-15.5-11-19Z"/></g><g class="cls-7"><path class="cls-43" d="M14.1,8.89c-6.1-3.5-11-.7-11,6.3v47.1c0,7,4.9,15.5,11,19l50.3,28.9c6.1,3.5,11,.7,11-6.3V56.79c0-7-4.9-15.5-11-19Z"/></g><g class="cls-9"><path class="cls-44" d="M13.8,9c-6.1-3.5-11-.7-11,6.3v47.1c0,7,4.9,15.5,11,19l50.3,28.9c6.1,3.5,11,.7,11-6.3V56.89c0-7-4.9-15.5-11-19Z"/></g><g class="cls-11"><path class="cls-45" d="M13.4,9.19c-6.1-3.5-11-.7-11,6.3v47.1c0,7,4.9,15.5,11,19l50.3,28.9c6.1,3.5,11,.7,11-6.3V57.09c0-7-4.9-15.5-11-19Z"/></g><g class="cls-13"><path class="cls-46" d="M13.1,9.39c-6.1-3.5-11-.7-11,6.3v47c0,7,4.9,15.5,11,19l50.3,28.9c6.1,3.5,11,.7,11-6.3V57.19c0-7-4.9-15.5-11-19Z"/></g><g class="cls-15"><path class="cls-47" d="M12.8,9.49c-6.1-3.5-11-.7-11,6.3v47.1c0,7,4.9,15.5,11,19l50.3,28.9c6.1,3.5,11,.7,11-6.3V57.39c0-7-4.9-15.5-11-19Z"/></g><g class="cls-17"><path class="cls-48" d="M12.4,9.69C6.3,6.19,1.4,9,1.4,16v47.1c0,7,4.9,15.5,11,19L62.7,111c6.1,3.5,11,.7,11-6.3V57.59c0-7-4.9-15.5-11-19Z"/></g><g class="cls-19"><path class="cls-49" d="M12.1,9.79c-6.1-3.5-11-.7-11,6.3v47.1c0,7,4.9,15.5,11,19l50.3,28.9c6.1,3.5,11,.7,11-6.3V57.69c0-7-4.9-15.5-11-19Z"/></g><g class="cls-21"><path class="cls-50" d="M11.7,10c-6.1-3.5-11-.7-11,6.3v47.1c0,7,4.9,15.5,11,19L62,111.29c6.1,3.5,11,.7,11-6.3V57.89c0-7-4.9-15.5-11-19Z"/></g><g class="cls-23"><path class="cls-51" d="M11.4,10.19c-6.1-3.5-11-.7-11,6.3v47.1c0,7,4.9,15.5,11,19l50.3,28.9c6.1,3.5,11,.7,11-6.3V58.09c0-7-4.9-15.5-11-19Z"/></g><path class="cls-52" d="M11.1,10.29C5,6.79.1,9.59.1,16.59v47.1c0,7,4.9,15.5,11,19l50.2,29c6.1,3.5,11,.7,11-6.3V58.29c0-7-4.9-15.5-11-19Z"/><path class="cls-26" d="M52.2,57.39,41.1,38.29a17.79,17.79,0,0,0-6.5-6.8l-15.6-9v54.8L54.8,98V66.39A17.47,17.47,0,0,0,52.2,57.39ZM39.9,41.09,49.1,57l-9.2-5.3Zm12,51.7L22,75.59v-48l13.1,7.5a4.18,4.18,0,0,1,1.9,3.2v15l13.1,7.5A4.18,4.18,0,0,1,52,64v28.8ZM25,60.19,48.9,74v-3.4L25,56.69Zm0-6.9,23.9,13.8v-3.4L25,49.89ZM25,67l23.9,13.8v-3.4L25,63.59Z"/></g></g></g></svg>