<svg xmlns="http://www.w3.org/2000/svg" xmlns:xlink="http://www.w3.org/1999/xlink" viewBox="0 0 173.1 252.51"><defs><style>.cls-1{opacity:0.3;}.cls-2{fill-opacity:0;fill:url(#Degradado_sin_nombre_177);}.cls-10,.cls-11,.cls-12,.cls-14,.cls-16,.cls-3,.cls-4,.cls-5,.cls-6,.cls-7,.cls-8,.cls-9{isolation:isolate;}.cls-3{opacity:0.09;fill:url(#Degradado_sin_nombre_177-2);}.cls-4{opacity:0.18;fill:url(#Degradado_sin_nombre_177-3);}.cls-5{opacity:0.27;fill:url(#Degradado_sin_nombre_177-4);}.cls-6{opacity:0.36;fill:url(#Degradado_sin_nombre_177-5);}.cls-7{opacity:0.45;fill:url(#Degradado_sin_nombre_177-6);}.cls-8{opacity:0.55;fill:url(#Degradado_sin_nombre_177-7);}.cls-9{opacity:0.64;fill:url(#Degradado_sin_nombre_177-8);}.cls-10{opacity:0.73;fill:url(#Degradado_sin_nombre_177-9);}.cls-11{opacity:0.82;fill:url(#Degradado_sin_nombre_177-10);}.cls-12{opacity:0.91;fill:url(#Degradado_sin_nombre_177-11);}.cls-13{fill:url(#Degradado_sin_nombre_177-12);}.cls-14{opacity:0.8;fill:url(#Degradado_sin_nombre_178);}.cls-15{fill:url(#Degradado_sin_nombre_179);}.cls-16{fill:#a56ef4;opacity:0.5;}.cls-17{fill:#cc6ef4;}.cls-18{fill:url(#Degradado_sin_nombre_180);}.cls-19{fill:#58595b;}</style><linearGradient id="Degradado_sin_nombre_177" x1="-18.21" y1="366.96" x2="124.88" y2="639.8" gradientTransform="translate(0 -464)" gradientUnits="userSpaceOnUse"><stop offset="0.01" stop-color="#9f19ab"/><stop offset="0.43" stop-color="#5f27bd"/><stop offset="0.9" stop-color="#3d065f"/></linearGradient><linearGradient id="Degradado_sin_nombre_177-2" x1="-20.03" y1="367.13" x2="123.44" y2="640.71" xlink:href="#Degradado_sin_nombre_177"/><linearGradient id="Degradado_sin_nombre_177-3" x1="-21.88" y1="367.31" x2="121.98" y2="641.63" xlink:href="#Degradado_sin_nombre_177"/><linearGradient id="Degradado_sin_nombre_177-4" x1="-23.7" y1="367.47" x2="120.55" y2="642.53" xlink:href="#Degradado_sin_nombre_177"/><linearGradient id="Degradado_sin_nombre_177-5" x1="-25.5" y1="367.62" x2="119.14" y2="643.42" xlink:href="#Degradado_sin_nombre_177"/><linearGradient id="Degradado_sin_nombre_177-6" x1="-27.2" y1="367.72" x2="117.83" y2="644.26" xlink:href="#Degradado_sin_nombre_177"/><linearGradient id="Degradado_sin_nombre_177-7" x1="-29.06" y1="367.9" x2="116.35" y2="645.19" xlink:href="#Degradado_sin_nombre_177"/><linearGradient id="Degradado_sin_nombre_177-8" x1="-30.85" y1="368.05" x2="114.95" y2="646.08" xlink:href="#Degradado_sin_nombre_177"/><linearGradient id="Degradado_sin_nombre_177-9" x1="-32.7" y1="368.23" x2="113.5" y2="647" xlink:href="#Degradado_sin_nombre_177"/><linearGradient id="Degradado_sin_nombre_177-10" x1="-34.51" y1="368.38" x2="112.08" y2="647.9" xlink:href="#Degradado_sin_nombre_177"/><linearGradient id="Degradado_sin_nombre_177-11" x1="-36.32" y1="368.54" x2="110.66" y2="648.8" xlink:href="#Degradado_sin_nombre_177"/><linearGradient id="Degradado_sin_nombre_177-12" x1="-38.11" y1="368.69" x2="109.26" y2="649.69" xlink:href="#Degradado_sin_nombre_177"/><linearGradient id="Degradado_sin_nombre_178" x1="79.26" y1="736.85" x2="78.06" y2="429.31" gradientTransform="translate(0 -464)" gradientUnits="userSpaceOnUse"><stop offset="0.03" stop-color="#7c1dc9"/><stop offset="0.21" stop-color="#6e41d2"/><stop offset="0.62" stop-color="#4c9be8"/><stop offset="1" stop-color="#2af6ff"/></linearGradient><radialGradient id="Degradado_sin_nombre_179" cx="78.8" cy="521.68" r="145.94" gradientTransform="translate(0 -464)" gradientUnits="userSpaceOnUse"><stop offset="0" stop-color="#711f56"/><stop offset="0.16" stop-color="#6c1e52"/><stop offset="0.36" stop-color="#5c1946"/><stop offset="0.58" stop-color="#431233"/><stop offset="0.82" stop-color="#200918"/><stop offset="1"/></radialGradient><linearGradient id="Degradado_sin_nombre_180" x1="5594.95" y1="657.25" x2="5544.43" y2="547.41" gradientTransform="matrix(-1, 0, 0, 1, 5664.66, -464)" gradientUnits="userSpaceOnUse"><stop offset="0.04" stop-color="#ffa98c"/><stop offset="0.32" stop-color="#ffb892"/><stop offset="0.86" stop-color="#fee1a3"/><stop offset="1" stop-color="#feeca8"/></linearGradient></defs><g id="Capa_2" data-name="Capa 2"><g id="Capa_1-2" data-name="Capa 1"><g class="cls-1"><path class="cls-2" d="M40.5,2.49c-10-5.8-18.1-1.1-18.1,10.3l-1.5,129.4c0,11.4,8.1,25.4,18.1,31.1l112,63.2c10,5.8,22.1.5,22.1-10.9V104.49c0-11.4-10.6-33.1-20.6-38.8Z"/><path class="cls-3" d="M38.7,3.09c-10.1-5.8-18.2-1.2-18.2,10.4l-1.4,129.2c0,11.5,8.2,25.6,18.2,31.4l112.5,63.5c10.1,5.8,21.8.6,21.8-11V104.89c0-11.5-10.4-32.6-20.5-38.4Z"/><path class="cls-4" d="M36.8,3.59c-10.1-5.9-18.4-1.2-18.4,10.5l-1.2,129.1c0,11.6,8.2,25.8,18.4,31.7l113,63.7c10.1,5.9,21.6.6,21.6-11V105.29c0-11.6-10.3-32.1-20.4-37.9Z"/><path class="cls-5" d="M35,4.19C24.8-1.71,16.5,3,16.5,14.79l-1.1,128.9c0,11.7,8.3,26,18.5,31.9l113.4,64c10.2,5.9,21.4.7,21.4-11V105.69c0-11.7-10.1-31.6-20.3-37.5Z"/><path class="cls-6" d="M33.2,4.79c-10.3-5.9-18.7-1.2-18.7,10.6l-1,128.7c0,11.8,8.4,26.2,18.7,32.2l113.9,64.3c10.3,5.9,21.2.8,21.2-11V106.09c0-11.8-9.9-31.1-20.2-37.1Z"/><path class="cls-7" d="M31.4,5.29C21-.71,12.6,4.09,12.6,16l-.8,128.5c0,11.9,8.4,26.4,18.8,32.4L145,241.49c10.4,6,21,.9,21-11.1v-124c0-11.9-9.8-30.6-20.2-36.6Z"/><path class="cls-8" d="M29.5,5.89c-10.5-6-19-1.2-19,10.8l-.6,128.4c0,12,8.5,26.7,19,32.7l114.9,64.9c10.5,6,20.8.9,20.8-11.1V106.89c0-12-9.6-30.1-20.1-36.2Z"/><path class="cls-9" d="M27.7,6.49C17.1.39,8.6,5.29,8.6,17.39l-.5,128.2c0,12.1,8.6,26.9,19.1,33l115.4,65.1c10.6,6.1,20.6,1,20.6-11.1V107.29c0-12.1-9.5-29.7-20-35.7Z"/><path class="cls-10" d="M25.9,7C15.3.89,6.6,5.79,6.6,18L6.2,146c0,12.2,8.6,27.1,19.3,33.2l115.9,65.5c10.6,6.1,20.3,1.1,20.3-11.2V107.69c0-12.2-9.3-29.2-19.9-35.3Z"/><path class="cls-11" d="M24.1,7.59C13.4,1.39,4.7,6.39,4.7,18.69l-.3,127.8c0,12.3,8.7,27.3,19.4,33.5l116.4,65.7c10.7,6.2,20.1,1.1,20.1-11.2V108.19c0-12.3-9.1-28.7-19.9-34.9Z"/><path class="cls-12" d="M22.2,8.09C11.4,1.89,2.6,6.89,2.6,19.19l-.1,127.7c0,12.4,8.8,27.5,19.6,33.7l116.9,66c10.8,6.2,19.9,1.2,19.9-11.2V108.59c0-12.4-9-28.2-19.8-34.4Z"/><path class="cls-13" d="M20.4,8.69C9.5,2.39.7,7.39.7,19.89v127.5c0,12.5,8.8,27.7,19.7,34l117.4,66.3c10.9,6.3,19.7,1.3,19.7-11.2V109c0-12.5-8.8-27.7-19.7-34Z"/></g><path class="cls-14" d="M19.8,7.79C8.9,1.49,0,6.49,0,19.09v130.1c0,12.5,8.9,27.8,19.8,34.1l117.8,66.5c10.9,6.3,19.8,1.3,19.8-11.3V108.39c0-12.5-8.9-27.8-19.8-34.1Z"/><path class="cls-15" d="M137.7,74.29,19.9,7.79C9,1.49.1,6.49.1,19.09V21C.1,8.49,9,3.39,19.9,9.69l117.8,66.5c10.9,6.3,19.8,21.6,19.8,34.1v-1.9C157.4,95.89,148.6,80.59,137.7,74.29Z"/><path class="cls-16" d="M146,108a.67.67,0,0,0,.7-.4.8.8,0,0,0-.3-1.1L9.9,27.79a.81.81,0,0,0-.8,1.4l136.4,78.7A.9.9,0,0,0,146,108Z"/><path class="cls-16" d="M146,129.79a.67.67,0,0,0,.7-.4.8.8,0,0,0-.3-1.1L9.9,49.59A.81.81,0,1,0,9.1,51l136.4,78.7A.9.9,0,0,0,146,129.79Z"/><path class="cls-16" d="M146,151.09a.67.67,0,0,0,.7-.4.8.8,0,0,0-.3-1.1L9.9,70.89a.81.81,0,0,0-.8,1.4L145.5,151A.9.9,0,0,0,146,151.09Z"/><path class="cls-16" d="M146,172.89a.67.67,0,0,0,.7-.4.8.8,0,0,0-.3-1.1L9.9,92.69a.81.81,0,0,0-.8,1.4l136.4,78.7A.9.9,0,0,0,146,172.89Z"/><path class="cls-16" d="M146,193.89a.67.67,0,0,0,.7-.4.8.8,0,0,0-.3-1.1L9.9,113.69a.81.81,0,0,0-.8,1.4l136.4,78.7A.9.9,0,0,0,146,193.89Z"/><path class="cls-16" d="M146,215.69a.67.67,0,0,0,.7-.4.8.8,0,0,0-.3-1.1L9.9,135.49a.81.81,0,1,0-.8,1.4l136.4,78.7A.9.9,0,0,0,146,215.69Z"/><path class="cls-16" d="M146,237.29a.67.67,0,0,0,.7-.4.8.8,0,0,0-.3-1.1L9.9,157a.81.81,0,1,0-.8,1.4l136.4,78.7C145.7,237.19,145.8,237.29,146,237.29Z"/><path class="cls-17" d="M115.2,135.39l-10.7-6.2v89.5l10.7,6.2Zm15.5-26.5-10.8-6.2v124.7l10.7,6.2.1-124.7ZM72.6,55.69v144.2l10.7,6.2V61.89Zm26.7,29.2-10.7-6.2V209l10.7,6.2ZM67.4,48.59l-10.7-6.2v147.9l10.7,6.2Zm-42.6,51.9v71.1l10.7,6.2v-71.1Zm26.7-38.6-10.7-6.2v125l10.7,6.2Z"/><path class="cls-18" d="M115.2,174.89l-10.7-6.2v50l10.7,6.2v-50Zm15.5-38.1-10.7-6.2v96.9l10.7,6.2ZM72.6,71.89V200l10.7,6.2V78.09Zm26.7,45.6-10.7-6.2V209l10.7,6.2ZM67.4,54.69l-10.7-6.2v141.8l10.7,6.2Zm-42.6,77.8v39.1l10.7,6.2v-39.1Zm26.7-20.8-10.7-6.2v75.2l10.7,6.2Z"/><polygon class="cls-19" points="130.7 138.19 119.9 131.89 119.9 130.59 130.7 136.79 130.7 138.19"/><polygon class="cls-19" points="115.2 176.29 104.4 170.09 104.4 168.69 115.2 174.89 115.2 176.29"/><polygon class="cls-19" points="51.5 112.99 40.7 106.79 40.7 105.39 51.5 111.69 51.5 112.99"/><polygon class="cls-19" points="67.4 56.09 56.6 49.89 56.6 48.49 67.4 54.69 67.4 56.09"/><polygon class="cls-19" points="35.5 138.69 35.5 139.99 24.8 133.79 24.8 132.49 35.5 138.69"/><polygon class="cls-19" points="99.3 118.89 88.5 112.69 88.5 111.29 99.3 117.49 99.3 118.89"/><polygon class="cls-19" points="83.3 79.39 72.6 73.19 72.6 71.89 83.3 78.09 83.3 79.39"/></g></g></svg>