<svg xmlns="http://www.w3.org/2000/svg" xmlns:xlink="http://www.w3.org/1999/xlink" viewBox="0 0 151.5 282.72"><defs><style>.cls-1{opacity:0.3;}.cls-2{fill-opacity:0;fill:url(#Degradado_sin_nombre_102);}.cls-10,.cls-11,.cls-12,.cls-14,.cls-3,.cls-4,.cls-5,.cls-6,.cls-7,.cls-8,.cls-9{isolation:isolate;}.cls-3{opacity:0.09;fill:url(#Degradado_sin_nombre_102-2);}.cls-4{opacity:0.18;fill:url(#Degradado_sin_nombre_102-3);}.cls-5{opacity:0.27;fill:url(#Degradado_sin_nombre_102-4);}.cls-6{opacity:0.36;fill:url(#Degradado_sin_nombre_102-5);}.cls-7{opacity:0.45;fill:url(#Degradado_sin_nombre_102-6);}.cls-8{opacity:0.55;fill:url(#Degradado_sin_nombre_102-7);}.cls-9{opacity:0.64;fill:url(#Degradado_sin_nombre_102-8);}.cls-10{opacity:0.73;fill:url(#Degradado_sin_nombre_102-9);}.cls-11{opacity:0.82;fill:url(#Degradado_sin_nombre_102-10);}.cls-12{opacity:0.91;fill:url(#Degradado_sin_nombre_102-11);}.cls-13{fill:url(#Degradado_sin_nombre_102-12);}.cls-14{opacity:0.8;fill:url(#Degradado_sin_nombre_103);}.cls-15{fill:url(#Degradado_sin_nombre_104);}.cls-16{fill:url(#Degradado_sin_nombre_164);}.cls-17{fill:url(#Degradado_sin_nombre_164-2);}.cls-18{fill:url(#Degradado_sin_nombre_164-3);}.cls-19{fill:url(#Degradado_sin_nombre_164-4);}.cls-20{fill:url(#Degradado_sin_nombre_164-5);}.cls-21{fill:url(#Degradado_sin_nombre_164-6);}.cls-22{fill:url(#Degradado_sin_nombre_164-7);}.cls-23{fill:url(#Degradado_sin_nombre_164-8);}.cls-24{fill:url(#Degradado_sin_nombre_164-9);}.cls-25{fill:url(#Degradado_sin_nombre_164-10);}.cls-26{fill:url(#Degradado_sin_nombre_164-11);}.cls-27{fill:url(#Degradado_sin_nombre_164-12);}.cls-28{fill:url(#Degradado_sin_nombre_164-13);}.cls-29{fill:url(#Degradado_sin_nombre_164-14);}.cls-30{fill:url(#Degradado_sin_nombre_164-15);}.cls-31{fill:url(#Degradado_sin_nombre_164-16);}.cls-32{fill:url(#Degradado_sin_nombre_164-17);}.cls-33{fill:url(#Degradado_sin_nombre_164-18);}.cls-34{fill:url(#Degradado_sin_nombre_164-19);}.cls-35{fill:url(#Degradado_sin_nombre_164-20);}.cls-36{fill:url(#Degradado_sin_nombre_164-21);}.cls-37{fill:url(#Degradado_sin_nombre_164-22);}.cls-38{fill:url(#Degradado_sin_nombre_164-23);}.cls-39{fill:url(#Degradado_sin_nombre_164-24);}.cls-40{fill:url(#Degradado_sin_nombre_164-25);}.cls-41{fill:url(#Degradado_sin_nombre_164-26);}.cls-42{fill:url(#Degradado_sin_nombre_164-27);}.cls-43{fill:url(#Degradado_sin_nombre_164-28);}.cls-44{fill:url(#Degradado_sin_nombre_164-29);}.cls-45{fill:url(#Degradado_sin_nombre_164-30);}.cls-46{fill:url(#Degradado_sin_nombre_164-31);}.cls-47{fill:url(#Degradado_sin_nombre_164-32);}.cls-48{fill:url(#Degradado_sin_nombre_164-33);}.cls-49{fill:url(#Degradado_sin_nombre_164-34);}.cls-50{fill:url(#Degradado_sin_nombre_164-35);}.cls-51{fill:url(#Degradado_sin_nombre_164-36);}.cls-52{fill:url(#Degradado_sin_nombre_164-37);}.cls-53{fill:url(#Degradado_sin_nombre_164-38);}.cls-54{fill:url(#Degradado_sin_nombre_164-39);}.cls-55{fill:url(#Degradado_sin_nombre_164-40);}.cls-56{fill:url(#Degradado_sin_nombre_164-41);}.cls-57{fill:url(#Degradado_sin_nombre_164-42);}.cls-58{fill:url(#Degradado_sin_nombre_164-43);}.cls-59{fill:url(#Degradado_sin_nombre_164-44);}.cls-60{fill:url(#Degradado_sin_nombre_164-45);}.cls-61{fill:url(#Degradado_sin_nombre_164-46);}.cls-62{fill:url(#Degradado_sin_nombre_164-47);}.cls-63{fill:url(#Degradado_sin_nombre_164-48);}.cls-64{fill:url(#Degradado_sin_nombre_164-49);}.cls-65{fill:url(#Degradado_sin_nombre_164-50);}.cls-66{fill:url(#Degradado_sin_nombre_164-51);}.cls-67{fill:url(#Degradado_sin_nombre_164-52);}.cls-68{fill:url(#Degradado_sin_nombre_164-53);}.cls-69{fill:url(#Degradado_sin_nombre_164-54);}.cls-70{fill:url(#Degradado_sin_nombre_164-55);}.cls-71{fill:url(#Degradado_sin_nombre_164-56);}.cls-72{fill:url(#Degradado_sin_nombre_164-57);}.cls-73{fill:url(#Degradado_sin_nombre_209);}.cls-74{fill:url(#Degradado_sin_nombre_209-2);}.cls-75{fill:url(#Degradado_sin_nombre_209-3);}.cls-76{fill:url(#Degradado_sin_nombre_209-4);}.cls-77{fill:url(#Degradado_sin_nombre_209-5);}.cls-78{fill:url(#Degradado_sin_nombre_209-6);}.cls-79{fill:url(#Degradado_sin_nombre_209-7);}.cls-80{fill:url(#Degradado_sin_nombre_209-8);}</style><linearGradient id="Degradado_sin_nombre_102" x1="-29" y1="371.26" x2="115.23" y2="646.28" gradientTransform="translate(0 -464)" gradientUnits="userSpaceOnUse"><stop offset="0.01" stop-color="#9f19ab"/><stop offset="0.43" stop-color="#5f27bd"/><stop offset="0.9" stop-color="#3d065f"/></linearGradient><linearGradient id="Degradado_sin_nombre_102-2" x1="-31.06" y1="371.15" x2="113.9" y2="647.58" xlink:href="#Degradado_sin_nombre_102"/><linearGradient id="Degradado_sin_nombre_102-3" x1="-33.24" y1="371.11" x2="112.47" y2="648.94" xlink:href="#Degradado_sin_nombre_102"/><linearGradient id="Degradado_sin_nombre_102-4" x1="-35.38" y1="371.04" x2="111.06" y2="650.28" xlink:href="#Degradado_sin_nombre_102"/><linearGradient id="Degradado_sin_nombre_102-5" x1="-37.53" y1="370.99" x2="109.65" y2="651.63" xlink:href="#Degradado_sin_nombre_102"/><linearGradient id="Degradado_sin_nombre_102-6" x1="-39.67" y1="370.92" x2="108.25" y2="652.98" xlink:href="#Degradado_sin_nombre_102"/><linearGradient id="Degradado_sin_nombre_102-7" x1="-41.75" y1="370.82" x2="106.91" y2="654.29" xlink:href="#Degradado_sin_nombre_102"/><linearGradient id="Degradado_sin_nombre_102-8" x1="-43.93" y1="370.78" x2="105.47" y2="655.65" xlink:href="#Degradado_sin_nombre_102"/><linearGradient id="Degradado_sin_nombre_102-9" x1="-46.01" y1="370.68" x2="104.13" y2="656.97" xlink:href="#Degradado_sin_nombre_102"/><linearGradient id="Degradado_sin_nombre_102-10" x1="-48.21" y1="370.65" x2="102.66" y2="658.34" xlink:href="#Degradado_sin_nombre_102"/><linearGradient id="Degradado_sin_nombre_102-11" x1="-50.31" y1="370.56" x2="101.31" y2="659.66" xlink:href="#Degradado_sin_nombre_102"/><linearGradient id="Degradado_sin_nombre_102-12" x1="-52.4" y1="370.47" x2="99.95" y2="660.99" xlink:href="#Degradado_sin_nombre_102"/><linearGradient id="Degradado_sin_nombre_103" x1="168.27" y1="803.47" x2="-74.39" y2="329.4" gradientTransform="translate(0 -464)" gradientUnits="userSpaceOnUse"><stop offset="0.03" stop-color="#7c1dc9"/><stop offset="0.21" stop-color="#6e41d2"/><stop offset="0.62" stop-color="#4c9be8"/><stop offset="1" stop-color="#2af6ff"/></linearGradient><radialGradient id="Degradado_sin_nombre_104" cx="67.8" cy="515.31" r="127.58" gradientTransform="translate(0 -464)" gradientUnits="userSpaceOnUse"><stop offset="0" stop-color="#711f56"/><stop offset="0.16" stop-color="#6c1e52"/><stop offset="0.36" stop-color="#5c1946"/><stop offset="0.58" stop-color="#431233"/><stop offset="0.82" stop-color="#200918"/><stop offset="1"/></radialGradient><linearGradient id="Degradado_sin_nombre_164" x1="67.35" y1="705.67" x2="87.07" y2="503.2" gradientTransform="translate(0 -464)" gradientUnits="userSpaceOnUse"><stop offset="0.04" stop-color="#ffa98c"/><stop offset="0.32" stop-color="#ffb892"/><stop offset="0.86" stop-color="#fee1a3"/><stop offset="1" stop-color="#feeca8"/></linearGradient><linearGradient id="Degradado_sin_nombre_164-2" x1="74.08" y1="706.33" x2="93.8" y2="503.85" xlink:href="#Degradado_sin_nombre_164"/><linearGradient id="Degradado_sin_nombre_164-3" x1="73.2" y1="706.24" x2="92.92" y2="503.77" xlink:href="#Degradado_sin_nombre_164"/><linearGradient id="Degradado_sin_nombre_164-4" x1="45.06" y1="703.5" x2="64.78" y2="501.03" xlink:href="#Degradado_sin_nombre_164"/><linearGradient id="Degradado_sin_nombre_164-5" x1="83.05" y1="707.2" x2="102.77" y2="504.73" xlink:href="#Degradado_sin_nombre_164"/><linearGradient id="Degradado_sin_nombre_164-6" x1="52.21" y1="704.2" x2="71.93" y2="501.72" xlink:href="#Degradado_sin_nombre_164"/><linearGradient id="Degradado_sin_nombre_164-7" x1="59.1" y1="704.87" x2="78.82" y2="502.4" xlink:href="#Degradado_sin_nombre_164"/><linearGradient id="Degradado_sin_nombre_164-8" x1="61.08" y1="705.06" x2="80.8" y2="502.59" xlink:href="#Degradado_sin_nombre_164"/><linearGradient id="Degradado_sin_nombre_164-9" x1="24.92" y1="701.54" x2="44.64" y2="499.07" xlink:href="#Degradado_sin_nombre_164"/><linearGradient id="Degradado_sin_nombre_164-10" x1="31.62" y1="702.19" x2="51.34" y2="499.72" xlink:href="#Degradado_sin_nombre_164"/><linearGradient id="Degradado_sin_nombre_164-11" x1="56.33" y1="704.6" x2="76.05" y2="502.13" xlink:href="#Degradado_sin_nombre_164"/><linearGradient id="Degradado_sin_nombre_164-12" x1="39.43" y1="702.95" x2="59.15" y2="500.48" xlink:href="#Degradado_sin_nombre_164"/><linearGradient id="Degradado_sin_nombre_164-13" x1="36.89" y1="702.71" x2="56.61" y2="500.23" xlink:href="#Degradado_sin_nombre_164"/><linearGradient id="Degradado_sin_nombre_164-14" x1="44.39" y1="703.43" x2="64.11" y2="500.96" xlink:href="#Degradado_sin_nombre_164"/><linearGradient id="Degradado_sin_nombre_164-15" x1="34.46" y1="702.47" x2="54.18" y2="499.99" xlink:href="#Degradado_sin_nombre_164"/><linearGradient id="Degradado_sin_nombre_164-16" x1="26.55" y1="701.7" x2="46.28" y2="499.23" xlink:href="#Degradado_sin_nombre_164"/><linearGradient id="Degradado_sin_nombre_164-17" x1="37.46" y1="702.76" x2="57.18" y2="500.29" xlink:href="#Degradado_sin_nombre_164"/><linearGradient id="Degradado_sin_nombre_164-18" x1="102.06" y1="709.05" x2="121.78" y2="506.58" xlink:href="#Degradado_sin_nombre_164"/><linearGradient id="Degradado_sin_nombre_164-19" x1="19.71" y1="701.03" x2="39.43" y2="498.56" xlink:href="#Degradado_sin_nombre_164"/><linearGradient id="Degradado_sin_nombre_164-20" x1="56.51" y1="704.61" x2="76.23" y2="502.14" xlink:href="#Degradado_sin_nombre_164"/><linearGradient id="Degradado_sin_nombre_164-21" x1="95.06" y1="708.37" x2="114.78" y2="505.9" xlink:href="#Degradado_sin_nombre_164"/><linearGradient id="Degradado_sin_nombre_164-22" x1="89.9" y1="707.87" x2="109.62" y2="505.39" xlink:href="#Degradado_sin_nombre_164"/><linearGradient id="Degradado_sin_nombre_164-23" x1="80.81" y1="706.98" x2="100.53" y2="504.51" xlink:href="#Degradado_sin_nombre_164"/><linearGradient id="Degradado_sin_nombre_164-24" x1="24.77" y1="701.52" x2="44.49" y2="499.05" xlink:href="#Degradado_sin_nombre_164"/><linearGradient id="Degradado_sin_nombre_164-25" x1="92.91" y1="708.16" x2="112.63" y2="505.69" xlink:href="#Degradado_sin_nombre_164"/><linearGradient id="Degradado_sin_nombre_164-26" x1="41.3" y1="703.13" x2="61.02" y2="500.66" xlink:href="#Degradado_sin_nombre_164"/><linearGradient id="Degradado_sin_nombre_164-27" x1="51.24" y1="704.1" x2="70.96" y2="501.63" xlink:href="#Degradado_sin_nombre_164"/><linearGradient id="Degradado_sin_nombre_164-28" x1="63.18" y1="705.27" x2="82.9" y2="502.79" xlink:href="#Degradado_sin_nombre_164"/><linearGradient id="Degradado_sin_nombre_164-29" x1="81.95" y1="707.09" x2="101.67" y2="504.62" xlink:href="#Degradado_sin_nombre_164"/><linearGradient id="Degradado_sin_nombre_164-30" x1="97.45" y1="708.6" x2="117.17" y2="506.13" xlink:href="#Degradado_sin_nombre_164"/><linearGradient id="Degradado_sin_nombre_164-31" x1="95.03" y1="708.37" x2="114.75" y2="505.89" xlink:href="#Degradado_sin_nombre_164"/><linearGradient id="Degradado_sin_nombre_164-32" x1="97.91" y1="708.65" x2="117.63" y2="506.18" xlink:href="#Degradado_sin_nombre_164"/><linearGradient id="Degradado_sin_nombre_164-33" x1="20.48" y1="701.11" x2="40.2" y2="498.63" xlink:href="#Degradado_sin_nombre_164"/><linearGradient id="Degradado_sin_nombre_164-34" x1="31.77" y1="702.21" x2="51.49" y2="499.73" xlink:href="#Degradado_sin_nombre_164"/><linearGradient id="Degradado_sin_nombre_164-35" x1="9.69" y1="700.05" x2="29.42" y2="497.58" xlink:href="#Degradado_sin_nombre_164"/><linearGradient id="Degradado_sin_nombre_164-36" x1="16.54" y1="700.72" x2="36.26" y2="498.25" xlink:href="#Degradado_sin_nombre_164"/><linearGradient id="Degradado_sin_nombre_164-37" x1="25.45" y1="701.59" x2="45.17" y2="499.12" xlink:href="#Degradado_sin_nombre_164"/><linearGradient id="Degradado_sin_nombre_164-38" x1="13.53" y1="700.43" x2="33.25" y2="497.96" xlink:href="#Degradado_sin_nombre_164"/><linearGradient id="Degradado_sin_nombre_164-39" x1="15.26" y1="700.6" x2="34.98" y2="498.13" xlink:href="#Degradado_sin_nombre_164"/><linearGradient id="Degradado_sin_nombre_164-40" x1="12.88" y1="700.37" x2="32.6" y2="497.89" xlink:href="#Degradado_sin_nombre_164"/><linearGradient id="Degradado_sin_nombre_164-41" x1="17.84" y1="700.85" x2="37.56" y2="498.38" xlink:href="#Degradado_sin_nombre_164"/><linearGradient id="Degradado_sin_nombre_164-42" x1="12.52" y1="700.33" x2="32.24" y2="497.86" xlink:href="#Degradado_sin_nombre_164"/><linearGradient id="Degradado_sin_nombre_164-43" x1="102.68" y1="709.11" x2="122.4" y2="506.64" xlink:href="#Degradado_sin_nombre_164"/><linearGradient id="Degradado_sin_nombre_164-44" x1="64.12" y1="705.36" x2="83.84" y2="502.89" xlink:href="#Degradado_sin_nombre_164"/><linearGradient id="Degradado_sin_nombre_164-45" x1="74.2" y1="706.34" x2="93.92" y2="503.87" xlink:href="#Degradado_sin_nombre_164"/><linearGradient id="Degradado_sin_nombre_164-46" x1="45.06" y1="703.5" x2="64.78" y2="501.03" xlink:href="#Degradado_sin_nombre_164"/><linearGradient id="Degradado_sin_nombre_164-47" x1="85.51" y1="707.44" x2="105.23" y2="504.97" xlink:href="#Degradado_sin_nombre_164"/><linearGradient id="Degradado_sin_nombre_164-48" x1="101.21" y1="708.97" x2="120.93" y2="506.49" xlink:href="#Degradado_sin_nombre_164"/><linearGradient id="Degradado_sin_nombre_164-49" x1="75.69" y1="706.48" x2="95.41" y2="504.01" xlink:href="#Degradado_sin_nombre_164"/><linearGradient id="Degradado_sin_nombre_164-50" x1="104.76" y1="709.31" x2="124.48" y2="506.84" xlink:href="#Degradado_sin_nombre_164"/><linearGradient id="Degradado_sin_nombre_164-51" x1="67.93" y1="705.73" x2="87.65" y2="503.25" xlink:href="#Degradado_sin_nombre_164"/><linearGradient id="Degradado_sin_nombre_164-52" x1="44.5" y1="703.45" x2="64.22" y2="500.97" xlink:href="#Degradado_sin_nombre_164"/><linearGradient id="Degradado_sin_nombre_164-53" x1="51.91" y1="704.17" x2="71.63" y2="501.69" xlink:href="#Degradado_sin_nombre_164"/><linearGradient id="Degradado_sin_nombre_164-54" x1="6.68" y1="699.76" x2="26.4" y2="497.29" xlink:href="#Degradado_sin_nombre_164"/><linearGradient id="Degradado_sin_nombre_164-55" x1="5.67" y1="699.66" x2="25.39" y2="497.19" xlink:href="#Degradado_sin_nombre_164"/><linearGradient id="Degradado_sin_nombre_164-56" x1="94.36" y1="708.3" x2="114.08" y2="505.83" xlink:href="#Degradado_sin_nombre_164"/><linearGradient id="Degradado_sin_nombre_164-57" x1="78.67" y1="706.77" x2="98.39" y2="504.3" xlink:href="#Degradado_sin_nombre_164"/><linearGradient id="Degradado_sin_nombre_209" x1="19" y1="43.43" x2="26.44" y2="43.43" gradientUnits="userSpaceOnUse"><stop offset="0.61" stop-color="#fee1a3"/><stop offset="1" stop-color="#feeca8"/></linearGradient><linearGradient id="Degradado_sin_nombre_209-2" x1="27.2" y1="49.03" x2="34.29" y2="49.03" xlink:href="#Degradado_sin_nombre_209"/><linearGradient id="Degradado_sin_nombre_209-3" x1="35.54" y1="51.99" x2="42.57" y2="51.99" xlink:href="#Degradado_sin_nombre_209"/><linearGradient id="Degradado_sin_nombre_209-4" x1="43.33" y1="58.39" x2="50.13" y2="58.39" xlink:href="#Degradado_sin_nombre_209"/><linearGradient id="Degradado_sin_nombre_209-5" x1="51.38" y1="61.49" x2="55.39" y2="61.49" xlink:href="#Degradado_sin_nombre_209"/><linearGradient id="Degradado_sin_nombre_209-6" x1="55.96" y1="64.44" x2="60.89" y2="64.44" xlink:href="#Degradado_sin_nombre_209"/><linearGradient id="Degradado_sin_nombre_209-7" x1="61.26" y1="68.7" x2="68.35" y2="68.7" xlink:href="#Degradado_sin_nombre_209"/><linearGradient id="Degradado_sin_nombre_209-8" x1="72.6" y1="76.41" x2="82.2" y2="76.41" xlink:href="#Degradado_sin_nombre_209"/></defs><g id="Capa_2" data-name="Capa 2"><g id="Capa_1-2" data-name="Capa 1"><g class="cls-1"><path class="cls-2" d="M40.3,2.58c-10.4-6-18.9-1.2-18.9,10.8v153.4c0,12,8.5,26.6,18.9,32.6l88.1,50.7c10.4,6,23.1.5,23.1-11.4V85.28c0-12-12.6-25.9-23.1-31.9Z"/><path class="cls-3" d="M38.6,3c-10.5-6.1-19-1.2-19,10.8v154c0,12.1,8.5,26.8,19.1,32.9l88.6,51c10.5,6.1,22.9.6,22.9-11.5v-154c0-12.1-12.3-26.2-22.9-32.3Z"/><path class="cls-4" d="M37,3.38c-10.6-6.1-19.2-1.2-19.2,11V169c0,12.2,8.6,27,19.2,33.1l89.2,51.3c10.6,6.1,22.6.7,22.6-11.5V87.28c0-12.2-12-26.5-22.6-32.6Z"/><path class="cls-5" d="M35.3,3.78c-10.7-6.2-19.4-1.2-19.4,11V170c0,12.3,8.7,27.2,19.4,33.4L125,255c10.7,6.2,22.4.8,22.4-11.5V88.28c0-12.3-11.7-26.8-22.4-32.9Z"/><path class="cls-6" d="M33.6,4.18C22.8-2,14.1,3,14.1,15.28v155.8c0,12.4,8.7,27.5,19.5,33.7l90.2,51.9c10.8,6.2,22.2.8,22.2-11.6V89.28c0-12.4-11.4-27-22.2-33.3Z"/><path class="cls-7" d="M31.9,4.48C21-1.82,12.2,3.18,12.2,15.68v156.4c0,12.5,8.8,27.7,19.7,34l90.7,52.2c10.9,6.3,22,.9,22-11.6V90.28c0-12.5-11.1-27.3-22-33.6Z"/><path class="cls-8" d="M30.3,4.88c-11-6.3-19.8-1.3-19.8,11.3v157c0,12.6,8.9,27.9,19.8,34.2l91.2,52.5c11,6.3,21.7,1,21.7-11.6v-157c0-12.6-10.8-27.6-21.7-33.9Z"/><path class="cls-9" d="M28.6,5.28c-11-6.4-20-1.3-20,11.4v157.6c0,12.7,9,28.1,20,34.5l91.7,52.8c11,6.4,21.5,1,21.5-11.6V92.38c0-12.7-10.5-27.9-21.5-34.3Z"/><path class="cls-10" d="M26.9,5.68C15.8-.72,6.8,4.38,6.8,17.18v158.2c0,12.8,9,28.3,20.2,34.8l92.2,53.1c11.1,6.4,21.3,1.1,21.3-11.7V93.38c0-12.8-10.2-28.2-21.3-34.6Z"/><path class="cls-11" d="M25.2,6.08C14-.42,4.9,4.78,4.9,17.68v158.8c0,12.9,9.1,28.6,20.3,35l92.7,53.4c11.2,6.5,21.1,1.2,21.1-11.7V94.38c0-12.9-9.9-28.4-21.1-34.9Z"/><path class="cls-12" d="M23.6,6.48C12.3,0,3.1,5.18,3.1,18.18v159.4c0,13,9.2,28.8,20.5,35.3l93.2,53.7c11.3,6.5,20.8,1.2,20.8-11.7V95.38c0-13-9.5-28.7-20.8-35.2Z"/><path class="cls-13" d="M21.9,6.88C10.5.28,1.3,5.58,1.3,18.68v160c0,13.1,9.2,29,20.6,35.6l93.8,54c11.4,6.6,20.6,1.3,20.6-11.8v-160c0-13.1-9.2-29-20.6-35.6Z"/></g><path class="cls-14" d="M20.7,6.48C9.2-.12,0,5.18,0,18.28V190c0,13.1,9.3,29.1,20.7,35.7l94.2,54.2c11.4,6.6,20.7,1.3,20.7-11.8V96.38c0-13.1-9.3-29.1-20.7-35.7Z"/><path class="cls-15" d="M114.9,61,20.7,6.78C9.2.18,0,5.48,0,18.58v2C0,7.48,9.3,2.18,20.7,8.78L114.9,63c11.4,6.6,20.7,22.6,20.7,35.7v-2C135.6,83.58,126.3,67.58,114.9,61Z"/><polygon class="cls-16" points="71.1 118.98 87.1 128.18 87.1 123.08 71.1 113.88 71.1 118.98"/><polygon class="cls-17" points="72 143.18 94.7 156.28 94.7 151.08 72 137.98 72 143.18"/><polygon class="cls-18" points="74.1 132.48 93.1 143.48 93.1 138.38 74.1 127.38 74.1 132.48"/><polygon class="cls-19" points="67.4 111.68 48.2 100.58 48.2 105.78 67.4 116.88 67.4 111.68"/><polygon class="cls-20" points="87.4 116.48 103 125.48 103 120.38 87.4 111.38 87.4 116.48"/><polygon class="cls-21" points="56.5 134.18 68.4 141.08 68.4 135.88 56.5 129.08 56.5 134.18"/><polygon class="cls-22" points="70.7 149.08 65.2 145.88 65.2 150.98 70.7 154.18 70.7 149.08"/><polygon class="cls-23" points="64.7 103.48 83.7 114.38 83.7 109.28 64.7 98.28 64.7 103.48"/><polygon class="cls-24" points="44.5 98.48 32.6 91.58 32.6 96.78 44.5 103.58 44.5 98.48"/><polygon class="cls-25" points="27.1 152.68 51.9 166.98 51.9 161.88 27.1 147.58 27.1 152.68"/><polygon class="cls-26" points="59.4 88.58 82.1 101.68 82.1 96.48 59.4 83.48 59.4 88.58"/><polygon class="cls-27" points="36.8 134.58 61.5 148.88 61.5 143.78 36.8 129.48 36.8 134.58"/><polygon class="cls-28" points="61.3 119.98 36.5 105.68 36.5 110.78 61.3 125.08 61.3 119.98"/><polygon class="cls-29" points="55.5 98.18 61 101.28 61 96.18 55.5 92.98 55.5 98.18"/><polygon class="cls-30" points="43.9 79.58 55.8 86.48 55.8 81.28 43.9 74.48 43.9 79.58"/><polygon class="cls-31" points="31.3 143.28 40.2 148.38 40.2 143.28 31.3 138.18 31.3 143.28"/><polygon class="cls-32" points="52.8 126.88 43.9 121.78 43.9 126.88 52.8 132.08 52.8 126.88"/><polygon class="cls-33" points="108 163.88 112.2 166.28 112.2 161.18 108 158.78 108 163.88"/><polygon class="cls-34" points="31.3 67.18 31.3 72.28 40.2 77.48 40.2 72.28 31.3 67.18"/><polygon class="cls-35" points="70.4 125.28 64.9 122.08 64.9 127.18 70.4 130.38 70.4 125.28"/><polygon class="cls-36" points="96.8 145.58 112.2 154.48 112.2 149.38 96.8 140.48 96.8 145.58"/><polygon class="cls-37" points="103 191.38 87.4 182.38 87.4 187.48 103 196.48 103 191.38"/><polygon class="cls-38" points="74.1 211.38 93.1 222.38 93.1 217.18 74.1 206.28 74.1 211.38"/><polygon class="cls-39" points="27.1 81.78 51.9 95.98 51.9 90.88 27.1 76.58 27.1 81.78"/><polygon class="cls-40" points="104.3 161.78 104.3 156.68 98.4 153.28 98.4 158.38 104.3 161.78"/><polygon class="cls-41" points="55.8 152.28 43.9 145.38 43.9 150.58 55.8 157.38 55.8 152.28"/><polygon class="cls-42" points="61 167.18 55.5 163.98 55.5 169.08 61 172.28 61 167.18"/><polygon class="cls-43" points="82.1 167.48 59.4 154.38 59.4 159.58 82.1 172.68 82.1 167.48"/><polygon class="cls-44" points="90.8 130.38 95.3 132.98 95.3 127.88 90.8 125.18 90.8 130.38"/><polygon class="cls-45" points="112.2 172.98 97 164.28 97 169.38 112.2 178.18 112.2 172.98"/><polygon class="cls-46" points="98.9 135.18 112.2 142.68 112.2 137.58 98.9 129.98 98.9 135.18"/><polygon class="cls-47" points="106.6 127.68 112.2 130.88 112.2 125.68 106.6 122.48 106.6 127.68"/><polygon class="cls-48" points="32.9 182.48 19 174.38 19 179.58 32.9 187.58 32.9 182.48"/><polygon class="cls-49" points="44.5 169.48 32.6 162.58 32.6 167.68 44.5 174.58 44.5 169.48"/><polygon class="cls-50" points="29 89.48 19 83.78 19 88.88 29 94.58 29 89.48"/><polygon class="cls-51" points="29 160.48 19 154.68 19 159.88 29 165.58 29 160.48"/><polygon class="cls-52" points="19 191.38 40.2 203.68 40.2 198.48 19 186.28 19 191.38"/><polygon class="cls-53" points="27.6 135.98 19 131.08 19 136.18 27.6 141.18 27.6 135.98"/><polygon class="cls-54" points="33.1 127.38 19 119.18 19 124.38 33.1 132.48 33.1 127.38"/><polygon class="cls-55" points="32.9 103.58 19 95.58 19 100.68 32.9 108.68 32.9 103.58"/><polygon class="cls-56" points="40.2 119.68 19 107.38 19 112.48 40.2 124.78 40.2 119.68"/><polygon class="cls-57" points="23.5 145.48 19 142.88 19 147.98 23.5 150.58 23.5 145.48"/><polygon class="cls-58" points="112.2 228.18 96.8 219.38 96.8 224.48 112.2 233.38 112.2 228.18"/><polygon class="cls-59" points="64.9 206.08 70.4 209.28 70.4 204.18 64.9 200.98 64.9 206.08"/><polygon class="cls-60" points="87.1 194.08 71.1 184.78 71.1 189.98 87.1 199.18 87.1 194.08"/><polygon class="cls-61" points="43.9 205.78 52.8 210.88 52.8 205.78 43.9 200.58 43.9 205.78"/><polygon class="cls-62" points="98.4 176.88 85.8 169.58 85.8 174.78 98.4 181.98 98.4 176.88"/><polygon class="cls-63" points="112.2 184.88 102 178.98 102 184.18 112.2 189.98 112.2 184.88"/><polygon class="cls-64" points="93.3 162.18 74.3 151.18 74.3 156.28 93.3 167.28 93.3 162.18"/><polygon class="cls-65" points="112.2 196.68 106.6 193.48 106.6 198.58 112.2 201.78 112.2 196.68"/><polygon class="cls-66" points="83.7 180.28 64.7 169.28 64.7 174.38 83.7 185.38 83.7 180.28"/><polygon class="cls-67" points="61.3 198.88 36.5 184.58 36.5 189.68 61.3 203.98 61.3 198.88"/><polygon class="cls-68" points="67.4 182.68 48.2 171.58 48.2 176.68 67.4 187.78 67.4 182.68"/><polygon class="cls-69" points="27.6 65.08 19 60.08 19 65.18 27.6 70.18 27.6 65.08"/><polygon class="cls-70" points="23.5 74.48 19 71.88 19 77.08 23.5 79.58 23.5 74.48"/><polygon class="cls-71" points="112.2 113.88 102 108.08 102 113.18 112.2 118.98 112.2 113.88"/><polygon class="cls-72" points="85.8 103.78 98.4 111.08 98.4 105.88 85.8 98.68 85.8 103.78"/><path class="cls-73" d="M19,45.48v-8.4l3.63,2.1a9,9,0,0,1,1.95,1.49,6.75,6.75,0,0,1,1.26,1.78,4.42,4.42,0,0,1,.44,1.88,1.82,1.82,0,0,1-.44,1.36,1.48,1.48,0,0,1-1.26.31,5.61,5.61,0,0,1-1.95-.76l-2.55-1.48.86-.35V46.6Zm1.94-1.85-.86-1.41,2.45,1.41a1.92,1.92,0,0,0,1.34.38c.29-.08.44-.36.44-.81a2.35,2.35,0,0,0-.44-1.34,4.1,4.1,0,0,0-1.34-1.16l-2.45-1.41.86-.43Zm3.4,4.93-2.1-4.26,2.07,1.2,2.13,4.27Z"/><path class="cls-74" d="M30.75,52.36a7.67,7.67,0,0,1-1.83-1.49A7.53,7.53,0,0,1,27.66,49a4.83,4.83,0,0,1-.46-2,2.09,2.09,0,0,1,.46-1.46,1.55,1.55,0,0,1,1.26-.44,4,4,0,0,1,1.83.63,7.43,7.43,0,0,1,3.08,3.37,4.72,4.72,0,0,1,.46,2,2,2,0,0,1-.46,1.45,1.55,1.55,0,0,1-1.25.45A4.09,4.09,0,0,1,30.75,52.36Zm0-1.54a1.71,1.71,0,0,0,.84.27.71.71,0,0,0,.59-.27A1.39,1.39,0,0,0,32.4,50a2.91,2.91,0,0,0-.22-1.09,3.5,3.5,0,0,0-.59-.95,3.26,3.26,0,0,0-.84-.7,1.71,1.71,0,0,0-.84-.27.74.74,0,0,0-.59.27,1.29,1.29,0,0,0-.22.83,2.71,2.71,0,0,0,.22,1.08,3.59,3.59,0,0,0,.59,1A3.26,3.26,0,0,0,30.75,50.82Z"/><path class="cls-75" d="M35.54,55v-8.9l1.87,1.08V51l-.12,1.84,0,1.94v1.32Zm3.81,2.29a5.33,5.33,0,0,1-1.46-1.2A5,5,0,0,1,37,54.48a6.3,6.3,0,0,1-.32-2A3.14,3.14,0,0,1,37,50.76a1.08,1.08,0,0,1,1-.54,2.86,2.86,0,0,1,1.43.46A6.39,6.39,0,0,1,41,52a6.82,6.82,0,0,1,1.15,1.82,5.12,5.12,0,0,1,.43,2,2.27,2.27,0,0,1-.43,1.5,1.41,1.41,0,0,1-1.15.5A3.43,3.43,0,0,1,39.35,57.32ZM39,55.6a1.71,1.71,0,0,0,.83.27.73.73,0,0,0,.59-.28,1.29,1.29,0,0,0,.22-.83,2.71,2.71,0,0,0-.22-1.08,3.44,3.44,0,0,0-.59-1A3.06,3.06,0,0,0,39,52a1.71,1.71,0,0,0-.84-.27.72.72,0,0,0-.59.27,1.37,1.37,0,0,0-.21.84A3,3,0,0,0,37.6,54a3.44,3.44,0,0,0,.59.95A3.26,3.26,0,0,0,39,55.6Z"/><path class="cls-76" d="M47,61.75a8,8,0,0,1-1.94-1.55,7.09,7.09,0,0,1-1.29-1.93,4.83,4.83,0,0,1-.46-2,2.09,2.09,0,0,1,.45-1.46A1.53,1.53,0,0,1,45,54.37a4,4,0,0,1,1.77.6,6.78,6.78,0,0,1,1.7,1.38,7.11,7.11,0,0,1,1.21,1.85,5,5,0,0,1,.44,2,2.09,2.09,0,0,1,0,.24c0,.09,0,.17,0,.24l-5.24-3V56.62l4.25,2.46-.72-.1a2.5,2.5,0,0,0-.2-1,3.44,3.44,0,0,0-.56-.91,3.1,3.1,0,0,0-.84-.69,1.7,1.7,0,0,0-.85-.28.7.7,0,0,0-.57.26,1.28,1.28,0,0,0-.2.78v.28a2.79,2.79,0,0,0,.23,1.07,3.57,3.57,0,0,0,.66,1,4.59,4.59,0,0,0,1,.79,2.75,2.75,0,0,0,.91.36,1.29,1.29,0,0,0,.71,0l1,1.65a1.64,1.64,0,0,1-1.12.13A4.76,4.76,0,0,1,47,61.75Z"/><path class="cls-77" d="M51.38,64.17V57.72l1.79,1v1.83l-.25-.68a1,1,0,0,1,.92-.5,3.46,3.46,0,0,1,1.55.54v1.72l-.22-.14L55,61.4a1.55,1.55,0,0,0-1.24-.28c-.32.11-.48.47-.48,1.09v3Z"/><path class="cls-78" d="M56,62V60.51l4.48,2.58v1.44Zm3.41,6.93a5.26,5.26,0,0,1-1.78-1.61,3.7,3.7,0,0,1-.63-2.1V59.51l1.87,1.08v5.64A1.48,1.48,0,0,0,59,67a1.76,1.76,0,0,0,.59.56,1.14,1.14,0,0,0,.76.19l.5,1.61a1.49,1.49,0,0,1-.69-.09A4.32,4.32,0,0,1,59.37,68.88Z"/><path class="cls-79" d="M64.81,72A7.44,7.44,0,0,1,63,70.54a7.71,7.71,0,0,1-1.26-1.91,4.91,4.91,0,0,1-.46-2,2.07,2.07,0,0,1,.46-1.45A1.58,1.58,0,0,1,63,64.75a4,4,0,0,1,1.83.63,7.63,7.63,0,0,1,1.83,1.48,7.18,7.18,0,0,1,1.25,1.9,4.69,4.69,0,0,1,.46,2,2,2,0,0,1-.46,1.44,1.52,1.52,0,0,1-1.25.46A4.12,4.12,0,0,1,64.81,72Zm0-1.53a1.71,1.71,0,0,0,.84.27.72.72,0,0,0,.59-.28,1.35,1.35,0,0,0,.22-.83,2.86,2.86,0,0,0-.22-1.08,3.22,3.22,0,0,0-.59-.95,3.26,3.26,0,0,0-.84-.7,1.71,1.71,0,0,0-.84-.27.74.74,0,0,0-.59.27,1.25,1.25,0,0,0-.22.83,2.75,2.75,0,0,0,.22,1.08,3.94,3.94,0,0,0,.59,1A3.26,3.26,0,0,0,64.81,70.49Z"/><path class="cls-80" d="M77.19,79.22a9.35,9.35,0,0,1-1.83-1.38,10.11,10.11,0,0,1-1.46-1.76,8.9,8.9,0,0,1-1-1.93,5.82,5.82,0,0,1-.34-1.93,3,3,0,0,1,.34-1.52,1.85,1.85,0,0,1,1-.83,2.76,2.76,0,0,1,1.47-.06,5.77,5.77,0,0,1,1.82.73A9.35,9.35,0,0,1,79,71.92a10,10,0,0,1,1.45,1.74,8.69,8.69,0,0,1,1,1.93,5.65,5.65,0,0,1,.35,1.94,2.94,2.94,0,0,1-.35,1.53,1.79,1.79,0,0,1-1,.82A2.68,2.68,0,0,1,79,80,5.81,5.81,0,0,1,77.19,79.22Zm0-1.66a3.07,3.07,0,0,0,1,.41,1.51,1.51,0,0,0,.83-.07,1.09,1.09,0,0,0,.56-.54,2.12,2.12,0,0,0,.2-1,3.87,3.87,0,0,0-.2-1.2A5.09,5.09,0,0,0,79.06,74a6.35,6.35,0,0,0-.83-1,5.29,5.29,0,0,0-1-.79,3.29,3.29,0,0,0-1-.41,1.45,1.45,0,0,0-.84.07,1.13,1.13,0,0,0-.55.53,2.13,2.13,0,0,0-.2,1,4,4,0,0,0,.2,1.2,5.49,5.49,0,0,0,.55,1.18,5.91,5.91,0,0,0,.84,1A4.93,4.93,0,0,0,77.19,77.56Zm2.75,5A6.66,6.66,0,0,1,79,82a7.69,7.69,0,0,1-.87-.85,11.25,11.25,0,0,1-.88-1.16c-.31-.45-.65-1-1-1.59l2,.67q.33.63.6,1a4.13,4.13,0,0,0,.54.68,2.63,2.63,0,0,0,.54.42,1.45,1.45,0,0,0,1.37.17l.86,1.53A2.13,2.13,0,0,1,79.94,82.59Z"/></g></g></svg>