<svg xmlns="http://www.w3.org/2000/svg" xmlns:xlink="http://www.w3.org/1999/xlink" viewBox="0 0 449.2 585.74"><defs><style>.cls-1,.cls-10,.cls-11,.cls-12,.cls-13,.cls-4,.cls-5,.cls-6,.cls-7,.cls-8,.cls-9{isolation:isolate;}.cls-2{opacity:0.2;}.cls-3{fill-opacity:0;}.cls-4{opacity:0.09;}.cls-5{opacity:0.18;}.cls-6{opacity:0.27;}.cls-7{opacity:0.36;}.cls-8{opacity:0.45;}.cls-9{opacity:0.55;}.cls-10{opacity:0.64;}.cls-11{opacity:0.73;}.cls-12{opacity:0.82;}.cls-13{opacity:0.91;}.cls-14{fill:url(#Degradado_sin_nombre);}.cls-15{fill:url(#Degradado_sin_nombre_2);}.cls-16{fill:url(#Degradado_sin_nombre_3);}.cls-17{fill:url(#Degradado_sin_nombre_4);}.cls-18{fill:url(#Degradado_sin_nombre_5);}.cls-19{fill:#fff;}.cls-20{opacity:0.5;}.cls-21{fill:#c7bcd6;}.cls-22{fill:url(#Degradado_sin_nombre_14);}.cls-23{fill:url(#Degradado_sin_nombre_14-2);}.cls-24{fill:url(#Degradado_sin_nombre_14-3);}.cls-25{fill:url(#Degradado_sin_nombre_14-4);}.cls-26{fill:url(#Degradado_sin_nombre_14-5);}.cls-27{fill:url(#Degradado_sin_nombre_14-6);}.cls-28{fill:url(#Degradado_sin_nombre_14-7);}.cls-29{fill:url(#Degradado_sin_nombre_14-8);}.cls-30{mix-blend-mode:screen;fill:url(#Degradado_sin_nombre_183);}.cls-31{fill:url(#Degradado_sin_nombre_14-9);}.cls-32{fill:url(#Degradado_sin_nombre_14-10);}</style><linearGradient id="Degradado_sin_nombre" x1="250.02" y1="748.79" x2="631.74" y2="748.79" gradientTransform="translate(0 -464)" gradientUnits="userSpaceOnUse"><stop offset="0" stop-color="#6b24d6"/><stop offset="0.74" stop-color="#200657"/><stop offset="1" stop-color="#12054e"/></linearGradient><linearGradient id="Degradado_sin_nombre_2" x1="232.61" y1="687.2" x2="252.77" y2="759.1" gradientTransform="translate(0 -464)" gradientUnits="userSpaceOnUse"><stop offset="0" stop-color="#671ab9"/><stop offset="0.39" stop-color="#ad34f1"/><stop offset="1" stop-color="#5513ab"/></linearGradient><linearGradient id="Degradado_sin_nombre_3" x1="683.08" y1="489.87" x2="-208.24" y2="970.79" gradientTransform="translate(0 -464)" gradientUnits="userSpaceOnUse"><stop offset="0.01" stop-color="#9f19ab"/><stop offset="0.43" stop-color="#5f27bd"/><stop offset="0.9" stop-color="#3d065f"/></linearGradient><linearGradient id="Degradado_sin_nombre_4" x1="-145.77" y1="295.15" x2="448.96" y2="809.91" gradientTransform="translate(0 -464)" gradientUnits="userSpaceOnUse"><stop offset="0.04" stop-color="#6b24d6"/><stop offset="0.32" stop-color="#7a1cd0"/><stop offset="0.86" stop-color="#a306c1"/><stop offset="0.98" stop-color="#ad00bd"/></linearGradient><radialGradient id="Degradado_sin_nombre_5" cx="232" cy="627.81" r="372.27" gradientTransform="translate(0 -464)" gradientUnits="userSpaceOnUse"><stop offset="0" stop-color="#711f56"/><stop offset="0.16" stop-color="#6c1e52"/><stop offset="0.36" stop-color="#5c1946"/><stop offset="0.58" stop-color="#431233"/><stop offset="0.82" stop-color="#200918"/><stop offset="1"/></radialGradient><linearGradient id="Degradado_sin_nombre_14" x1="44.88" y1="835.04" x2="173.07" y2="613.5" gradientTransform="translate(0 -464)" gradientUnits="userSpaceOnUse"><stop offset="0" stop-color="#9f79c8"/><stop offset="0.14" stop-color="#a580cb"/><stop offset="0.33" stop-color="#b492d3"/><stop offset="0.55" stop-color="#cdb0e1"/><stop offset="0.58" stop-color="#d1b4e3"/><stop offset="0.76" stop-color="#dbc4e9"/><stop offset="1" stop-color="#ebdef3"/></linearGradient><linearGradient id="Degradado_sin_nombre_14-2" x1="115.2" y1="875.73" x2="243.39" y2="654.19" xlink:href="#Degradado_sin_nombre_14"/><linearGradient id="Degradado_sin_nombre_14-3" x1="30.14" y1="826.51" x2="158.33" y2="604.98" xlink:href="#Degradado_sin_nombre_14"/><linearGradient id="Degradado_sin_nombre_14-4" x1="27.79" y1="825.15" x2="155.98" y2="603.62" xlink:href="#Degradado_sin_nombre_14"/><linearGradient id="Degradado_sin_nombre_14-5" x1="18.44" y1="819.74" x2="146.63" y2="598.21" xlink:href="#Degradado_sin_nombre_14"/><linearGradient id="Degradado_sin_nombre_14-6" x1="178.24" y1="915.57" x2="380.06" y2="741.36" xlink:href="#Degradado_sin_nombre_14"/><linearGradient id="Degradado_sin_nombre_14-7" x1="78.6" y1="854.55" x2="206.79" y2="633.02" xlink:href="#Degradado_sin_nombre_14"/><linearGradient id="Degradado_sin_nombre_14-8" x1="-0.1" y1="809.02" x2="128.09" y2="587.48" xlink:href="#Degradado_sin_nombre_14"/><linearGradient id="Degradado_sin_nombre_183" x1="147.3" y1="874.08" x2="118.59" y2="873.39" gradientTransform="translate(0 -464)" gradientUnits="userSpaceOnUse"><stop offset="0" stop-color="#7c1dc9"/><stop offset="1" stop-opacity="0"/></linearGradient><linearGradient id="Degradado_sin_nombre_14-9" x1="-64.87" y1="2204.35" x2="-93.58" y2="2176.43" gradientTransform="matrix(0.87, 0.5, 0, 1.15, 263.74, -1972.99)" xlink:href="#Degradado_sin_nombre_14"/><linearGradient id="Degradado_sin_nombre_14-10" x1="158.1" y1="891.04" x2="138.26" y2="853.72" xlink:href="#Degradado_sin_nombre_14"/></defs><g class="cls-1"><g id="Capa_2" data-name="Capa 2"><g id="Capa_1-2" data-name="Capa 1"><g id="Tablet"><g class="cls-2"><path class="cls-3" d="M379.2,585.74a23.57,23.57,0,0,1-11.9-2.9L187,478.44,6.8,374c-4.3-2.5-6.8-6.5-6.8-10.9,0-4.8,3-9.3,8.2-12.4l47.4-26.6a28.94,28.94,0,0,1,14.5-3.7,23.57,23.57,0,0,1,11.9,2.9l180.2,104.4,180.2,104.4c4.3,2.5,6.8,6.5,6.8,10.9,0,4.8-3,9.3-8.2,12.4l-47.4,26.7A29.85,29.85,0,0,1,379.2,585.74Z"/><path class="cls-4" d="M9.5,351.74l10.7-6c.5-.3,20.5-11.1,20.9-10.9l15.2-7.2c3.7-2.2,9.4-2.8,14.1-2.8a24.93,24.93,0,0,1,11.6,3.1l163.5,94.8,14.2,8.2,177.5,102.9c3.4,2,6.2,5.4,6.9,8.7a9.85,9.85,0,0,1,.2,1.7c.3,4.7-2.5,9.2-7.7,12.2l-10.7,6c-.5.3-20.5,11.1-20.9,10.9l-15.2,7.2c-3.7,2.2-9.4,2.8-14.1,2.8a24.93,24.93,0,0,1-11.6-3.1l-163.3-94.7-14.2-8.2L8.9,374.34c-3.4-2-6.2-5.4-6.9-8.7a9.85,9.85,0,0,1-.2-1.7C1.5,359.24,4.3,354.84,9.5,351.74Z"/><path class="cls-5" d="M10.8,352.84,21.4,347c1-.6,19.9-10.4,20.8-9.9l14.9-5.7c3.4-1.9,9.5-1.9,13.8-1.9,3.7,0,8.7,1.8,11.4,3.3L243.1,426l14,8.1,174.8,101.4c3.1,1.8,6.3,5.4,7,8.3a9,9,0,0,1,.3,1.6c.6,4.5-2,9-7.2,12l-10.6,5.8c-1,.6-19.9,10.4-20.8,9.9l-14.9,5.7c-3.4,1.9-9.5,1.9-13.8,1.9-3.7,0-8.7-1.8-11.4-3.3l-160.8-93.3-14-8.1L10.9,374.74c-3.1-1.8-6.3-5.4-7-8.3a9,9,0,0,1-.3-1.6C3,360.34,5.6,355.84,10.8,352.84Z"/><path class="cls-6" d="M12.1,353.84l10.5-5.7c1.6-.9,19.3-9.6,20.6-8.9l14.7-4.3c3-1.7,9.7-.9,13.5-.9,3.3,0,8.7,2.1,11.1,3.5l158.3,91.9,13.7,8,172.1,99.9c2.7,1.6,6.5,5.3,7.2,8,.1.5.3,1,.4,1.5.9,4.3-1.5,8.8-6.7,11.8l-10.5,5.7c-1.6.9-19.3,9.6-20.6,8.9l-14.7,4.3c-3,1.7-9.7.9-13.5.9-3.3,0-8.7-2.1-11.1-3.5L198.8,483l-13.7-8L13,375.14c-2.7-1.6-6.5-5.3-7.2-8-.1-.5-.3-1-.4-1.5C4.5,361.34,6.8,356.84,12.1,353.84Z"/><path class="cls-7" d="M13.4,354.84l10.3-5.6c2.1-1.2,18.7-8.9,20.5-7.8l14.4-2.8c2.6-1.5,9.8,0,13.2,0,2.9,0,8.8,2.5,10.8,3.7l155.8,90.4,13.5,7.9L421.3,539c2.4,1.4,6.6,5.3,7.3,7.6a8.8,8.8,0,0,1,.5,1.5c1.2,4.2-1,8.6-6.2,11.6l-10.3,5.6c-2.1,1.2-18.7,8.9-20.5,7.8l-14.4,2.8c-2.6,1.5-9.8,0-13.2,0-2.9,0-8.8-2.5-10.8-3.7L198,481.74l-13.5-7.9L15.1,375.44c-2.4-1.4-6.6-5.3-7.3-7.6a8.8,8.8,0,0,1-.5-1.5C5.9,362.34,8.1,357.84,13.4,354.84Z"/><path class="cls-8" d="M14.6,355.84l10.2-5.4c2.6-1.5,18.1-8.1,20.3-6.8l14.2-1.4c2.2-1.3,10,.9,12.8.9,2.5,0,8.8,2.9,10.6,3.9l153.4,89.1,13.3,7.7,166.7,96.9c2,1.2,7.2,5.2,7.5,7.2a3.51,3.51,0,0,1,.6,1.4c1.5,4-.5,8.4-5.7,11.5l-10.2,5.4c-2.6,1.5-18.1,8.1-20.3,6.8l-14.2,1.4c-2.2,1.3-10-.9-12.8-.9-2.5,0-8.8-2.9-10.6-3.9l-153.3-89.2-13.3-7.7L17.1,375.84c-2-1.2-7.2-5.2-7.5-7.2a3.51,3.51,0,0,1-.6-1.4C7.4,363.34,9.4,358.84,14.6,355.84Z"/><path class="cls-9" d="M15.9,356.84l10.1-5.3c3.1-1.8,17.5-7.4,20.2-5.8l13.9.1c1.9-1.1,10.1,1.8,12.5,1.8,2.1,0,8.8,3.3,10.3,4.1l150.9,87.7,13.1,7.6,164,95.3c1.7,1,7.4,5.1,7.6,6.8a5.39,5.39,0,0,1,.7,1.3c1.9,3.8,0,8.3-5.2,11.3L403.9,567c-3.1,1.8-17.5,7.4-20.2,5.8l-13.9-.1c-1.9,1.1-10.1-1.8-12.5-1.8-2.1,0-8.8-3.3-10.3-4.1l-150.9-87.7-13.1-7.6L19,376.24c-1.7-1-7.4-5.1-7.6-6.8a5.39,5.39,0,0,1-.7-1.3C8.9,364.34,10.7,359.84,15.9,356.84Z"/><path class="cls-10" d="M17.2,357.84l9.9-5.1c3.7-2.1,16.9-6.7,20-4.8l13.7,1.6c1.5-.9,10.3,2.7,12.2,2.7,1.7,0,8.8,3.7,10,4.4l148.4,86.3,12.9,7.5,161.3,93.8c1.4.8,7.6,5.1,7.8,6.4a8.34,8.34,0,0,1,.8,1.2c2.2,3.7.5,8.1-4.7,11.1l-9.9,5.1c-3.7,2.1-16.9,6.7-20,4.8l-13.7-1.6c-1.5.9-10.3-2.7-12.2-2.7-1.7,0-8.8-3.7-10-4.4l-148.4-86.3-12.9-7.5L21.1,376.54c-1.4-.8-7.6-5.1-7.8-6.4a8.34,8.34,0,0,1-.8-1.2C10.3,365.34,12,360.94,17.2,357.84Z"/><path class="cls-11" d="M18.5,358.94l9.8-5c4.2-2.4,16.3-5.9,19.9-3.8l13.5,3c1.1-.6,10.4,3.6,11.9,3.6,1.2,0,8.9,4.1,9.8,4.6l145.7,84.8,12.7,7.4,158.6,92.3c1,.6,7.8,5,8,6.1a4.36,4.36,0,0,1,.9,1.1c2.5,3.5,1.1,7.9-4.2,10.9l-9.8,5c-4.2,2.4-16.3,5.9-19.9,3.8l-13.5-3c-1.1.6-10.4-3.6-11.9-3.6-1.2,0-8.9-4.1-9.8-4.6l-145.9-84.9-12.7-7.4L23,376.94c-1-.6-7.8-5-8-6.1a4.36,4.36,0,0,1-.9-1.1C11.8,366.34,13.3,361.94,18.5,358.94Z"/><path class="cls-12" d="M19.8,359.94l9.7-4.9c4.7-2.7,15.7-5.2,19.7-2.8l13.2,4.5c.7-.4,10.6,4.5,11.5,4.5s8.9,4.4,9.5,4.8l143.4,83.5,12.4,7.2,155.9,90.8c.7.4,8,5,8.1,5.7a9.43,9.43,0,0,1,1,1c2.9,3.3,1.6,7.7-3.7,10.7l-9.7,4.9c-4.7,2.7-15.7,5.2-19.7,2.8l-13.2-4.5c-.7.4-10.6-4.5-11.5-4.5s-8.9-4.4-9.5-4.8l-143.4-83.5-12.4-7.2L25.2,377.34c-.7-.4-8-5-8.1-5.7a9.43,9.43,0,0,1-1-1C13.2,367.34,14.5,362.94,19.8,359.94Z"/><path class="cls-13" d="M21.1,360.94l9.5-4.7c5.2-3,15.1-4.4,19.6-1.8l13,6c.4-.2,10.7,5.4,11.2,5.4s8.9,4.8,9.2,5l140.9,82.1,12.2,7.1,153.2,89.3c.3.2,8.2,5,8.3,5.3a10.63,10.63,0,0,1,1.1.9c3.2,3.1,2.1,7.5-3.2,10.5l-9.5,4.7c-5.2,3-15.1,4.4-19.6,1.8l-13-6c-.4.2-10.7-5.4-11.2-5.4s-8.9-4.8-9.2-5L192.7,474l-12.2-7.1L27.3,377.74c-.3-.2-8.2-5-8.3-5.3a10.63,10.63,0,0,1-1.1-.9C14.7,368.34,15.8,363.94,21.1,360.94Z"/><path d="M362.8,572.54l-170.9-99.7L21,373.14c-5-2.9-4.4-7.9,1.4-11.2l9.4-4.6c5.8-3.3,14.5-3.7,19.4-.8l170.9,99.7,171,99.7c5,2.9,4.4,7.9-1.4,11.2l-9.4,4.6C376.5,575,367.8,575.44,362.8,572.54Z"/></g><path class="cls-14" d="M374.2,562.34,43.6,370.74c-12.9-7.5-23.4-27.5-23.4-44.8V20.24c0-8.8-7.2-10.7-2.8-13.9l10.4-4.8c4.7-1.8,9.7-2.6,15.9.9L374.3,194c12.9,7.5,23.4,27.5,23.4,44.8v305.7c0,9.2-3,15.7-7.7,18.7-.3.2-12.4,6-12.7,6.1C373.1,570.74,379.9,565.64,374.2,562.34Z"/><path class="cls-15" d="M386.7,257.34l11-3.2v-15.2c0-17.3-10.5-37.3-23.4-44.8L43.6,2.54C37.5-1,32.5-.16,27.7,1.64c-.2.1-10.3,4.7-10.4,4.8-4.4,3.2,2.8,5.1,2.8,13.9V45Z"/><path class="cls-16" d="M363.3,567.54,32.7,375.94c-12.9-7.5-23.4-27.5-23.4-44.8V25.44C9.3,8.14,19.8.24,32.7,7.74l330.6,191.6c12.9,7.5,23.4,27.5,23.4,44.8v305.7C386.7,567,376.2,574.94,363.3,567.54Z"/><path class="cls-17" d="M363.3,199.34,32.7,7.74C19.8.24,9.3,8.24,9.3,25.44v13.1l377.5,218.8v-13.2C386.7,226.84,376.2,206.74,363.3,199.34Z"/><path class="cls-18" d="M365.3,198.24,34.7,6.64C28.5,3,22.8,3,18.6,5.94c3.9-1.6,8.8-1.2,14,1.8l330.6,191.6c12.9,7.5,23.4,27.5,23.4,44.8v305.7c0,9-2.8,15.4-7.4,18.5,5.7-2.4,9.4-9.3,9.4-19.6V243C388.8,225.74,378.3,205.64,365.3,198.24Z"/><path class="cls-19" d="M65.3,48.14c0,2.9-2,4.1-4.6,2.6a10.26,10.26,0,0,1-4.6-7.9c0-2.9,2-4.1,4.6-2.6A10.26,10.26,0,0,1,65.3,48.14Z"/><path class="cls-19" d="M51.5,40.14c0,2.9-2,4.1-4.6,2.6a10.26,10.26,0,0,1-4.6-7.9c0-2.9,2-4.1,4.6-2.6A10.26,10.26,0,0,1,51.5,40.14Z"/><path class="cls-19" d="M37.7,32.14c0,2.9-2,4.1-4.6,2.6a10.26,10.26,0,0,1-4.6-7.9c0-2.9,2-4.1,4.6-2.6A10.26,10.26,0,0,1,37.7,32.14Z"/><g class="cls-20"><path class="cls-21" d="M94.7,184.44a1,1,0,0,1-.1-1.9,4.77,4.77,0,0,0,2.9-1.2,1,1,0,0,1,1.4,1.4,6.65,6.65,0,0,1-4.2,1.7Zm-3.8-.8a.6.6,0,0,1-.4-.1,10.93,10.93,0,0,1-1.5-.8l-2-1.2a1,1,0,1,1,.9-1.7l2,1.2c.5.3.9.5,1.3.7a1,1,0,0,1,.5,1.3A.84.84,0,0,1,90.9,183.64Zm-6.9-3.8a.9.9,0,0,1-.5-.1l-3.4-2A1,1,0,0,1,81,176l3.4,2a1,1,0,0,1,.4,1.3A.89.89,0,0,1,84,179.84Zm16.1-.3h-.2a1,1,0,0,1-.7-1.2,11.15,11.15,0,0,0,.3-2.7v-1a1,1,0,0,1,2,0v1a11.24,11.24,0,0,1-.4,3.2A1,1,0,0,1,100.1,179.54Zm-23-3.7a.9.9,0,0,1-.5-.1l-3.4-2a1,1,0,1,1,.9-1.7l3.4,2a1,1,0,0,1,.4,1.3C77.8,175.74,77.5,175.84,77.1,175.84Zm-6.8-3.9a.9.9,0,0,1-.5-.1l-3.4-2a1,1,0,1,1,.9-1.7l3.4,2a1,1,0,0,1,.4,1.3A.79.79,0,0,1,70.3,171.94Zm30.2-.2a1,1,0,0,1-1-1v-4a1,1,0,0,1,2,0v3.9C101.4,171.24,101,171.74,100.5,171.74Zm-37-3.7a.9.9,0,0,1-.5-.1l-3.4-2a1,1,0,0,1,.9-1.7l3.4,2a1,1,0,0,1-.4,1.8Zm-6.9-4a.9.9,0,0,1-.5-.1l-3.4-2a1,1,0,1,1,.9-1.7l3.4,2a1,1,0,0,1,.4,1.3C57.3,163.94,57,164,56.6,164Zm43.9-.2a1,1,0,0,1-1-1v-3.9a1,1,0,0,1,2,0v3.9A1.17,1.17,0,0,1,100.5,163.84Zm-50.7-3.7a.9.9,0,0,1-.5-.1l-3.4-2a1,1,0,1,1,.9-1.7l3.4,2a1,1,0,0,1,.4,1.3A.89.89,0,0,1,49.8,160.14Zm-6.8-3.9a.9.9,0,0,1-.5-.1l-3.4-2a1,1,0,1,1,.9-1.7l3.4,2a1,1,0,0,1-.4,1.8Zm57.5-.3a1,1,0,0,1-1-1V151a1,1,0,0,1,2,0v3.9A1.17,1.17,0,0,1,100.5,155.94Zm-64.2-4a1.85,1.85,0,0,1-.7-.2,26.82,26.82,0,0,1-2.8-3,1,1,0,1,1,1.6-1.2,22.26,22.26,0,0,0,2.6,2.7,1.07,1.07,0,0,1,.1,1.4A1.14,1.14,0,0,1,36.3,151.94Zm64.2-3.9a1,1,0,0,1-1-1v-3.9a1,1,0,0,1,2,0V147A1.07,1.07,0,0,1,100.5,148Zm-69.1-2.2a1.19,1.19,0,0,1-.9-.5,25.28,25.28,0,0,1-1.8-3.7,1,1,0,0,1,1.9-.7,21.58,21.58,0,0,0,1.7,3.4.88.88,0,0,1-.4,1.3A.55.55,0,0,1,31.4,145.84Zm69.1-5.7a1,1,0,0,1-1-1v-3.9a1,1,0,0,1,2,0v3.9A1.07,1.07,0,0,1,100.5,140.14Zm-72-1.6a1,1,0,0,1-1-.8,17,17,0,0,1-.4-3.8v-.4a1,1,0,0,1,2,0v.4a13.69,13.69,0,0,0,.4,3.4,1,1,0,0,1-.8,1.2Zm72-6.3a1,1,0,0,1-1-1v-3.9a1,1,0,0,1,2-.2c0,.4.1.9.1,1.3v2.7C101.4,131.84,101,132.24,100.5,132.24Zm-72.4-1.6a1,1,0,0,1-1-1v-3.9a1,1,0,0,1,2,0v3.9A.94.94,0,0,1,28.1,130.64Zm71.6-6.2a1,1,0,0,1-.9-.7,20.94,20.94,0,0,0-1.3-3.5,1,1,0,0,1,1.8-.8,29.93,29.93,0,0,1,1.5,3.8,1,1,0,0,1-.7,1.2Zm-71.6-1.7a1,1,0,0,1-1-1v-3.9a1,1,0,0,1,2,0v3.9A.94.94,0,0,1,28.1,122.74Zm68.2-5.4a1.23,1.23,0,0,1-.8-.4,23.72,23.72,0,0,0-2.3-3,1,1,0,1,1,1.5-1.3,25.12,25.12,0,0,1,2.5,3.2,1,1,0,0,1-.3,1.4C96.7,117.24,96.5,117.34,96.3,117.34Zm-68.2-2.4a1,1,0,0,1-1-1V110a1,1,0,0,1,2,0v3.9A1,1,0,0,1,28.1,114.94Zm62.9-3.4a1.42,1.42,0,0,1-.6-.2,13,13,0,0,0-1.5-1l-1.8-1a1,1,0,0,1,.9-1.7l1.8,1a16.29,16.29,0,0,1,1.7,1.1,1.06,1.06,0,0,1,.2,1.4A.67.67,0,0,1,91,111.54Zm-6.8-4a.9.9,0,0,1-.5-.1l-3.4-2a1,1,0,0,1,.9-1.7l3.4,2A1,1,0,0,1,85,107,.79.79,0,0,1,84.2,107.54ZM28.1,107a1,1,0,0,1-1-1v-3.9a1,1,0,0,1,2,0V106A1,1,0,0,1,28.1,107Zm49.3-3.4a.9.9,0,0,1-.5-.1l-3.4-2a1,1,0,0,1,.9-1.7l3.4,2a1,1,0,0,1,.4,1.3A.89.89,0,0,1,77.4,103.64Zm-6.8-4a.9.9,0,0,1-.5-.1l-3.4-2a1,1,0,0,1,.9-1.7l3.4,2a1,1,0,0,1,.4,1.3A.82.82,0,0,1,70.6,99.64Zm-42.5-.5a1,1,0,0,1-1-1v-3.9a1,1,0,0,1,2,0v3.9A1,1,0,0,1,28.1,99.14Zm35.6-3.4a.9.9,0,0,1-.5-.1l-3.4-2a1,1,0,0,1,.9-1.7l3.4,2a1,1,0,0,1,.4,1.3A.79.79,0,0,1,63.7,95.74Zm-6.8-3.9a.9.9,0,0,1-.5-.1l-3.4-2a1,1,0,0,1,.9-1.7l3.4,2a1,1,0,0,1,.4,1.3A.89.89,0,0,1,56.9,91.84Zm-28.8-.6a1,1,0,0,1-1-1v-4a.87.87,0,0,1,1-.9.92.92,0,0,1,.9,1v3.9A.86.86,0,0,1,28.1,91.24ZM50,87.84a.9.9,0,0,1-.5-.1l-3.4-2A1,1,0,0,1,47,84l3.4,2a1,1,0,0,1,.4,1.3A.79.79,0,0,1,50,87.84Zm-6.8-3.9a.9.9,0,0,1-.5-.1l-3.4-2c-.1-.1-.2-.1-.3-.2s-.2-.1-.4-.1a10.71,10.71,0,0,0-3.3-1.3,1,1,0,1,1,.3-1.9,11.62,11.62,0,0,1,4,1.5c.1.1.2.1.3.2s.2.1.3.1l3.4,2a1,1,0,0,1,.4,1.3A.79.79,0,0,1,43.2,83.94ZM29,83.44a.6.6,0,0,1-.4-.1,1,1,0,0,1-.5-1.3,7.12,7.12,0,0,1,3.1-3.3,1,1,0,0,1,.8,1.8,5.44,5.44,0,0,0-2.2,2.3A.76.76,0,0,1,29,83.44Z"/></g><g class="cls-20"><path class="cls-21" d="M180.6,233.74a1,1,0,0,1-.1-1.9,4.77,4.77,0,0,0,2.9-1.2,1,1,0,1,1,1.4,1.4,6.89,6.89,0,0,1-4.2,1.7Zm-3.9-.8a.6.6,0,0,1-.4-.1,10.93,10.93,0,0,1-1.5-.8l-2-1.2a1,1,0,1,1,.9-1.7l2,1.2c.5.3.9.5,1.3.7a1,1,0,0,1,.5,1.3C177.5,232.64,177.1,232.94,176.7,232.94Zm-6.9-3.9a.9.9,0,0,1-.5-.1l-3.4-2a1,1,0,1,1,.9-1.7l3.4,2a1,1,0,0,1,.4,1.3A.79.79,0,0,1,169.8,229Zm16.2-.2h-.2a1,1,0,0,1-.7-1.2,11.15,11.15,0,0,0,.3-2.7v-1a1,1,0,0,1,1-1,.94.94,0,0,1,1,1v1a11.24,11.24,0,0,1-.4,3.2A1.2,1.2,0,0,1,186,228.84Zm-23-3.7a.9.9,0,0,1-.5-.1l-3.4-2a1,1,0,1,1,.9-1.7l3.4,2a1,1,0,0,1,.4,1.3A.79.79,0,0,1,163,225.14Zm-6.8-4a.9.9,0,0,1-.5-.1l-3.4-2a1,1,0,0,1,.9-1.7l3.4,2a1,1,0,0,1,.4,1.3A.82.82,0,0,1,156.2,221.14Zm30.1-.2a1,1,0,0,1-1-1V216a1,1,0,0,1,1-1,.94.94,0,0,1,1,1v3.9A.94.94,0,0,1,186.3,220.94Zm-37-3.7a.9.9,0,0,1-.5-.1l-3.4-2a1,1,0,1,1,.9-1.7l3.4,2a1,1,0,0,1,.4,1.3A.79.79,0,0,1,149.3,217.24Zm-6.8-3.9a.9.9,0,0,1-.5-.1l-3.4-2a1,1,0,1,1,.9-1.7l3.4,2a1,1,0,0,1,.4,1.3A.89.89,0,0,1,142.5,213.34Zm43.8-.3a1,1,0,0,1-1-1v-3.9a1,1,0,0,1,1-1,.94.94,0,0,1,1,1V212A.94.94,0,0,1,186.3,213Zm-50.6-3.7a.9.9,0,0,1-.5-.1l-3.4-2a1,1,0,1,1,.9-1.7l3.4,2a1,1,0,0,1,.4,1.3A.82.82,0,0,1,135.7,209.34Zm-6.9-3.9a.9.9,0,0,1-.5-.1l-3.4-2a1,1,0,1,1,.9-1.7l3.4,2a1,1,0,0,1,.4,1.3A.79.79,0,0,1,128.8,205.44Zm57.5-.3a1,1,0,0,1-1-1v-3.9a1,1,0,0,1,1-1,.94.94,0,0,1,1,1v3.9A.94.94,0,0,1,186.3,205.14Zm-64.1-3.9a1.85,1.85,0,0,1-.7-.2,26.82,26.82,0,0,1-2.8-3,1,1,0,0,1,1.6-1.2,22.26,22.26,0,0,0,2.6,2.7,1.07,1.07,0,0,1,.1,1.4C122.7,201,122.5,201.24,122.2,201.24Zm64.1-4a1,1,0,0,1-1-1v-3.9a1,1,0,0,1,1-1,.94.94,0,0,1,1,1v3.9A.94.94,0,0,1,186.3,197.24Zm-69-2.2a1.19,1.19,0,0,1-.9-.5,25.28,25.28,0,0,1-1.8-3.7,1,1,0,1,1,1.9-.7,21.58,21.58,0,0,0,1.7,3.4.88.88,0,0,1-.4,1.3A.65.65,0,0,1,117.3,195Zm69-5.6a1,1,0,0,1-1-1v-3.9a1,1,0,0,1,1-1,.94.94,0,0,1,1,1v3.9A1,1,0,0,1,186.3,189.44Zm-71.9-1.7a1,1,0,0,1-1-.8,17,17,0,0,1-.4-3.8v-.4a1,1,0,0,1,2,0v.4a13.69,13.69,0,0,0,.4,3.4,1,1,0,0,1-.8,1.2Zm71.9-6.2a1,1,0,0,1-1-1v-3.9a1,1,0,0,1,2-.2c0,.4.1.9.1,1.3v2.7A1.18,1.18,0,0,1,186.3,181.54Zm-72.3-1.6a1,1,0,0,1-1-1V175a1,1,0,1,1,2,0v3.9A1.08,1.08,0,0,1,114,179.94Zm71.6-6.3a1,1,0,0,1-.9-.7,20.94,20.94,0,0,0-1.3-3.5,1,1,0,0,1,1.8-.8,29.93,29.93,0,0,1,1.5,3.8,1,1,0,0,1-.7,1.2ZM114,172a1,1,0,0,1-1-1v-3.9a1,1,0,0,1,2,0V171A1.08,1.08,0,0,1,114,172Zm68.2-5.5a1.23,1.23,0,0,1-.8-.4,23.72,23.72,0,0,0-2.3-3,1,1,0,1,1,1.5-1.3,25.12,25.12,0,0,1,2.5,3.2,1,1,0,0,1-.3,1.4A1.27,1.27,0,0,1,182.2,166.54Zm-68.2-2.4a1,1,0,0,1-1-1v-3.9a1,1,0,0,1,2,0v3.9A1,1,0,0,1,114,164.14Zm62.9-3.3a1.42,1.42,0,0,1-.6-.2,13,13,0,0,0-1.5-1l-1.8-1a1,1,0,1,1,.9-1.7l1.8,1a16.29,16.29,0,0,1,1.7,1.1,1.06,1.06,0,0,1,.2,1.4A.84.84,0,0,1,176.9,160.84Zm-6.8-4.1a.9.9,0,0,1-.5-.1l-3.4-2a1,1,0,0,1,.9-1.7l3.4,2a1,1,0,0,1,.4,1.3A.75.75,0,0,1,170.1,156.74Zm-56.1-.5a1,1,0,0,1-1-1v-3.9a1,1,0,0,1,2,0v3.9A1,1,0,0,1,114,156.24Zm49.3-3.4a.9.9,0,0,1-.5-.1l-3.4-2a1,1,0,1,1,.9-1.7l3.4,2a1,1,0,0,1-.4,1.8Zm-6.9-3.9a.9.9,0,0,1-.5-.1l-3.4-2a1,1,0,1,1,.9-1.7l3.4,2a1,1,0,0,1,.4,1.3A.79.79,0,0,1,156.4,148.94Zm-42.4-.6a1,1,0,0,1-1-1v-3.9a1,1,0,0,1,2,0v3.9A1,1,0,0,1,114,148.34Zm35.6-3.4a.9.9,0,0,1-.5-.1l-3.4-2a1,1,0,0,1,.9-1.7l3.4,2a1,1,0,0,1,.4,1.3A.75.75,0,0,1,149.6,144.94Zm-6.9-3.9a.9.9,0,0,1-.5-.1l-3.4-2a1,1,0,1,1,.9-1.7l3.4,2a1,1,0,0,1,.4,1.3A.79.79,0,0,1,142.7,141Zm-28.7-.6a1,1,0,0,1-1-1v-4a.87.87,0,0,1,1-.9.92.92,0,0,1,.9,1v3.9A.87.87,0,0,1,114,140.44Zm21.9-3.3a.9.9,0,0,1-.5-.1l-3.4-2a1,1,0,1,1,.9-1.7l3.4,2a1,1,0,0,1,.4,1.3A.79.79,0,0,1,135.9,137.14Zm-6.8-4a.9.9,0,0,1-.5-.1l-3.4-2c-.1-.1-.2-.1-.3-.2s-.2-.1-.4-.1a10.71,10.71,0,0,0-3.3-1.3,1,1,0,0,1,.3-1.9,11.62,11.62,0,0,1,4,1.5c.1.1.2.1.3.2s.2.1.3.1l3.4,2a1,1,0,0,1,.4,1.3A.82.82,0,0,1,129.1,133.14Zm-14.2-.4a.6.6,0,0,1-.4-.1,1,1,0,0,1-.5-1.3,7.12,7.12,0,0,1,3.1-3.3,1,1,0,0,1,.8,1.8,5.44,5.44,0,0,0-2.2,2.3A.84.84,0,0,1,114.9,132.74Z"/></g><g class="cls-20"><path class="cls-21" d="M266.4,282.94a1,1,0,0,1-.1-1.9,4.77,4.77,0,0,0,2.9-1.2,1,1,0,0,1,1.4,1.4,5.89,5.89,0,0,1-4.2,1.7Zm-3.9-.7a.6.6,0,0,1-.4-.1,10.93,10.93,0,0,1-1.5-.8l-2-1.2a1,1,0,0,1,.9-1.7l2,1.2c.5.3.9.5,1.3.7a1,1,0,0,1,.5,1.3C263.3,281.94,262.9,282.24,262.5,282.24Zm-6.8-3.9a.9.9,0,0,1-.5-.1l-3.4-2a1,1,0,1,1,.9-1.7l3.4,2a1,1,0,0,1-.4,1.8Zm16.1-.2h-.2a1,1,0,0,1-.7-1.2,11.15,11.15,0,0,0,.3-2.7v-1a1,1,0,0,1,2,0v1a11.24,11.24,0,0,1-.4,3.2A1.2,1.2,0,0,1,271.8,278.14Zm-23-3.7a.9.9,0,0,1-.5-.1l-3.4-2a1,1,0,1,1,.9-1.7l3.4,2a1,1,0,0,1,.4,1.3A.79.79,0,0,1,248.8,274.44Zm-6.8-4a.9.9,0,0,1-.5-.1l-3.4-2a1,1,0,1,1,.9-1.7l3.4,2a1,1,0,0,1,.4,1.3A.89.89,0,0,1,242,270.44Zm30.1-.2a1,1,0,0,1-1-1v-3.9a1,1,0,0,1,2,0v3.9A.94.94,0,0,1,272.1,270.24Zm-36.9-3.7a.9.9,0,0,1-.5-.1l-3.4-2a1,1,0,1,1,.9-1.7l3.4,2a1,1,0,0,1-.4,1.8Zm-6.9-3.9a.9.9,0,0,1-.5-.1l-3.4-2a1,1,0,1,1,.9-1.7l3.4,2a1,1,0,0,1,.4,1.3A.79.79,0,0,1,228.3,262.64Zm43.8-.3a1,1,0,0,1-1-1v-3.9a1,1,0,1,1,2,0v3.9A.94.94,0,0,1,272.1,262.34Zm-50.6-3.7a.9.9,0,0,1-.5-.1l-3.4-2a1,1,0,1,1,.9-1.7l3.4,2a1,1,0,0,1-.4,1.8Zm-6.9-3.9a.9.9,0,0,1-.5-.1l-3.4-2a1,1,0,1,1,.9-1.7l3.4,2a1,1,0,0,1,.4,1.3A.79.79,0,0,1,214.6,254.74Zm57.5-.3a1,1,0,0,1-1-1v-3.9a1,1,0,1,1,2,0v3.9A.94.94,0,0,1,272.1,254.44Zm-64.1-4a1.85,1.85,0,0,1-.7-.2,26.82,26.82,0,0,1-2.8-3,1,1,0,0,1,1.6-1.2,22.26,22.26,0,0,0,2.6,2.7,1.07,1.07,0,0,1,.1,1.4A1.14,1.14,0,0,1,208,250.44Zm64.1-3.9a1,1,0,0,1-1-1v-3.9a1,1,0,0,1,2,0v3.9A.94.94,0,0,1,272.1,246.54Zm-69-2.2a1.19,1.19,0,0,1-.9-.5,25.28,25.28,0,0,1-1.8-3.7,1,1,0,1,1,1.9-.7,21.58,21.58,0,0,0,1.7,3.4.88.88,0,0,1-.4,1.3A.65.65,0,0,1,203.1,244.34Zm69-5.7a1,1,0,0,1-1-1v-3.9a1,1,0,0,1,2,0v3.9A.94.94,0,0,1,272.1,238.64ZM200.2,237a1,1,0,0,1-1-.8,17,17,0,0,1-.4-3.8V232a1,1,0,0,1,2,0v.4a13.69,13.69,0,0,0,.4,3.4,1,1,0,0,1-.8,1.2Zm71.9-6.2a1,1,0,0,1-1-1v-3.9a1.17,1.17,0,0,1,.9-1.1c.5-.1,1,.4,1.1.9s.1.9.1,1.3v2.7A1.18,1.18,0,0,1,272.1,230.84Zm-72.3-1.6a1,1,0,0,1-1-1v-3.9a1,1,0,1,1,2,0v3.9A1,1,0,0,1,199.8,229.24Zm71.6-6.3a1,1,0,0,1-.9-.7,20.94,20.94,0,0,0-1.3-3.5,1,1,0,0,1,1.8-.8,37.25,37.25,0,0,1,1.5,3.8,1,1,0,0,1-.7,1.2Zm-71.6-1.6a1,1,0,0,1-1-1v-3.9a1,1,0,0,1,2,0v3.9A1,1,0,0,1,199.8,221.34Zm68.2-5.5a1.23,1.23,0,0,1-.8-.4,23.72,23.72,0,0,0-2.3-3,1,1,0,0,1,1.5-1.3,25.12,25.12,0,0,1,2.5,3.2,1,1,0,0,1-.3,1.4A1.27,1.27,0,0,1,268,215.84Zm-68.2-2.4a1,1,0,0,1-1-1v-3.9a1,1,0,0,1,2,0v3.9A1,1,0,0,1,199.8,213.44Zm62.9-3.3a1.42,1.42,0,0,1-.6-.2,13,13,0,0,0-1.5-1l-1.8-1a1,1,0,0,1,.9-1.7l1.8,1a16.29,16.29,0,0,1,1.7,1.1,1.06,1.06,0,0,1,.2,1.4A.84.84,0,0,1,262.7,210.14Zm-6.8-4.1a.9.9,0,0,1-.5-.1l-3.4-2a1,1,0,1,1,.9-1.7l3.4,2a1,1,0,0,1,.4,1.3C256.6,205.94,256.3,206,255.9,206Zm-56.1-.5a1,1,0,0,1-1-1v-3.9a1,1,0,0,1,2,0v3.9A.94.94,0,0,1,199.8,205.54Zm49.3-3.4a.9.9,0,0,1-.5-.1l-3.4-2a1,1,0,1,1,.9-1.7l3.4,2a1,1,0,0,1-.4,1.8Zm-6.9-3.9a.9.9,0,0,1-.5-.1l-3.4-2a1,1,0,0,1,.9-1.7l3.4,2a1,1,0,0,1,.4,1.3A.79.79,0,0,1,242.2,198.24Zm-42.4-.6a1,1,0,0,1-1-1v-3.9a1,1,0,0,1,2,0v3.9A.94.94,0,0,1,199.8,197.64Zm35.6-3.4a.9.9,0,0,1-.5-.1l-3.4-2a1,1,0,1,1,.9-1.7l3.4,2a1,1,0,0,1,.4,1.3A.89.89,0,0,1,235.4,194.24Zm-6.8-3.9a.9.9,0,0,1-.5-.1l-3.4-2a1,1,0,0,1,.9-1.7l3.4,2a1,1,0,0,1-.4,1.8Zm-28.8-.6a1,1,0,0,1-1-1v-4a.87.87,0,0,1,1-.9.92.92,0,0,1,.9,1v3.9A.83.83,0,0,1,199.8,189.74Zm21.9-3.3a.9.9,0,0,1-.5-.1l-3.4-2a1,1,0,1,1,.9-1.7l3.4,2a1,1,0,0,1,.4,1.3A.79.79,0,0,1,221.7,186.44Zm-6.8-4a.9.9,0,0,1-.5-.1l-3.4-2c-.1-.1-.2-.1-.3-.2s-.2-.1-.3-.1a10.71,10.71,0,0,0-3.3-1.3,1,1,0,0,1,.3-1.9,11.62,11.62,0,0,1,4,1.5c.1.1.2.1.3.2s.2.1.3.1l3.4,2a1,1,0,0,1,.4,1.3A1.19,1.19,0,0,1,214.9,182.44Zm-14.2-.5a.6.6,0,0,1-.4-.1,1,1,0,0,1-.5-1.3,7.12,7.12,0,0,1,3.1-3.3,1,1,0,0,1,.8,1.8,4.92,4.92,0,0,0-2.2,2.3A.84.84,0,0,1,200.7,181.94Z"/></g><g class="cls-20"><path class="cls-21" d="M94.7,271.44a1,1,0,0,1-.1-1.9,4.77,4.77,0,0,0,2.9-1.2,1,1,0,1,1,1.4,1.4,6.65,6.65,0,0,1-4.2,1.7Zm-3.8-.8a.6.6,0,0,1-.4-.1,10.93,10.93,0,0,1-1.5-.8l-2-1.2a1,1,0,1,1,.9-1.7l2,1.2c.5.3.9.5,1.3.7a1,1,0,0,1,.5,1.3A.84.84,0,0,1,90.9,270.64Zm-6.9-3.9a.9.9,0,0,1-.5-.1l-3.4-2a1,1,0,1,1,.9-1.7l3.4,2a1,1,0,0,1,.4,1.3A.75.75,0,0,1,84,266.74Zm16.1-.2h-.2a1,1,0,0,1-.7-1.2,11.15,11.15,0,0,0,.3-2.7v-1a1,1,0,0,1,2,0v1a11.24,11.24,0,0,1-.4,3.2A1,1,0,0,1,100.1,266.54Zm-23-3.7a.9.9,0,0,1-.5-.1l-3.4-2a1,1,0,1,1,.9-1.7l3.4,2a1,1,0,0,1,.4,1.3A.79.79,0,0,1,77.1,262.84Zm-6.8-3.9a.9.9,0,0,1-.5-.1l-3.4-2a1,1,0,1,1,.9-1.7l3.4,2a1,1,0,0,1,.4,1.3A.79.79,0,0,1,70.3,258.94Zm30.2-.3a1,1,0,0,1-1-1v-3.9a1,1,0,0,1,2,0v3.9A1.07,1.07,0,0,1,100.5,258.64Zm-37-3.7a.9.9,0,0,1-.5-.1l-3.4-2a1,1,0,1,1,.9-1.7l3.4,2a1,1,0,0,1,.4,1.3A.82.82,0,0,1,63.5,254.94ZM56.6,251a.9.9,0,0,1-.5-.1l-3.4-2a1,1,0,1,1,.9-1.7l3.4,2a1,1,0,0,1,.4,1.3A.79.79,0,0,1,56.6,251Zm43.9-.3a1,1,0,0,1-1-1v-3.9a1,1,0,0,1,2,0v3.9A1.07,1.07,0,0,1,100.5,250.74Zm-50.7-3.6a.9.9,0,0,1-.5-.1l-3.4-2a1,1,0,1,1,.9-1.7l3.4,2a1,1,0,0,1,.4,1.3A.89.89,0,0,1,49.8,247.14Zm-6.8-4a.9.9,0,0,1-.5-.1l-3.4-2a1,1,0,1,1,.9-1.7l3.4,2a1,1,0,0,1,.4,1.3A.82.82,0,0,1,43,243.14Zm57.5-.2a1,1,0,0,1-1-1V238a1,1,0,1,1,2,0v3.9A1.17,1.17,0,0,1,100.5,242.94Zm-64.2-4a1.85,1.85,0,0,1-.7-.2,26.82,26.82,0,0,1-2.8-3,1,1,0,1,1,1.6-1.2,22.26,22.26,0,0,0,2.6,2.7,1.07,1.07,0,0,1,.1,1.4A1.14,1.14,0,0,1,36.3,238.94Zm64.2-3.9a1,1,0,0,1-1-1v-3.9a1,1,0,0,1,2,0V234A1.17,1.17,0,0,1,100.5,235Zm-69.1-2.2a1.19,1.19,0,0,1-.9-.5,25.28,25.28,0,0,1-1.8-3.7,1,1,0,0,1,1.9-.7,21.58,21.58,0,0,0,1.7,3.4.88.88,0,0,1-.4,1.3C31.7,232.74,31.6,232.84,31.4,232.84Zm69.1-5.7a1,1,0,0,1-1-1v-3.9a1,1,0,0,1,2,0v3.9A1.17,1.17,0,0,1,100.5,227.14Zm-72-1.6a1,1,0,0,1-1-.8,17,17,0,0,1-.4-3.8v-.4a1,1,0,0,1,2,0v.4a13.69,13.69,0,0,0,.4,3.4,1,1,0,0,1-.8,1.2Zm72-6.3a1,1,0,0,1-1-1v-3.9a1,1,0,0,1,2-.2c0,.5.1.9.1,1.3v2.7C101.4,218.84,101,219.24,100.5,219.24Zm-72.4-1.6a1,1,0,0,1-1-1v-3.9a1,1,0,0,1,2,0v3.9A.94.94,0,0,1,28.1,217.64Zm71.6-6.2a1,1,0,0,1-.9-.7,20.94,20.94,0,0,0-1.3-3.5,1,1,0,0,1,1.8-.8,29.93,29.93,0,0,1,1.5,3.8,1,1,0,0,1-.7,1.2Zm-71.6-1.7a1,1,0,0,1-1-1v-3.9a1,1,0,0,1,2,0v3.9A.94.94,0,0,1,28.1,209.74Zm68.2-5.4a1.23,1.23,0,0,1-.8-.4,23.72,23.72,0,0,0-2.3-3,1,1,0,1,1,1.5-1.3,39.19,39.19,0,0,1,2.5,3.2,1,1,0,0,1-.3,1.4C96.7,204.24,96.5,204.34,96.3,204.34Zm-68.2-2.5a1,1,0,0,1-1-1v-3.9a1,1,0,0,1,2,0v3.9A.94.94,0,0,1,28.1,201.84Zm62.9-3.3a1.42,1.42,0,0,1-.6-.2,13,13,0,0,0-1.5-1l-1.8-1a1,1,0,0,1,.9-1.7l1.8,1a16.29,16.29,0,0,1,1.7,1.1,1.06,1.06,0,0,1,.2,1.4A.67.67,0,0,1,91,198.54Zm-6.8-4a.9.9,0,0,1-.5-.1l-3.4-2a1,1,0,0,1,.9-1.7l3.4,2A1,1,0,0,1,85,194,.79.79,0,0,1,84.2,194.54Zm-56.1-.6a1,1,0,0,1-1-1V189a1,1,0,0,1,2,0v3.9A.94.94,0,0,1,28.1,193.94Zm49.3-3.4a.9.9,0,0,1-.5-.1l-3.4-2a1,1,0,1,1,.9-1.7l3.4,2a1,1,0,0,1,.4,1.3A.75.75,0,0,1,77.4,190.54Zm-6.8-3.9a.9.9,0,0,1-.5-.1l-3.4-2a1,1,0,1,1,.9-1.7l3.4,2a1,1,0,0,1-.4,1.8Zm-42.5-.5a1,1,0,0,1-1-1v-3.9a1,1,0,0,1,2,0v3.9A1,1,0,0,1,28.1,186.14Zm35.6-3.4a.9.9,0,0,1-.5-.1l-3.4-2a1,1,0,1,1,.9-1.7l3.4,2a1,1,0,0,1,.4,1.3A.79.79,0,0,1,63.7,182.74Zm-6.8-4a.9.9,0,0,1-.5-.1l-3.4-2a1,1,0,1,1,.9-1.7l3.4,2a1,1,0,0,1,.4,1.3A.75.75,0,0,1,56.9,178.74Zm-28.8-.5a1,1,0,0,1-1-1v-3.9a.87.87,0,0,1,1-.9.92.92,0,0,1,.9,1v3.9C29.1,177.74,28.7,178.24,28.1,178.24Zm21.9-3.4a.9.9,0,0,1-.5-.1l-3.4-2A1,1,0,0,1,47,171l3.4,2a1,1,0,0,1,.4,1.3A.79.79,0,0,1,50,174.84Zm-6.8-3.9a.9.9,0,0,1-.5-.1l-3.4-2c-.1-.1-.2-.1-.3-.2s-.2-.1-.3-.1a10.71,10.71,0,0,0-3.3-1.3,1,1,0,1,1,.3-1.9,11.62,11.62,0,0,1,4,1.5c.1.1.2.1.3.2s.2.1.3.1l3.4,2a1,1,0,0,1,.4,1.3A1.19,1.19,0,0,1,43.2,170.94Zm-14.2-.5a.6.6,0,0,1-.4-.1,1,1,0,0,1-.5-1.3,7.12,7.12,0,0,1,3.1-3.3,1,1,0,1,1,.8,1.8,5.44,5.44,0,0,0-2.2,2.3A.76.76,0,0,1,29,170.44Z"/></g><g class="cls-20"><path class="cls-21" d="M180.6,320.64a1,1,0,0,1-.1-1.9,4.77,4.77,0,0,0,2.9-1.2,1,1,0,1,1,1.4,1.4,6.35,6.35,0,0,1-4.2,1.7Zm-3.9-.8a.6.6,0,0,1-.4-.1,10.93,10.93,0,0,1-1.5-.8l-2-1.2a1,1,0,1,1,.9-1.7l2,1.2c.5.3.9.5,1.3.7a1,1,0,0,1,.5,1.3C177.5,319.64,177.1,319.84,176.7,319.84Zm-6.9-3.8a.9.9,0,0,1-.5-.1l-3.4-2a1,1,0,1,1,.9-1.7l3.4,2a1,1,0,0,1,.4,1.3A.79.79,0,0,1,169.8,316Zm16.2-.3h-.2a1,1,0,0,1-.7-1.2,11.15,11.15,0,0,0,.3-2.7v-1a1,1,0,0,1,1-1,.94.94,0,0,1,1,1v1a11.24,11.24,0,0,1-.4,3.2A1.2,1.2,0,0,1,186,315.74Zm-23-3.6a.9.9,0,0,1-.5-.1l-3.4-2a1,1,0,1,1,.9-1.7l3.4,2a1,1,0,0,1,.4,1.3A.79.79,0,0,1,163,312.14Zm-6.8-4a.9.9,0,0,1-.5-.1l-3.4-2a1,1,0,1,1,.9-1.7l3.4,2a1,1,0,0,1-.4,1.8Zm30.1-.2a1,1,0,0,1-1-1V303a1,1,0,0,1,1-1,.94.94,0,0,1,1,1v3.9A1,1,0,0,1,186.3,307.94Zm-37-3.7a.9.9,0,0,1-.5-.1l-3.4-2a1,1,0,1,1,.9-1.7l3.4,2a1,1,0,0,1,.4,1.3A.79.79,0,0,1,149.3,304.24Zm-6.8-4a.9.9,0,0,1-.5-.1l-3.4-2a1,1,0,1,1,.9-1.7l3.4,2a1,1,0,0,1,.4,1.3A.75.75,0,0,1,142.5,300.24Zm43.8-.2a1,1,0,0,1-1-1v-3.9a1,1,0,0,1,1-1,.94.94,0,0,1,1,1V299A.94.94,0,0,1,186.3,300Zm-50.6-3.7a.9.9,0,0,1-.5-.1l-3.4-2a1,1,0,1,1,.9-1.7l3.4,2a1,1,0,0,1-.4,1.8Zm-6.9-3.9a.9.9,0,0,1-.5-.1l-3.4-2a1,1,0,0,1,.9-1.7l3.4,2a1,1,0,0,1,.4,1.3A.79.79,0,0,1,128.8,292.44Zm57.5-.3a1,1,0,0,1-1-1v-3.9a1,1,0,0,1,1-1,.94.94,0,0,1,1,1v3.9A.94.94,0,0,1,186.3,292.14Zm-64.1-4a1.85,1.85,0,0,1-.7-.2,26.82,26.82,0,0,1-2.8-3,1,1,0,0,1,1.6-1.2,22.26,22.26,0,0,0,2.6,2.7,1.07,1.07,0,0,1,.1,1.4A1.33,1.33,0,0,1,122.2,288.14Zm64.1-3.9a1,1,0,0,1-1-1v-3.9a1,1,0,0,1,1-1,.94.94,0,0,1,1,1v3.9A.94.94,0,0,1,186.3,284.24Zm-69-2.2a1.19,1.19,0,0,1-.9-.5,25.28,25.28,0,0,1-1.8-3.7,1,1,0,0,1,1.9-.7,21.58,21.58,0,0,0,1.7,3.4.88.88,0,0,1-.4,1.3A.65.65,0,0,1,117.3,282Zm69-5.7a1,1,0,0,1-1-1v-3.9a1,1,0,0,1,1-1,.94.94,0,0,1,1,1v3.9A.94.94,0,0,1,186.3,276.34Zm-71.9-1.6a1,1,0,0,1-1-.8,17,17,0,0,1-.4-3.8v-.4a1,1,0,0,1,2,0v.4a13.69,13.69,0,0,0,.4,3.4,1,1,0,0,1-.8,1.2Zm71.9-6.3a1,1,0,0,1-1-1v-3.9a1,1,0,1,1,2-.2c0,.4.1.9.1,1.3v2.7C187.3,268,186.9,268.44,186.3,268.44Zm-72.3-1.5a1,1,0,0,1-1-1V262a1,1,0,0,1,2,0v3.9A1.08,1.08,0,0,1,114,266.94Zm71.6-6.3a1,1,0,0,1-.9-.7,20.94,20.94,0,0,0-1.3-3.5,1,1,0,0,1,1.8-.8,29.93,29.93,0,0,1,1.5,3.8,1,1,0,0,1-.7,1.2ZM114,259a1,1,0,0,1-1-1v-3.9a1,1,0,0,1,2,0V258A1.08,1.08,0,0,1,114,259Zm68.2-5.5a1.23,1.23,0,0,1-.8-.4,23.72,23.72,0,0,0-2.3-3,1,1,0,1,1,1.5-1.3,39.19,39.19,0,0,1,2.5,3.2,1,1,0,0,1-.3,1.4A1.27,1.27,0,0,1,182.2,253.54Zm-68.2-2.4a1,1,0,0,1-1-1v-3.9a1,1,0,0,1,2,0v3.9A1.08,1.08,0,0,1,114,251.14Zm62.9-3.3a1.42,1.42,0,0,1-.6-.2,13,13,0,0,0-1.5-1l-1.8-1a1,1,0,1,1,.9-1.7l1.8,1a16.29,16.29,0,0,1,1.7,1.1,1.06,1.06,0,0,1,.2,1.4A.84.84,0,0,1,176.9,247.84Zm-6.8-4.1a.9.9,0,0,1-.5-.1l-3.4-2a1,1,0,1,1,.9-1.7l3.4,2a1,1,0,0,1,.4,1.3A.89.89,0,0,1,170.1,243.74Zm-56.1-.5a1,1,0,0,1-1-1v-3.9a1,1,0,0,1,2,0v3.9A1.08,1.08,0,0,1,114,243.24Zm49.3-3.4a.9.9,0,0,1-.5-.1l-3.4-2a1,1,0,1,1,.9-1.7l3.4,2a1,1,0,0,1-.4,1.8Zm-6.9-4a.9.9,0,0,1-.5-.1l-3.4-2a1,1,0,1,1,.9-1.7l3.4,2a1,1,0,0,1,.4,1.3C157.1,235.74,156.8,235.84,156.4,235.84Zm-42.4-.5a1,1,0,0,1-1-1v-3.9a1,1,0,0,1,2,0v3.9A1,1,0,0,1,114,235.34Zm35.6-3.4a.9.9,0,0,1-.5-.1l-3.4-2a1,1,0,0,1,.9-1.7l3.4,2a1,1,0,0,1,.4,1.3A.89.89,0,0,1,149.6,231.94Zm-6.9-3.9a.9.9,0,0,1-.5-.1l-3.4-2a1,1,0,1,1,.9-1.7l3.4,2a1,1,0,0,1,.4,1.3A.79.79,0,0,1,142.7,228Zm-28.7-.6a1,1,0,0,1-1-1v-4a.87.87,0,0,1,1-.9.92.92,0,0,1,.9,1v3.9A.87.87,0,0,1,114,227.44Zm21.9-3.4a.9.9,0,0,1-.5-.1l-3.4-2a1,1,0,1,1,.9-1.7l3.4,2a1,1,0,0,1,.4,1.3C136.6,223.94,136.3,224,135.9,224Zm-6.8-3.9a.9.9,0,0,1-.5-.1l-3.4-2c-.1-.1-.2-.1-.3-.2s-.2-.1-.3-.1a10.71,10.71,0,0,0-3.3-1.3,1,1,0,1,1,.3-1.9,11.62,11.62,0,0,1,4,1.5c.1.1.2.1.3.2s.2.1.3.1l3.4,2a1,1,0,0,1,.4,1.3A1.38,1.38,0,0,1,129.1,220.14Zm-14.2-.5a.6.6,0,0,1-.4-.1,1,1,0,0,1-.5-1.3,7.12,7.12,0,0,1,3.1-3.3,1,1,0,0,1,.8,1.8,5.44,5.44,0,0,0-2.2,2.3A.84.84,0,0,1,114.9,219.64Z"/></g><g class="cls-20"><path class="cls-21" d="M266.4,369.94a1,1,0,0,1-.1-1.9,4.77,4.77,0,0,0,2.9-1.2,1,1,0,0,1,1.4,1.4,6.89,6.89,0,0,1-4.2,1.7Zm-3.9-.8a.6.6,0,0,1-.4-.1,10.93,10.93,0,0,1-1.5-.8l-2-1.2a1,1,0,0,1,.9-1.7l2,1.2c.5.3.9.5,1.3.7a1,1,0,0,1,.5,1.3C263.3,368.94,262.9,369.14,262.5,369.14Zm-6.8-3.8a.9.9,0,0,1-.5-.1l-3.4-2a1,1,0,1,1,.9-1.7l3.4,2a1,1,0,0,1-.4,1.8Zm16.1-.3h-.2a1,1,0,0,1-.7-1.2,11.15,11.15,0,0,0,.3-2.7v-1a1,1,0,0,1,2,0v1a11.24,11.24,0,0,1-.4,3.2A1.09,1.09,0,0,1,271.8,365Zm-23-3.7a.9.9,0,0,1-.5-.1l-3.4-2a1,1,0,1,1,.9-1.7l3.4,2a1,1,0,0,1,.4,1.3C249.5,361.24,249.2,361.34,248.8,361.34Zm-6.8-3.9a.9.9,0,0,1-.5-.1l-3.4-2a1,1,0,1,1,.9-1.7l3.4,2a1,1,0,0,1,.4,1.3A.89.89,0,0,1,242,357.44Zm30.1-.2a1,1,0,0,1-1-1v-3.9a1,1,0,0,1,2,0v3.9A1,1,0,0,1,272.1,357.24Zm-36.9-3.7a.9.9,0,0,1-.5-.1l-3.4-2a1,1,0,1,1,.9-1.7l3.4,2a1,1,0,0,1-.4,1.8Zm-6.9-4a.9.9,0,0,1-.5-.1l-3.4-2a1,1,0,1,1,.9-1.7l3.4,2a1,1,0,0,1,.4,1.3C229,349.44,228.7,349.54,228.3,349.54Zm43.8-.2a1,1,0,0,1-1-1v-3.9a1,1,0,1,1,2,0v3.9A1,1,0,0,1,272.1,349.34Zm-50.6-3.7a.9.9,0,0,1-.5-.1l-3.4-2a1,1,0,1,1,.9-1.7l3.4,2a1,1,0,0,1,.4,1.3A.89.89,0,0,1,221.5,345.64Zm-6.9-3.9a.9.9,0,0,1-.5-.1l-3.4-2a1,1,0,0,1,.9-1.7l3.4,2a1,1,0,0,1,.4,1.3A.79.79,0,0,1,214.6,341.74Zm57.5-.3a1,1,0,0,1-1-1v-3.9a1,1,0,0,1,2,0v3.9A1,1,0,0,1,272.1,341.44Zm-64.1-4a1.85,1.85,0,0,1-.7-.2,26.82,26.82,0,0,1-2.8-3,1,1,0,1,1,1.6-1.2,22.26,22.26,0,0,0,2.6,2.7,1.07,1.07,0,0,1,.1,1.4A1.14,1.14,0,0,1,208,337.44Zm64.1-3.9a1,1,0,0,1-1-1v-3.9a1,1,0,0,1,2,0v3.9A.94.94,0,0,1,272.1,333.54Zm-69-2.2a1.19,1.19,0,0,1-.9-.5,25.28,25.28,0,0,1-1.8-3.7,1,1,0,1,1,1.9-.7,21.58,21.58,0,0,0,1.7,3.4.88.88,0,0,1-.4,1.3A.65.65,0,0,1,203.1,331.34Zm69-5.7a1,1,0,0,1-1-1v-3.9a1,1,0,0,1,2,0v3.9A.94.94,0,0,1,272.1,325.64ZM200.2,324a1,1,0,0,1-1-.8,17,17,0,0,1-.4-3.8V319a1,1,0,0,1,2,0v.4a13.69,13.69,0,0,0,.4,3.4,1,1,0,0,1-.8,1.2Zm71.9-6.3a1,1,0,0,1-1-1v-3.9a1,1,0,1,1,2-.2c0,.4.1.9.1,1.3v2.7C273.1,317.34,272.7,317.74,272.1,317.74Zm-72.3-1.6a1,1,0,0,1-1-1v-3.9a1,1,0,0,1,2,0v3.9A.94.94,0,0,1,199.8,316.14Zm71.6-6.2a1,1,0,0,1-.9-.7,20.94,20.94,0,0,0-1.3-3.5,1,1,0,0,1,1.8-.8,29.93,29.93,0,0,1,1.5,3.8,1,1,0,0,1-.7,1.2Zm-71.6-1.7a1,1,0,0,1-1-1v-3.9a1,1,0,0,1,2,0v3.9A.94.94,0,0,1,199.8,308.24Zm68.2-5.4a1.23,1.23,0,0,1-.8-.4,23.72,23.72,0,0,0-2.3-3,1,1,0,0,1,1.5-1.3,25.12,25.12,0,0,1,2.5,3.2,1,1,0,0,1-.3,1.4C268.4,302.74,268.2,302.84,268,302.84Zm-68.2-2.4a1,1,0,0,1-1-1v-3.9a1,1,0,0,1,2,0v3.9A1,1,0,0,1,199.8,300.44Zm62.9-3.4a1.42,1.42,0,0,1-.6-.2,13,13,0,0,0-1.5-1l-1.8-1a1,1,0,0,1,.9-1.7l1.8,1a16.29,16.29,0,0,1,1.7,1.1,1.06,1.06,0,0,1,.2,1.4A.67.67,0,0,1,262.7,297Zm-6.8-4a.9.9,0,0,1-.5-.1l-3.4-2a1,1,0,1,1,.9-1.7l3.4,2a1,1,0,0,1,.4,1.3A.79.79,0,0,1,255.9,293Zm-56.1-.5a1,1,0,0,1-1-1v-3.9a1,1,0,0,1,2,0v3.9A1,1,0,0,1,199.8,292.54Zm49.3-3.4a.9.9,0,0,1-.5-.1l-3.4-2a1,1,0,0,1,.9-1.7l3.4,2a1,1,0,0,1-.4,1.8Zm-6.9-4a.9.9,0,0,1-.5-.1l-3.4-2a1,1,0,1,1,.9-1.7l3.4,2a1,1,0,0,1,.4,1.3C242.9,285,242.6,285.14,242.2,285.14Zm-42.4-.5a1,1,0,0,1-1-1v-3.9a1,1,0,0,1,2,0v3.9A1,1,0,0,1,199.8,284.64Zm35.6-3.4a.9.9,0,0,1-.5-.1l-3.4-2a1,1,0,1,1,.9-1.7l3.4,2a1,1,0,0,1,.4,1.3A.89.89,0,0,1,235.4,281.24Zm-6.8-3.9a.9.9,0,0,1-.5-.1l-3.4-2a1,1,0,0,1,.9-1.7l3.4,2a1,1,0,0,1-.4,1.8Zm-28.8-.6a1,1,0,0,1-1-1v-3.9a1,1,0,0,1,1.9.1v3.9C200.8,276.34,200.4,276.74,199.8,276.74Zm21.9-3.4a.9.9,0,0,1-.5-.1l-3.4-2a1,1,0,1,1,.9-1.7l3.4,2a1,1,0,0,1,.4,1.3C222.4,273.24,222.1,273.34,221.7,273.34Zm-6.8-3.9a.9.9,0,0,1-.5-.1l-3.4-2c-.1-.1-.2-.1-.3-.2s-.2-.1-.3-.1a10.71,10.71,0,0,0-3.3-1.3,1,1,0,0,1,.3-1.9,11.62,11.62,0,0,1,4,1.5c.1.1.2.1.3.2s.2.1.3.1l3.4,2a1,1,0,0,1,.4,1.3A1.19,1.19,0,0,1,214.9,269.44Zm-14.2-.5a.6.6,0,0,1-.4-.1,1,1,0,0,1-.5-1.3,7.12,7.12,0,0,1,3.1-3.3,1,1,0,0,1,.8,1.8,4.92,4.92,0,0,0-2.2,2.3A.84.84,0,0,1,200.7,268.94Z"/></g><g class="cls-20"><path class="cls-21" d="M94.7,356.54a1,1,0,1,1-.1-1.9,4.77,4.77,0,0,0,2.9-1.2,1,1,0,1,1,1.4,1.4,6.65,6.65,0,0,1-4.2,1.7Zm-3.8-.8a.6.6,0,0,1-.4-.1,10.93,10.93,0,0,1-1.5-.8l-2-1.2a1,1,0,1,1,.9-1.7l2,1.2c.5.3.9.5,1.3.7a1,1,0,0,1,.5,1.3A.84.84,0,0,1,90.9,355.74Zm-6.9-3.8a.9.9,0,0,1-.5-.1l-3.4-2a1,1,0,1,1,.9-1.7l3.4,2a1,1,0,0,1,.4,1.3A.89.89,0,0,1,84,351.94Zm16.1-.3h-.2a1,1,0,0,1-.7-1.2,11.15,11.15,0,0,0,.3-2.7v-1a1,1,0,0,1,2,0v1a11.24,11.24,0,0,1-.4,3.2A1,1,0,0,1,100.1,351.64Zm-23-3.7a.9.9,0,0,1-.5-.1l-3.4-2a1,1,0,0,1,.9-1.7l3.4,2a1,1,0,0,1,.4,1.3A.79.79,0,0,1,77.1,347.94ZM70.3,344a.9.9,0,0,1-.5-.1l-3.4-2a1,1,0,1,1,.9-1.7l3.4,2a1,1,0,0,1,.4,1.3A.79.79,0,0,1,70.3,344Zm30.2-.3a1,1,0,0,1-1-1v-3.9a1,1,0,0,1,2,0v3.9A1.07,1.07,0,0,1,100.5,343.74Zm-37-3.7a.9.9,0,0,1-.5-.1l-3.4-2a1,1,0,1,1,.9-1.7l3.4,2a1,1,0,0,1,.4,1.3A.82.82,0,0,1,63.5,340Zm-6.9-3.9a.9.9,0,0,1-.5-.1l-3.4-2a1,1,0,1,1,.9-1.7l3.4,2a1,1,0,0,1,.4,1.3A.79.79,0,0,1,56.6,336.14Zm43.9-.2a1,1,0,0,1-1-1V331a1,1,0,0,1,2,0v3.9A1.17,1.17,0,0,1,100.5,335.94Zm-50.7-3.7a.9.9,0,0,1-.5-.1l-3.4-2a1,1,0,1,1,.9-1.7l3.4,2a1,1,0,0,1,.4,1.3A.89.89,0,0,1,49.8,332.24Zm-6.8-4a.9.9,0,0,1-.5-.1l-3.4-2a1,1,0,1,1,.9-1.7l3.4,2a1,1,0,0,1,.4,1.3A.82.82,0,0,1,43,328.24Zm57.5-.2a1,1,0,0,1-1-1v-3.9a1,1,0,0,1,2,0V327A1.17,1.17,0,0,1,100.5,328Zm-64.2-4a1.85,1.85,0,0,1-.7-.2,26.82,26.82,0,0,1-2.8-3,1,1,0,0,1,1.6-1.2,22.26,22.26,0,0,0,2.6,2.7,1.07,1.07,0,0,1,.1,1.4A1.14,1.14,0,0,1,36.3,324Zm64.2-3.9a1,1,0,0,1-1-1v-3.9a1,1,0,0,1,2,0v3.9A1.17,1.17,0,0,1,100.5,320.14Zm-69.1-2.2a1.19,1.19,0,0,1-.9-.5,25.28,25.28,0,0,1-1.8-3.7,1,1,0,1,1,1.9-.7,21.58,21.58,0,0,0,1.7,3.4.88.88,0,0,1-.4,1.3C31.7,317.84,31.6,317.94,31.4,317.94Zm69.1-5.7a1,1,0,0,1-1-1v-3.9a1,1,0,0,1,2,0v3.9A1.17,1.17,0,0,1,100.5,312.24Zm-72-1.6a1,1,0,0,1-1-.8,17,17,0,0,1-.4-3.8v-.3a1,1,0,0,1,2,0v.4a13.69,13.69,0,0,0,.4,3.4,1,1,0,0,1-.8,1.2C28.6,310.64,28.6,310.64,28.5,310.64Zm72-6.3a1,1,0,0,1-1-1v-3.9a1,1,0,0,1,2-.2c0,.4.1.9.1,1.3v2.7C101.4,303.94,101,304.34,100.5,304.34Zm-72.4-1.6a1,1,0,0,1-1-1v-3.9a1,1,0,0,1,2,0v3.9A.94.94,0,0,1,28.1,302.74Zm71.6-6.2a1,1,0,0,1-.9-.7,20.94,20.94,0,0,0-1.3-3.5,1,1,0,1,1,1.8-.8,29.93,29.93,0,0,1,1.5,3.8,1,1,0,0,1-.7,1.2Zm-71.6-1.7a1,1,0,0,1-1-1v-3.9a1,1,0,0,1,2,0v3.9A.94.94,0,0,1,28.1,294.84Zm68.2-5.4a1.23,1.23,0,0,1-.8-.4,23.72,23.72,0,0,0-2.3-3,1,1,0,1,1,1.5-1.3,39.19,39.19,0,0,1,2.5,3.2,1,1,0,0,1-.3,1.4C96.7,289.34,96.5,289.44,96.3,289.44Zm-68.2-2.5a1,1,0,0,1-1-1V282a1,1,0,0,1,2,0v3.9A.94.94,0,0,1,28.1,286.94Zm62.9-3.3a1.42,1.42,0,0,1-.6-.2,13,13,0,0,0-1.5-1l-1.8-1a1,1,0,1,1,.9-1.7l1.8,1a16.29,16.29,0,0,1,1.7,1.1,1.06,1.06,0,0,1,.2,1.4A.67.67,0,0,1,91,283.64Zm-6.8-4a.9.9,0,0,1-.5-.1l-3.4-2a1,1,0,1,1,.9-1.7l3.4,2a1,1,0,0,1,.4,1.3A.79.79,0,0,1,84.2,279.64ZM28.1,279a1,1,0,0,1-1-1v-3.9a1,1,0,0,1,2,0V278A.94.94,0,0,1,28.1,279Zm49.3-3.4a.9.9,0,0,1-.5-.1l-3.4-2a1,1,0,1,1,.9-1.7l3.4,2a1,1,0,0,1,.4,1.3A.75.75,0,0,1,77.4,275.64Zm-6.8-3.9a.9.9,0,0,1-.5-.1l-3.4-2a1,1,0,1,1,.9-1.7l3.4,2a1,1,0,0,1-.4,1.8Zm-42.5-.5a1,1,0,0,1-1-1v-3.9a1,1,0,0,1,2,0v3.9A1,1,0,0,1,28.1,271.24Zm35.6-3.4a.9.9,0,0,1-.5-.1l-3.4-2a1,1,0,1,1,.9-1.7l3.4,2a1,1,0,0,1,.4,1.3A.79.79,0,0,1,63.7,267.84Zm-6.8-4a.9.9,0,0,1-.5-.1l-3.4-2a1,1,0,1,1,.9-1.7l3.4,2a1,1,0,0,1,.4,1.3A.75.75,0,0,1,56.9,263.84Zm-28.8-.5a1,1,0,0,1-1-1v-3.9a.87.87,0,0,1,1-.9.92.92,0,0,1,.9,1v3.9C29.1,262.84,28.7,263.34,28.1,263.34Zm21.9-3.4a.9.9,0,0,1-.5-.1l-3.4-2a1,1,0,1,1,.9-1.7l3.4,2a1,1,0,0,1,.4,1.3A.79.79,0,0,1,50,259.94ZM43.2,256a.9.9,0,0,1-.5-.1l-3.4-2c-.1-.1-.2-.1-.3-.2s-.2-.1-.3-.1a10.71,10.71,0,0,0-3.3-1.3,1,1,0,1,1,.3-1.9,11.62,11.62,0,0,1,4,1.5c.1.1.2.1.3.2s.2.1.3.1l3.4,2a1,1,0,0,1,.4,1.3A1.19,1.19,0,0,1,43.2,256Zm-14.2-.5a.6.6,0,0,1-.4-.1,1,1,0,0,1-.5-1.3,7.12,7.12,0,0,1,3.1-3.3,1,1,0,0,1,.8,1.8,4.92,4.92,0,0,0-2.2,2.3A.76.76,0,0,1,29,255.54Z"/></g><g class="cls-20"><path class="cls-21" d="M180.6,405.74a1,1,0,1,1-.1-1.9,4.77,4.77,0,0,0,2.9-1.2,1,1,0,0,1,1.4,1.4,5.89,5.89,0,0,1-4.2,1.7Zm-3.9-.7a.6.6,0,0,1-.4-.1,10.93,10.93,0,0,1-1.5-.8l-2-1.2a1,1,0,1,1,.9-1.7l2,1.2c.5.3.9.5,1.3.7a1,1,0,0,1,.5,1.3C177.5,404.74,177.1,405,176.7,405Zm-6.9-3.9a.9.9,0,0,1-.5-.1l-3.4-2a1,1,0,1,1,.9-1.7l3.4,2a1,1,0,0,1,.4,1.3A.79.79,0,0,1,169.8,401.14Zm16.2-.3h-.2a1,1,0,0,1-.7-1.2,11.15,11.15,0,0,0,.3-2.7v-1a1,1,0,0,1,1-1,.94.94,0,0,1,1,1v1a11.24,11.24,0,0,1-.4,3.2A1,1,0,0,1,186,400.84Zm-23-3.6a.9.9,0,0,1-.5-.1l-3.4-2a1,1,0,1,1,.9-1.7l3.4,2a1,1,0,0,1,.4,1.3A.79.79,0,0,1,163,397.24Zm-6.8-4a.9.9,0,0,1-.5-.1l-3.4-2a1,1,0,1,1,.9-1.7l3.4,2a1,1,0,0,1-.4,1.8Zm30.1-.2a1,1,0,0,1-1-1v-3.9a1,1,0,0,1,1-1,.94.94,0,0,1,1,1V392A1,1,0,0,1,186.3,393Zm-37-3.7a.9.9,0,0,1-.5-.1l-3.4-2a1,1,0,1,1,.9-1.7l3.4,2a1,1,0,0,1,.4,1.3A.79.79,0,0,1,149.3,389.34Zm-6.8-3.9a.9.9,0,0,1-.5-.1l-3.4-2a1,1,0,0,1,.9-1.7l3.4,2a1,1,0,0,1,.4,1.3A.89.89,0,0,1,142.5,385.44Zm43.8-.3a1,1,0,0,1-1-1v-3.9a1,1,0,0,1,1-1,.94.94,0,0,1,1,1v3.9A.94.94,0,0,1,186.3,385.14Zm-50.6-3.7a.9.9,0,0,1-.5-.1l-3.4-2a1,1,0,0,1,.9-1.7l3.4,2a1,1,0,0,1-.4,1.8Zm-6.9-3.9a.9.9,0,0,1-.5-.1l-3.4-2a1,1,0,1,1,.9-1.7l3.4,2a1,1,0,0,1,.4,1.3A.79.79,0,0,1,128.8,377.54Zm57.5-.3a1,1,0,0,1-1-1v-3.9a1,1,0,0,1,1-1,.94.94,0,0,1,1,1v3.9A.94.94,0,0,1,186.3,377.24Zm-64.1-4a1.85,1.85,0,0,1-.7-.2,26.82,26.82,0,0,1-2.8-3,1,1,0,0,1,1.6-1.2,22.26,22.26,0,0,0,2.6,2.7,1.07,1.07,0,0,1,.1,1.4A1.33,1.33,0,0,1,122.2,373.24Zm64.1-3.9a1,1,0,0,1-1-1v-3.9a1,1,0,0,1,1-1,.94.94,0,0,1,1,1v3.9A.94.94,0,0,1,186.3,369.34Zm-69-2.2a1.19,1.19,0,0,1-.9-.5,25.28,25.28,0,0,1-1.8-3.7,1,1,0,1,1,1.9-.7,21.58,21.58,0,0,0,1.7,3.4.88.88,0,0,1-.4,1.3A.65.65,0,0,1,117.3,367.14Zm69-5.7a1,1,0,0,1-1-1v-3.9a1,1,0,0,1,1-1,.94.94,0,0,1,1,1v3.9A.94.94,0,0,1,186.3,361.44Zm-71.9-1.6a1,1,0,0,1-1-.8,17,17,0,0,1-.4-3.8v-.4a1,1,0,0,1,2,0v.4a13.69,13.69,0,0,0,.4,3.4,1,1,0,0,1-.8,1.2Zm71.9-6.3a1,1,0,0,1-1-1v-3.9a1,1,0,1,1,2-.2c0,.4.1.9.1,1.3v2.7C187.3,353.14,186.9,353.54,186.3,353.54ZM114,352a1,1,0,0,1-1-1v-3.9a1,1,0,0,1,2,0V351A1.08,1.08,0,0,1,114,352Zm71.6-6.3a1,1,0,0,1-.9-.7,20.94,20.94,0,0,0-1.3-3.5,1,1,0,1,1,1.8-.8,29.93,29.93,0,0,1,1.5,3.8,1,1,0,0,1-.7,1.2Zm-71.6-1.6a1,1,0,0,1-1-1v-3.9a1,1,0,0,1,2,0v3.9A1.08,1.08,0,0,1,114,344.14Zm68.2-5.5a1.23,1.23,0,0,1-.8-.4,23.72,23.72,0,0,0-2.3-3,1,1,0,1,1,1.5-1.3,39.19,39.19,0,0,1,2.5,3.2,1,1,0,0,1-.3,1.4A1.27,1.27,0,0,1,182.2,338.64Zm-68.2-2.4a1,1,0,0,1-1-1v-3.9a1,1,0,0,1,2,0v3.9A1.08,1.08,0,0,1,114,336.24Zm62.9-3.3a1.42,1.42,0,0,1-.6-.2,13,13,0,0,0-1.5-1l-1.8-1a1,1,0,1,1,.9-1.7l1.8,1a16.29,16.29,0,0,1,1.7,1.1,1.06,1.06,0,0,1,.2,1.4A.84.84,0,0,1,176.9,332.94Zm-6.8-4.1a.9.9,0,0,1-.5-.1l-3.4-2a1,1,0,0,1,.9-1.7l3.4,2a1,1,0,0,1,.4,1.3A.89.89,0,0,1,170.1,328.84Zm-56.1-.5a1,1,0,0,1-1-1v-3.9a1,1,0,0,1,2,0v3.9A1.08,1.08,0,0,1,114,328.34Zm49.3-3.4a.9.9,0,0,1-.5-.1l-3.4-2a1,1,0,0,1,.9-1.7l3.4,2a1,1,0,0,1-.4,1.8Zm-6.9-3.9a.9.9,0,0,1-.5-.1l-3.4-2a1,1,0,1,1,.9-1.7l3.4,2a1,1,0,0,1,.4,1.3A.79.79,0,0,1,156.4,321Zm-42.4-.6a1,1,0,0,1-1-1v-3.9a1,1,0,0,1,2,0v3.9A1,1,0,0,1,114,320.44Zm35.6-3.4a.9.9,0,0,1-.5-.1l-3.4-2a1,1,0,0,1,.9-1.7l3.4,2a1,1,0,0,1,.4,1.3A.89.89,0,0,1,149.6,317Zm-6.9-3.9a.9.9,0,0,1-.5-.1l-3.4-2a1,1,0,1,1,.9-1.7l3.4,2a1,1,0,0,1,.4,1.3A.79.79,0,0,1,142.7,313.14Zm-28.7-.6a1,1,0,0,1-1-1v-3.9a1,1,0,0,1,1.9.1v3.9C115,312.14,114.5,312.54,114,312.54Zm21.9-3.4a.9.9,0,0,1-.5-.1l-3.4-2a1,1,0,1,1,.9-1.7l3.4,2a1,1,0,0,1,.4,1.3C136.6,309,136.3,309.14,135.9,309.14Zm-6.8-3.9a.9.9,0,0,1-.5-.1l-3.4-2c-.1-.1-.2-.1-.3-.2s-.2-.1-.3-.1a10.71,10.71,0,0,0-3.3-1.3,1,1,0,0,1,.3-1.9,11.62,11.62,0,0,1,4,1.5c.1.1.2.1.3.2s.2.1.3.1l3.4,2a1,1,0,0,1,.4,1.3A1.38,1.38,0,0,1,129.1,305.24Zm-14.2-.5a.6.6,0,0,1-.4-.1,1,1,0,0,1-.5-1.3,7.12,7.12,0,0,1,3.1-3.3,1,1,0,0,1,.8,1.8,4.92,4.92,0,0,0-2.2,2.3A.84.84,0,0,1,114.9,304.74Z"/></g><g class="cls-20"><path class="cls-21" d="M266.4,455a1,1,0,1,1-.1-1.9,4.77,4.77,0,0,0,2.9-1.2,1,1,0,0,1,1.4,1.4,6.89,6.89,0,0,1-4.2,1.7Zm-3.9-.8a.6.6,0,0,1-.4-.1,10.93,10.93,0,0,1-1.5-.8l-2-1.2a1,1,0,1,1,.9-1.7l2,1.2c.5.3.9.5,1.3.7a1,1,0,0,1,.5,1.3C263.3,454,262.9,454.24,262.5,454.24Zm-6.8-3.8a.9.9,0,0,1-.5-.1l-3.4-2a1,1,0,1,1,.9-1.7l3.4,2a1,1,0,0,1-.4,1.8Zm16.1-.3h-.2a1,1,0,0,1-.7-1.2,11.15,11.15,0,0,0,.3-2.7v-1a1,1,0,0,1,2,0v1a11.24,11.24,0,0,1-.4,3.2A1.09,1.09,0,0,1,271.8,450.14Zm-23-3.7a.9.9,0,0,1-.5-.1l-3.4-2a1,1,0,1,1,.9-1.7l3.4,2a1,1,0,0,1,.4,1.3C249.5,446.34,249.2,446.44,248.8,446.44Zm-6.8-3.9a.9.9,0,0,1-.5-.1l-3.4-2a1,1,0,0,1,.9-1.7l3.4,2a1,1,0,0,1,.4,1.3A.89.89,0,0,1,242,442.54Zm30.1-.2a1,1,0,0,1-1-1v-3.9a1,1,0,1,1,2,0v3.9A1,1,0,0,1,272.1,442.34Zm-36.9-3.7a.9.9,0,0,1-.5-.1l-3.4-2a1,1,0,1,1,.9-1.7l3.4,2a1,1,0,0,1-.4,1.8Zm-6.9-4a.9.9,0,0,1-.5-.1l-3.4-2a1,1,0,1,1,.9-1.7l3.4,2a1,1,0,0,1,.4,1.3C229,434.54,228.7,434.64,228.3,434.64Zm43.8-.2a1,1,0,0,1-1-1v-3.9a1,1,0,0,1,2,0v3.9A1,1,0,0,1,272.1,434.44Zm-50.6-3.7a.9.9,0,0,1-.5-.1l-3.4-2a1,1,0,1,1,.9-1.7l3.4,2a1,1,0,0,1,.4,1.3A.89.89,0,0,1,221.5,430.74Zm-6.9-3.9a.9.9,0,0,1-.5-.1l-3.4-2a1,1,0,0,1,.9-1.7l3.4,2a1,1,0,0,1,.4,1.3A.79.79,0,0,1,214.6,426.84Zm57.5-.3a1,1,0,0,1-1-1v-3.9a1,1,0,0,1,2,0v3.9A.94.94,0,0,1,272.1,426.54Zm-64.1-4a1.85,1.85,0,0,1-.7-.2,26.82,26.82,0,0,1-2.8-3,1,1,0,1,1,1.6-1.2,22.26,22.26,0,0,0,2.6,2.7,1.07,1.07,0,0,1,.1,1.4A1.14,1.14,0,0,1,208,422.54Zm64.1-3.9a1,1,0,0,1-1-1v-3.9a1,1,0,0,1,2,0v3.9A.94.94,0,0,1,272.1,418.64Zm-69-2.2a1.19,1.19,0,0,1-.9-.5,25.28,25.28,0,0,1-1.8-3.7,1,1,0,1,1,1.9-.7,21.58,21.58,0,0,0,1.7,3.4.88.88,0,0,1-.4,1.3A.65.65,0,0,1,203.1,416.44Zm69-5.7a1,1,0,0,1-1-1v-3.9a1,1,0,0,1,2,0v3.9A.94.94,0,0,1,272.1,410.74Zm-71.9-1.6a1,1,0,0,1-1-.8,17,17,0,0,1-.4-3.8v-.4a1,1,0,0,1,2,0v.4a13.69,13.69,0,0,0,.4,3.4,1,1,0,0,1-.8,1.2Zm71.9-6.3a1,1,0,0,1-1-1v-3.9a1,1,0,0,1,2-.2c0,.4.1.9.1,1.3v2.7C273.1,402.44,272.7,402.84,272.1,402.84Zm-72.3-1.6a1,1,0,0,1-1-1v-3.9a1,1,0,0,1,2,0v3.9A.94.94,0,0,1,199.8,401.24Zm71.6-6.2a1,1,0,0,1-.9-.7,20.94,20.94,0,0,0-1.3-3.5,1,1,0,0,1,1.8-.8,29.93,29.93,0,0,1,1.5,3.8,1,1,0,0,1-.7,1.2Zm-71.6-1.6a1,1,0,0,1-1-1v-3.9a1,1,0,0,1,2,0v3.9A1,1,0,0,1,199.8,393.44Zm68.2-5.5a1.23,1.23,0,0,1-.8-.4,23.72,23.72,0,0,0-2.3-3,1,1,0,0,1,1.5-1.3,25.12,25.12,0,0,1,2.5,3.2,1,1,0,0,1-.3,1.4C268.4,387.84,268.2,387.94,268,387.94Zm-68.2-2.4a1,1,0,0,1-1-1v-3.9a1,1,0,0,1,2,0v3.9A1,1,0,0,1,199.8,385.54Zm62.9-3.4a1.42,1.42,0,0,1-.6-.2,13,13,0,0,0-1.5-1l-1.8-1a1,1,0,0,1,.9-1.7l1.8,1a16.29,16.29,0,0,1,1.7,1.1,1.06,1.06,0,0,1,.2,1.4A.67.67,0,0,1,262.7,382.14Zm-6.8-4a.9.9,0,0,1-.5-.1l-3.4-2a1,1,0,1,1,.9-1.7l3.4,2a1,1,0,0,1,.4,1.3A.79.79,0,0,1,255.9,378.14Zm-56.1-.5a1,1,0,0,1-1-1v-3.9a1,1,0,0,1,2,0v3.9A1,1,0,0,1,199.8,377.64Zm49.3-3.4a.9.9,0,0,1-.5-.1l-3.4-2a1,1,0,0,1,.9-1.7l3.4,2a1,1,0,0,1-.4,1.8Zm-6.9-4a.9.9,0,0,1-.5-.1l-3.4-2a1,1,0,1,1,.9-1.7l3.4,2a1,1,0,0,1,.4,1.3C242.9,370.14,242.6,370.24,242.2,370.24Zm-42.4-.5a1,1,0,0,1-1-1v-3.9a1,1,0,0,1,2,0v3.9A1,1,0,0,1,199.8,369.74Zm35.6-3.4a.9.9,0,0,1-.5-.1l-3.4-2a1,1,0,1,1,.9-1.7l3.4,2a1,1,0,0,1,.4,1.3A.89.89,0,0,1,235.4,366.34Zm-6.8-3.9a.9.9,0,0,1-.5-.1l-3.4-2a1,1,0,1,1,.9-1.7l3.4,2a1,1,0,0,1-.4,1.8Zm-28.8-.6a1,1,0,0,1-1-1v-3.9a1,1,0,0,1,1.9.1v3.9C200.8,361.44,200.4,361.84,199.8,361.84Zm21.9-3.4a.9.9,0,0,1-.5-.1l-3.4-2a1,1,0,0,1,.9-1.7l3.4,2a1,1,0,0,1,.4,1.3C222.4,358.34,222.1,358.44,221.7,358.44Zm-6.8-3.9a.9.9,0,0,1-.5-.1l-3.4-2c-.1-.1-.2-.1-.3-.2s-.2-.1-.3-.1a10.71,10.71,0,0,0-3.3-1.3,1,1,0,1,1,.3-1.9,11.62,11.62,0,0,1,4,1.5c.1.1.2.1.3.2s.2.1.3.1l3.4,2a1,1,0,0,1,.4,1.3A1.19,1.19,0,0,1,214.9,354.54Zm-14.2-.5a.6.6,0,0,1-.4-.1,1,1,0,0,1-.5-1.3,7.12,7.12,0,0,1,3.1-3.3,1,1,0,1,1,.8,1.8,4.92,4.92,0,0,0-2.2,2.3A.84.84,0,0,1,200.7,354Z"/></g><path class="cls-22" d="M153,168.54v-1.6a6.92,6.92,0,0,0-3.1-5.4L135.2,153c-1.7-1-3.1-.2-3.1,1.8v3.3l-1.4-.8c-1.7-1-3.1-.2-3.1,1.8v28.8a6.94,6.94,0,0,0,3.2,5.5s39.6,22.9,40.1,23.2c2.5,1.4,4.5.3,4.5-2.6v-32.6Zm19.4,43.7a1,1,0,0,1-1.5.9,3.36,3.36,0,0,1-1.5-2.6v-25.7L147,171.94v-1.6a6.92,6.92,0,0,0-3.1-5.4l-8.8-5.1v-3.3a.1.1,0,0,1,.1-.1l14.7,8.5c.1,0,.1.1.1.2v5l3,1.7L172.4,183v29.2Z"/><path class="cls-23" d="M142.5,349.14l-4.7,2.7c-3.5-3.5-7.5-5-10.3-3.4s-3.5,5.8-2.2,10.5l5.6-3.2,5.7,9.7-5.6,3.2c3.5,3.5,7.5,5,10.3,3.4s3.5-5.8,2.2-10.5l4.7-2.7Zm12.2,6.1,4.7-2.7c3.5,3.5,7.5,5,10.3,3.4s3.5-5.8,2.2-10.5l-5.6,3.2-5.7-9.7,5.6-3.2c-3.5-3.5-7.5-5-10.3-3.4s-3.5,5.8-2.2,10.5l-4.7,2.7Zm7.9,13c-1.2-2.1-3-3.3-4.4-3.2l-19.6-33.8-1.2-5.7-7.3-8.8-3.2,1.8,4.1,10.7,4.4,3.9,19.6,33.8c-.8,1.1-.6,3.3.6,5.4l8,13.9c1.4,2.5,3.7,3.8,5.2,3l2-1.1c1.4-.8,1.4-3.5,0-5.9Z"/><path class="cls-24" d="M64.5,275.74c-13.2-7.6-23.9-1.5-23.9,13.6s10.7,33.6,23.9,41.2,23.9,1.5,23.9-13.6S77.6,283.34,64.5,275.74ZM76.9,292a3.19,3.19,0,0,0,.4,1.3,9,9,0,0,1-2.7-1.3c-.6-.6.5-1,.5-1s-1.4-.9-1.5-.6.7.9.7.9a1.19,1.19,0,0,1-.6-.2,8.69,8.69,0,0,1-1.7-1.6,6.29,6.29,0,0,0-.8-1.1l.5-.5c.1-.1.2-.1.1-.3s-1.1-.6-1.1-.8.5-.1.4-.3a2.68,2.68,0,0,0-1.2-.6c-.1.1-.3.4-.4.4s-.3-.4-.5-.4.3.6.3.8a2,2,0,0,0,.1.7c.1.1.8.3.8.6s-.2.3,0,.7.8.8.7.9-.7-.1-.7.2a.69.69,0,0,1-.3.5l.7.7s-1.1,0-.9.2,1.4.7,1.7.9,2,1.1,2.2.9.5-1.3.9-.7-.8,1.3-1.6,1a7.14,7.14,0,0,1-1.5-.7c-.1,0,.3.5-.1.4s-1.2-.5-1.3-.3,1.9,1.7,2,2.7.2,1.7-.5,1.3a29.37,29.37,0,0,1-2.9-1.9c-.4-.2-.8-.4-.8-.2a6.05,6.05,0,0,1,.2,1.5,8.4,8.4,0,0,0-.4,1.2c0,.2.3.4.3.8a1.45,1.45,0,0,1-.1.6l.6.3a2.28,2.28,0,0,1,.9.8.64.64,0,0,0,.7.5c.3,0,1.2.7,1.6.6a2.55,2.55,0,0,1,.9,0c.1,0,.5-.3.5-.4s-.3-.7.1-.9,1.7.1,1.7-.2-.3-.9.3-.8,1.5,1.2,1.6,1.1h.8c.2-.1.6-.4,1.1.6a8.92,8.92,0,0,0,1.7,2.7c.7.6,1,.7,1.1,1.1a6.82,6.82,0,0,0,.5.7c.1.2.3.6.2.7s-.1.3-.3.2-1.1-.6-1.4-.7-.5-.2-.4,0a9,9,0,0,0,1,1.1l.5.5.1-.2s-.2-.4-.1-.4a.3.3,0,0,1,.4,0,.19.19,0,0,0,.3-.1.19.19,0,0,1,.3-.1c.1,0,.2-.1.1-.3s-.3-.3-.3-.5.1-.4.3-.1.4.5.5.6.3.1.2,0a1.27,1.27,0,0,0-.4-.7,3.24,3.24,0,0,1-.8-.9c-.1-.2.2-.2-.2-.4a2.56,2.56,0,0,1-1-1.3,1.18,1.18,0,0,0-.4-.7c-.2-.3-.5-.8-.3-1s.6.5,1,1.1,1.4,1.5,1.6,1.8h0a34.93,34.93,0,0,1,1.8,7.6h-.1c-.6.2-.4.5-.4.7s-.1.7-.5.3-1.1-1.3-1.4-1.4a1.83,1.83,0,0,1-.7-1,2.78,2.78,0,0,0-1.2-1.2,1.4,1.4,0,0,1-.9-.7c-.3-.5-.7-1-.6-1.1s.7.3.7.1-.3-.3-.4-.6-.2-.3-.3-.5-.2-.3,0-.4.3-.2.2-.3-.3,0-.4-.2a.82.82,0,0,0-.5-.5h0c.1-.1.1-.1-.1-.3s-.5-.2-.5-.1a.31.31,0,0,0,.1.2c-.1,0-.2-.1-.4-.2a9.22,9.22,0,0,0-.8-.5c-.3-.2-.4,0-.6-.1a8.28,8.28,0,0,0-1.5-.9,8.17,8.17,0,0,0-2.2-.5c-.3.1-.5.1-.9-.3s-.9-.4-1.1-.6a7.76,7.76,0,0,1-.4-.7h-.4a1.08,1.08,0,0,1-1.1.7c-.9,0-.9.7-1,1.2s-.4,1.1-1.3.9-1.2,1.1-1.7,1.2-1.7,1.2-1.3,2.2a4.16,4.16,0,0,1,.3,3.1c-.4,1.1-.8,2.6,1.7,6a42.34,42.34,0,0,0,3.4,4.4,3.05,3.05,0,0,1,2.4.8c1,1,2.5.9,3.2,1.2a4.45,4.45,0,0,1,1.9,2.2c.2.6,2.3.3,2.1,2.2a12.5,12.5,0,0,1-.3,1.9c-3.6,1.5-8.2,1-13.2-1.9.3-.3.7-.5,1-.8.6-.6.4-1.4.1-2.2s-.4-.5-1-1.3a6.66,6.66,0,0,0-1.8-2.2c-.8-.4-1.7-2-2-2.4a6.37,6.37,0,0,1-1.2-2.2,25.83,25.83,0,0,0-1.9-3.4c-.3-.5-1.2-.7-2.3-2.2s-.2-1.3-1.5-2.3a24.15,24.15,0,0,0-2.4-1.5c-.7-.5-1.1-1.6-1.7-1.9s-1.8.4-2.1.6-.3-.1-.8-.7c-.2-.3-.4-.3-.6-.4-.4-1.1-.7-2.2-1-3.2a3.93,3.93,0,0,0,.2-.6c0-.3-.2-.4-.6-.6a34.62,34.62,0,0,1-1-7.7v-.4a10.74,10.74,0,0,1,.7,1.5,2.1,2.1,0,0,1,.2,1.9s1,.6,1.3.3-.3-3.1-.1-3.6,2.2-.5,2.3-.8-.1-1.1.4-2.1,1.7.2,1.8.2,0-.4-.2-.9.1-.7.5-.7,1.6.1,1.6.1a.47.47,0,0,0-.3.6c0,.5.5.2,1.1.2s1.6.1,1.6.1l-.3-.6a2.24,2.24,0,0,1-1.1-.6c-.5-.4-.5-.8-.6-1.5s-2.2-.9-2.2-.9a5.34,5.34,0,0,1,1.1-.4c.5,0,2.5,1.4,2.9,1.5s.8-.3,1.4,0,.7-.2.6-.7-1-1.3-2.1-3a15.07,15.07,0,0,1-1.7-3.5,1.44,1.44,0,0,1-.7.6c-.3.1-.7-.3-1.1-1.1,3.6-1.5,8.3-1,13.4,1.9A43.22,43.22,0,0,1,76.9,292Z"/><path class="cls-25" d="M67.1,291.54c-.1.1-.4-.2-.2.3s1.2.7,1.6.9.9.2.9,0,0-.7.1-.7,0-.6-.3-.8-1.2-.9-1.3-.8-.3.3-.5.1-.9-.4-.7.2C67,291.14,67.3,291.44,67.1,291.54Z"/><path class="cls-26" d="M61.6,281.24c1.2.8,3.5,1.3,3.5.9s-.1-1.1-1.3-1.5a8.08,8.08,0,0,1-2.2-.9c-.6-.5-1.7-1.7-2.4-1.4C58.7,278.44,60.4,280.44,61.6,281.24Z"/><path class="cls-27" d="M236.2,375.84c-12.4-7.1-22.4-1.4-22.4,12.8s10,31.5,22.4,38.6,22.4,1.4,22.4-12.8S248.6,382.94,236.2,375.84Zm2.6,42a.6.6,0,0,1-.3.6.47.47,0,0,1-.6-.1l-3.2-1.9a1.06,1.06,0,0,1-.6-.7,1.61,1.61,0,0,1-.3-.9v-20.7a.6.6,0,0,1,.3-.6.47.47,0,0,1,.6.1l3.2,1.9a1.06,1.06,0,0,1,.6.7,1.61,1.61,0,0,1,.3.9Zm.1-26.4a.6.6,0,0,1-.3.6.63.63,0,0,1-.7-.1l-3.5-2a1.06,1.06,0,0,1-.6-.7,1.61,1.61,0,0,1-.3-.9v-3.2a.6.6,0,0,1,.3-.6.47.47,0,0,1,.6.1l3.5,2a2.34,2.34,0,0,1,.7.7,1.61,1.61,0,0,1,.3.9Z"/><path class="cls-28" d="M149.2,250.94c10.9,6.3,19.7,9.2,19.7,6.4s-8.8-10-19.7-16.3-19.7-9.2-19.7-6.4S138.3,244.74,149.2,250.94Zm0,3.3c-10.9-6.3-19.7-13.6-19.7-16.3v8.2h0c0,2.7,8.8,10,19.7,16.3s19.7,9.2,19.7,6.4h0v-8.1C168.9,263.44,160.1,260.54,149.2,254.24Zm0,11.2c-10.9-6.3-19.7-13.6-19.7-16.3v8.2h0c0,2.7,8.8,10,19.7,16.3s19.7,9.2,19.7,6.4h0v-8.2C168.9,274.64,160.1,271.74,149.2,265.44Zm0,11.2c-10.9-6.3-19.7-13.6-19.7-16.3v8.2h0c0,2.7,8.8,10,19.7,16.3s19.7,9.2,19.7,6.4h0V283C168.9,285.84,160.1,282.94,149.2,276.64Zm0,11.2c-10.9-6.3-19.7-13.6-19.7-16.3v8.2h0c0,2.7,8.8,10,19.7,16.3s19.7,9.2,19.7,6.4h0v-8.2C168.9,296.94,160.1,294.14,149.2,287.84Z"/><path class="cls-29" d="M79,234.24a33.69,33.69,0,0,1-7-8.4c-1.2-2-1.1-4.1,0-4.7a8.8,8.8,0,0,0,3.6-4c1.2.3,2.8-.1,2.8-1.8a7.07,7.07,0,0,0-1.8-4.6c-.3-7.4-2.8-15-11.3-19.9s-11-.2-11.3,6.8c-1-.2-1.8.8-1.8,2.5s1.5,3.9,2.8,5a37.19,37.19,0,0,0,3.6,8.2c1.1,2,1.2,4.1,0,4.7a9.26,9.26,0,0,1-7,.3c-3.6-1.1-6.2,1.1-6.2,5.5v7.6a4.94,4.94,0,0,0,2.3,4l35.4,20.4c1.3.7,2.3.1,2.3-1.3v-7.6A18.86,18.86,0,0,0,79,234.24Z"/><path class="cls-30" d="M141.3,409.44l-23.8-13v12.4l23.8,13.3c3,1.8,5.5.4,5.5-3.1A12.32,12.32,0,0,0,141.3,409.44Z"/><path class="cls-31" d="M146.8,418.94c0,3.5-2.5,4.9-5.5,3.1a12.3,12.3,0,0,1-5.5-9.5c0-3.5,2.5-4.9,5.5-3.1A12.3,12.3,0,0,1,146.8,418.94Z"/><path class="cls-32" d="M162.1,427.44c0,3.5-2.5,4.9-5.5,3.1a12.3,12.3,0,0,1-5.5-9.5c0-3.5,2.5-4.9,5.5-3.1A12.14,12.14,0,0,1,162.1,427.44Z"/></g></g></g></g></svg>