<svg xmlns="http://www.w3.org/2000/svg" viewBox="0 0 1056.52 690.11"><defs><style>.cls-1{fill:#fff;}.cls-2{fill:#25995c;}</style></defs><g id="Capa_2" data-name="Capa 2"><g id="Capa_1-2" data-name="Capa 1"><path class="cls-1" d="M277.85,666.58c-6.54-49.23-15.16-95-36.39-137.42-9-17.92-20.11-34.31-35.42-47.55-31.58-27.32-71.59-28.51-104.95-3.47-48.24,36.21-69,119.39-14,174.78A203.21,203.21,0,0,0,110.39,673c8.2,6.07,17.25,11,25.56,17.09C87.52,687.38,49.4,666,22.83,625.05-8.68,576.53-7.87,511.94,27.1,465.87c45.71-60.23,106-72.69,175.45-48.18,65.47-137.13,171.27-217.12,325.7-217,154,.12,259.53,79.93,325,217.07,68.18-24.51,128.59-12.88,173.92,46.41,34.7,45.39,38.09,96.85,12.84,148-24.24,49-65.84,74.28-120.92,77.28L926.8,685c33.86-19.48,61.13-44.63,71.44-84.05,15.12-57.86-21.42-124.56-76.2-138.31-30.11-7.56-55.69,2.36-77.17,23.55-26.41,26.06-40.49,59.1-50,94-7.18,26.53-11.95,53.71-17.8,80.6.43.25-.67,0-.84-.57-6.95-21.77-20.53-38.85-37.32-53.9-14.05-12.59-14.41-27-2.34-41.37,29.28-34.93,42.72-74.2,30.87-119.61a98.65,98.65,0,0,0-34.12-52.45c-46.08-37.21-96.63-54.06-154.51-29.68-11.09,4.66-21.33,11.72-31.25,18.68-14.73,10.34-25.16,10.72-39.27-.11-63.86-49-159.23-34-205.23,32.38-27.75,40-25,95.27,7,139.49,3.19,4.41,6.82,8.51,10.33,12.68,10.73,12.78,10,27.85-2.82,39.28C299.47,621.69,285.06,640.06,277.85,666.58Z"/><path class="cls-1" d="M608.5,507.43c1.07-15.28,4.61-29.7,15.9-41.06,14.19-14.25,33.85-13.76,47.43,1.05,18.64,20.33,19.26,59,1.28,79.88-14.83,17.22-36.94,17.08-51.45-.44C612.24,535.47,609.17,521.89,608.5,507.43Z"/><path class="cls-1" d="M446.93,507c-.12,15.13-3.45,29.25-13.65,41-13.94,16-35.34,16.17-49.59.53-18.84-20.67-18.88-59.87-.07-80.61,14.16-15.63,34.23-15.85,48.74-.53C441.33,476.8,446.47,490.76,446.93,507Z"/><path class="cls-1" d="M546.38,640.84c-4.43-14.07-3.85-25.3,0-36.4,3.9-11.28,12.14-17.62,23.69-20,12.2-2.5,21.87,3.61,23.47,14.87,1.41,10-6.11,17.44-17.57,19.95-7.38,1.61-14.56,5.31-21.06,9.32C551.6,630.62,550,635.41,546.38,640.84Z"/><path class="cls-1" d="M508.25,639c-1.32-1.91-2.82-3.72-3.94-5.74C499.42,624.43,492,619.66,482,619c-8.13-.51-16.17-2.78-18-11.34-1.19-5.52-.08-13,2.93-17.64,4.87-7.59,13.48-7.32,21.71-5,11.46,3.25,19.47,10.64,21.67,22.08,1.93,10,1.39,20.5,2,30.78Z"/><path class="cls-2" d="M657.72,2.67c-16.44,30.19-13.55,64.57-21.28,96.71-9.15,38.06-33.52,58.3-72.59,61.07-7.58.53-15.13,1.37-23.82,2.18-2.87-59.16,17.43-104.92,70.87-135.4-23.25,2.24-65.47,35.25-77.82,62.22-12.51,27.34-14.28,58.26-3.08,98.29C501.19,140.8,497,80.67,542.65,41c30-26.07,65.46-38,104.46-40.94a47,47,0,0,1,7.67.36C655.3.46,655.77,1.15,657.72,2.67Z"/></g></g></svg>