<svg xmlns="http://www.w3.org/2000/svg" viewBox="0 0 99.52 99.22"><defs><style>.cls-1{fill:#ededed;}</style></defs><g id="Capa_2" data-name="Capa 2"><g id="Capa_1-2" data-name="Capa 1"><path class="cls-1" d="M89.11,82.47h0Q99.52,69.38,99.52,49.56q0-22.2-13.53-35.88T49.76,0Q28.06,0,14,13.68T0,49.56Q0,70.68,13.13,84.9T49.76,99.12l6,.1H94.57a3.11,3.11,0,0,0,2.58-4.84ZM23.16,85.73a7.64,7.64,0,0,1-1.23-4.29c0-4.87,0-17.11,0-17.25V18.69a4,4,0,0,1,4-4H48.32q10.93,0,18.2,2.66a22,22,0,0,1,10.92,8q3.66,5.28,3.66,13.15a23.26,23.26,0,0,1-1.65,8.91,22.72,22.72,0,0,1-4.7,7.18A30.57,30.57,0,0,1,70.69,58a4,4,0,0,0-1,5.41L87.43,89.92a3.33,3.33,0,0,1-2.77,5.18h-39S29.14,94.58,23.16,85.73Z"/></g></g></svg>